<svg width="30" height="35" viewBox="0 0 30 35" fill="none" xmlns="http://www.w3.org/2000/svg">
<path d="M0.0519705 34.5346C-0.00339653 34.1355 -0.0179726 32.9268 0.0250839 32.3078C0.291276 28.4817 1.87204 25.0431 4.56526 22.4322C7.00708 20.0649 10.1057 18.6268 13.5597 18.2578C14.122 18.1978 15.878 18.1978 16.4403 18.2578C20.8286 18.7266 24.6701 20.9487 27.1987 24.4811C28.8341 26.7657 29.7736 29.4143 29.9749 32.3078C30.018 32.9268 30.0034 34.1355 29.948 34.5346L29.923 34.7146H15H0.0769621L0.0519705 34.5346ZM14.1093 16.9799C12.9839 16.7714 12.215 16.4581 11.3993 15.8756C10.9375 15.5458 10.6457 15.2781 10.2389 14.8111C9.87656 14.395 9.71934 14.1572 9.41149 13.5597C8.88971 12.5469 8.70829 11.6124 8.70829 9.93727C8.70829 9.38949 8.72271 8.94131 8.74039 8.94131C8.75803 8.94131 8.90729 9.03106 9.07203 9.14074C9.48543 9.41593 9.76414 9.57708 10.7929 10.1356C11.2828 10.4016 11.8712 10.7255 12.1005 10.8553C12.3298 10.9852 12.6709 11.1728 12.8585 11.2722C13.1776 11.4413 13.2795 11.4965 13.7682 11.7653C13.8724 11.8226 14.2014 11.9963 14.4992 12.1513L15.0407 12.433L15.7121 12.0746C16.4015 11.7066 16.4974 11.6543 17.0421 11.3501C17.2167 11.2525 17.5393 11.0781 17.7589 10.9624C17.9785 10.8467 18.3558 10.6403 18.5974 10.5037C18.8389 10.367 19.1815 10.1796 19.3587 10.0872C19.6532 9.9335 19.8543 9.82319 20.7373 9.33066C20.9013 9.23915 21.0846 9.13116 21.1446 9.09069C21.2046 9.05023 21.3043 8.983 21.366 8.94131C21.4277 8.89961 21.4874 8.8655 21.4986 8.8655C21.5099 8.8655 21.519 9.21941 21.5189 9.65197C21.5186 11.1056 21.2209 12.5458 20.7145 13.5432C19.9986 14.9532 18.8345 16.0223 17.3737 16.6113C16.6989 16.8834 16.0243 17.0116 15.1516 17.0335C14.6145 17.047 14.4162 17.0368 14.1093 16.9799ZM14.5641 10.9842C14.3348 10.8586 13.934 10.6438 13.6734 10.5068C13.4129 10.3698 13.1826 10.2457 13.1618 10.2308C13.1409 10.216 12.9362 10.105 12.7069 9.98426C12.4776 9.86348 12.0598 9.64133 11.7783 9.49062C11.0292 9.08944 8.32005 7.63595 7.11641 6.98945C6.54315 6.68153 5.81825 6.29288 5.50558 6.12579C4.66516 5.67669 4.57818 5.62735 4.57757 5.5995C4.57697 5.57766 4.93117 5.3824 6.13096 4.74298C6.26647 4.67076 6.59051 4.49651 6.85109 4.35573C7.11168 4.21494 7.68303 3.90783 8.12081 3.67326C8.55856 3.43868 9.01908 3.19177 9.14416 3.12458C9.26923 3.05739 9.51654 2.92493 9.69374 2.83023C9.99034 2.67171 11.2944 1.9722 12.5364 1.30541C12.8178 1.15432 13.3295 0.880422 13.6734 0.696743C14.0174 0.513065 14.4502 0.280368 14.6353 0.179634C14.9721 -0.00365638 15.0671 -0.0322553 15.1346 0.0294035C15.1544 0.0475145 15.4435 0.2072 15.777 0.384275C16.1105 0.561349 16.6265 0.836479 16.9235 0.995679C17.2206 1.15488 17.7024 1.41306 17.9942 1.5694C18.2861 1.72575 18.7679 1.98414 19.065 2.1436C19.6961 2.48236 21.167 3.2711 22.6941 4.0896C23.2882 4.40803 23.9193 4.74652 24.0965 4.84182C24.2737 4.93711 24.6482 5.13758 24.9289 5.28731C25.2095 5.43704 25.4443 5.57513 25.4506 5.59417C25.457 5.6132 25.1081 5.81811 24.6752 6.04951C23.4756 6.69067 22.925 6.98605 22.6751 7.12246C22.5501 7.19074 22.2786 7.33101 22.0719 7.43417C21.8652 7.53734 21.6349 7.6601 21.5602 7.70701C21.4855 7.75391 20.9383 8.05307 20.3442 8.37177C19.75 8.69048 19.0508 9.06649 18.7902 9.20736C18.3864 9.42566 17.6033 9.84443 16.3645 10.5046C16.2081 10.588 15.8472 10.782 15.5625 10.9358C15.2777 11.0896 15.0304 11.2148 15.0129 11.214C14.9954 11.2133 14.7934 11.1098 14.5641 10.9842Z" fill="white"/>
</svg>
