<svg width="46" height="31" viewBox="0 0 46 31" fill="none" xmlns="http://www.w3.org/2000/svg">
<path d="M36 14.25C35.5858 14.25 35.25 14.5858 35.25 15C35.25 15.4142 35.5858 15.75 36 15.75V14.25ZM44.5 15.75C44.9142 15.75 45.25 15.4142 45.25 15C45.25 14.5858 44.9142 14.25 44.5 14.25V15.75ZM41 11C41 10.5858 40.6642 10.25 40.25 10.25C39.8358 10.25 39.5 10.5858 39.5 11H41ZM39.5 19C39.5 19.4142 39.8358 19.75 40.25 19.75C40.6642 19.75 41 19.4142 41 19H39.5ZM36 15.75H40.25V14.25H36V15.75ZM40.25 15.75H44.5V14.25H40.25V15.75ZM41 15V11H39.5V15H41ZM39.5 11V19H41V11H39.5Z" fill="black"/>
<path d="M35.3988 26.147C35.3988 26.7585 35.3988 27.3743 35.3988 27.9858C35.3988 28.1967 35.3908 28.4118 35.3988 28.6226C35.4067 28.7913 35.3948 28.5678 35.4147 28.5678C35.4147 28.5678 35.3908 28.6859 35.3908 28.6775C35.3868 28.707 35.3788 28.7913 35.3948 28.6775C35.4107 28.572 35.4067 28.6564 35.3788 28.6986C35.279 28.8546 35.4666 28.6226 35.3628 28.7196C35.2949 28.7871 35.3628 28.7196 35.3668 28.7239C35.4227 28.6817 35.4227 28.6817 35.3668 28.7239C35.3508 28.7323 35.3389 28.7407 35.3229 28.7534C35.2191 28.8335 35.3588 28.6901 35.3748 28.7365C35.3748 28.7365 35.3069 28.7618 35.2989 28.7618C35.0993 28.7913 35.4227 28.7703 35.271 28.766C35.267 28.766 35.263 28.766 35.259 28.766C34.5482 28.7407 33.8335 28.766 33.1227 28.766C31.6772 28.766 30.2277 28.766 28.7822 28.766C27.3088 28.766 25.8353 28.766 24.3618 28.766C23.5952 28.766 22.8165 28.7323 22.0498 28.766C22.0379 28.766 22.0259 28.766 22.0139 28.766C22.0139 29.327 22.0139 29.8921 22.0139 30.453C23.104 30.4235 23.8947 29.5083 23.8947 28.3738C23.8947 27.8045 23.8947 27.2351 23.8947 26.67C23.8947 25.0631 23.8667 23.4521 23.2917 21.938C22.8804 20.8499 22.2854 19.8672 21.4908 19.0448C21.4389 19.4877 21.383 19.9263 21.3311 20.3691C21.367 20.3523 21.407 20.3354 21.4429 20.3143C21.4589 20.3059 21.5547 20.2595 21.4629 20.3059C21.367 20.348 21.5707 20.2595 21.5986 20.2468C21.7584 20.1793 21.9181 20.1203 22.0778 20.0612C22.3893 19.9516 22.7047 19.8546 23.0242 19.7745C23.3436 19.6943 23.667 19.6269 23.9905 19.5678C24.0704 19.5552 24.1502 19.5425 24.2301 19.5299C24.278 19.5214 24.3219 19.5172 24.3698 19.5088C24.3579 19.5088 24.2381 19.5256 24.3339 19.513C24.5216 19.4919 24.7092 19.4666 24.9009 19.4497C25.6197 19.3822 26.3424 19.3569 27.0652 19.3738C27.4206 19.3822 27.7759 19.3991 28.1353 19.4286C28.299 19.4413 28.4588 19.4582 28.6225 19.475C28.7023 19.4835 28.7822 19.4919 28.8621 19.5045C28.898 19.5088 28.9299 19.513 28.9659 19.5172C28.7902 19.4961 28.9539 19.5172 28.9898 19.5214C29.6287 19.6184 30.2636 19.7576 30.8786 19.9558C31.1781 20.0528 31.4696 20.1625 31.7571 20.2848C31.8249 20.3143 31.8489 20.2848 31.7331 20.2721C31.7571 20.2763 31.793 20.3016 31.817 20.3101C31.8808 20.3396 31.9447 20.3691 32.0086 20.4029C32.1524 20.4746 32.2921 20.5505 32.4319 20.6306C32.6715 20.7698 32.9071 20.9216 33.1347 21.0861C33.1826 21.124 33.2345 21.162 33.2824 21.2C33.2904 21.2042 33.3583 21.2506 33.3663 21.2674C33.3623 21.259 33.2145 21.1367 33.3263 21.2379C33.4262 21.3265 33.526 21.4108 33.6178 21.5036C33.8055 21.685 33.9852 21.879 34.1529 22.0856C34.1928 22.132 34.2288 22.1826 34.2687 22.2332C34.3566 22.3471 34.1689 22.0856 34.2847 22.2543C34.3606 22.364 34.4324 22.4778 34.5043 22.5917C34.664 22.8574 34.8038 23.1358 34.9276 23.4225C34.9356 23.4436 34.9755 23.5364 34.9316 23.4268C34.8797 23.3002 34.9475 23.4732 34.9515 23.4858C34.9795 23.5575 35.0034 23.6292 35.0274 23.7009C35.0793 23.8569 35.1272 24.0172 35.1672 24.1775C35.2071 24.3335 35.243 24.4896 35.271 24.6498C35.287 24.7426 35.3029 24.8354 35.3189 24.924C35.3229 24.9535 35.3269 24.9872 35.3349 25.0167C35.3628 25.2023 35.3189 25.0252 35.3349 25.0125C35.3109 25.0252 35.3788 25.4807 35.3828 25.5355C35.3908 25.7379 35.3948 25.9404 35.3988 26.147C35.3988 26.5898 35.7661 27.0116 36.1974 26.9905C36.6286 26.9694 36.996 26.6194 36.996 26.147C36.992 24.7553 36.7325 23.3677 36.1055 22.1362C35.5425 21.0313 34.688 20.1287 33.6897 19.4539C32.5716 18.699 31.2699 18.2435 29.9721 17.9905C28.4707 17.6953 26.9294 17.6194 25.404 17.7164C23.719 17.826 22.0618 18.1634 20.5205 18.9057C20.0493 19.1334 20.0214 19.8799 20.3608 20.2299C20.5005 20.3733 20.6363 20.5252 20.7681 20.6812C20.828 20.7571 20.9398 20.8541 20.9757 20.9427C20.9278 20.8162 20.9078 20.8457 20.9478 20.909C20.9917 20.9722 21.0316 21.0313 21.0755 21.0945C21.3111 21.4488 21.5188 21.8284 21.6905 22.2248C21.7104 22.2712 21.7304 22.3134 21.7464 22.3598C21.8262 22.5495 21.6825 22.1868 21.7544 22.3808C21.7863 22.4736 21.8222 22.5706 21.8542 22.6634C21.934 22.8954 22.0019 23.1358 22.0578 23.3762C22.1137 23.6039 22.1577 23.8359 22.1976 24.072C22.2096 24.1395 22.2176 24.2028 22.2255 24.2703C22.2495 24.4305 22.2295 24.2702 22.2215 24.2449C22.2495 24.401 22.2575 24.5655 22.2655 24.7215C22.3453 25.818 22.2974 26.9357 22.2974 28.0364C22.2974 28.1798 22.3014 28.3232 22.2974 28.4624C22.2974 28.4835 22.2974 28.5003 22.2974 28.5214C22.2894 28.6184 22.2934 28.5973 22.3054 28.4708C22.3214 28.475 22.2176 28.7323 22.2814 28.5847C22.3413 28.4539 22.2575 28.6184 22.2495 28.6311C22.2016 28.707 22.2136 28.6943 22.2854 28.5931C22.2615 28.6226 22.2415 28.6479 22.2136 28.6733C22.2016 28.6859 22.1896 28.6986 22.1776 28.7112C22.1137 28.7703 22.1257 28.7576 22.2176 28.6817C22.2216 28.6901 22.0818 28.766 22.0818 28.766C22.1137 28.7534 22.1457 28.7365 22.1736 28.7239C22.1417 28.7365 22.1057 28.7492 22.0738 28.7576C21.986 28.7787 22.0059 28.7787 22.1257 28.7576C22.0898 28.7618 22.0538 28.7618 22.0139 28.7618C21.5946 28.7745 21.1953 29.1414 21.2153 29.6053C21.2353 30.0608 21.5667 30.4488 22.0139 30.4488C22.6688 30.4488 23.3236 30.4488 23.9825 30.4488C25.448 30.4488 26.9174 30.4488 28.3829 30.4488C29.8843 30.4488 31.3897 30.4488 32.8911 30.4488C33.6737 30.4488 34.4604 30.4572 35.243 30.4488C35.7062 30.4446 36.1614 30.2632 36.4929 29.9132C36.8642 29.521 37 29.0064 37 28.4708C37 27.7581 37 27.0453 37 26.3368C37 26.2735 37 26.2103 37 26.1512C37 25.7084 36.6326 25.2867 36.2014 25.3077C35.7621 25.3246 35.3988 25.6747 35.3988 26.147Z" fill="black"/>
<path d="M31.3457 10.2684C31.3457 10.4073 31.3416 10.542 31.3292 10.6809C31.3251 10.7482 31.3168 10.8156 31.3085 10.8829C31.2879 11.0891 31.3333 10.7356 31.3003 10.946C31.2589 11.207 31.1969 11.4637 31.1183 11.7163C31.0769 11.8425 31.0315 11.9604 30.986 12.0824C30.9529 12.1708 31.0149 12.0067 31.0149 12.0109C31.019 12.0193 30.9694 12.1119 30.9694 12.1119C30.9405 12.1792 30.9074 12.2466 30.8743 12.3097C30.7585 12.537 30.6262 12.7601 30.4814 12.9705C30.4566 13.0042 30.3615 13.1683 30.4194 13.0631C30.4773 12.9579 30.378 13.1136 30.3491 13.1515C30.2622 13.2567 30.1713 13.3577 30.0803 13.4587C29.9976 13.5429 29.9149 13.6271 29.828 13.7071C29.7825 13.7491 29.7329 13.7912 29.6874 13.8333C29.6667 13.8502 29.646 13.867 29.6254 13.8838C29.6047 13.9007 29.4723 13.9806 29.584 13.9217C29.6874 13.8628 29.5261 13.9638 29.493 13.9848C29.4434 14.0227 29.3896 14.0564 29.3359 14.0943C29.2242 14.17 29.1043 14.2416 28.9885 14.3089C28.8851 14.3679 28.7817 14.4226 28.6742 14.4731C28.6411 14.4899 28.608 14.5025 28.5749 14.5194C28.4922 14.5615 28.6494 14.4857 28.6452 14.4899C28.6204 14.5278 28.484 14.553 28.4426 14.5699C28.1986 14.6583 27.9505 14.7298 27.6982 14.7845C27.632 14.7972 27.57 14.8098 27.5038 14.8224C27.2929 14.8603 27.6238 14.814 27.4707 14.8308C27.3301 14.8477 27.1854 14.8603 27.0448 14.8645C26.7677 14.8771 26.4906 14.8603 26.2135 14.8308C26.0523 14.814 26.3666 14.8561 26.2094 14.8308C26.1432 14.8182 26.0812 14.8098 26.015 14.7972C25.8786 14.7677 25.7421 14.7382 25.6098 14.6961C25.4857 14.6625 25.3616 14.6204 25.2417 14.5741C25.1921 14.553 25.1383 14.5362 25.0887 14.5152C24.9398 14.4604 25.13 14.5362 25.1342 14.5362C25.1176 14.5404 25.0515 14.4983 25.0349 14.4899C24.795 14.3763 24.5676 14.25 24.3484 14.1027C24.2946 14.069 24.245 14.0311 24.1913 13.9933C24.1623 13.9722 23.9886 13.867 24.1003 13.9301C24.2078 13.9891 24.0424 13.8838 24.0134 13.8586C23.9597 13.8123 23.9059 13.7618 23.8521 13.7155C23.666 13.5429 23.4924 13.3577 23.3311 13.1641C23.3063 13.1347 23.2029 12.9663 23.2608 13.0757C23.3228 13.1894 23.2153 13.0084 23.1987 12.9831C23.1243 12.8779 23.0581 12.7685 22.9919 12.6591C22.9258 12.5496 22.8637 12.436 22.8058 12.3223C22.7769 12.2634 22.748 12.2045 22.7231 12.1498C22.7107 12.1245 22.7025 12.0993 22.6901 12.074C22.6115 11.9057 22.7314 12.2003 22.6983 12.0951C22.6156 11.8467 22.5246 11.6026 22.4626 11.3459C22.4337 11.2154 22.4047 11.0849 22.384 10.9545C22.3509 10.7566 22.3923 11.0765 22.3758 10.9208C22.3675 10.845 22.3592 10.7651 22.3551 10.6893C22.3344 10.4157 22.3344 10.1422 22.3551 9.86858C22.3592 9.80123 22.3675 9.73389 22.3758 9.66655C22.4006 9.44769 22.3509 9.78861 22.3799 9.63288C22.4047 9.49399 22.4295 9.35089 22.4626 9.2162C22.5246 8.95946 22.6115 8.71535 22.6983 8.46702C22.7355 8.3618 22.628 8.61433 22.6776 8.51332C22.6901 8.48807 22.6983 8.46282 22.7107 8.43756C22.7355 8.37864 22.7645 8.31971 22.7934 8.26079C22.8555 8.13873 22.9216 8.01667 22.9919 7.89883C23.0581 7.7894 23.1243 7.67997 23.1987 7.57475C23.2153 7.5537 23.269 7.44427 23.2938 7.44006C23.2649 7.44427 23.1863 7.57474 23.2649 7.48215C23.2897 7.45269 23.3104 7.42323 23.3311 7.39797C23.4965 7.19595 23.6785 7.00234 23.8728 6.82557C23.9349 6.76664 24.0589 6.61092 24.1416 6.59829C24.0713 6.61092 24.0217 6.69088 24.1044 6.63196C24.1251 6.61512 24.1499 6.59829 24.1706 6.58566C24.2285 6.54357 24.2905 6.50149 24.3484 6.46361C24.5676 6.3163 24.7992 6.18582 25.0349 6.07639C25.0597 6.06376 25.0845 6.05535 25.1093 6.04272C25.2086 5.99221 24.9563 6.10164 25.0639 6.06376C25.1259 6.04272 25.1838 6.01747 25.2417 5.99221C25.3616 5.94591 25.4857 5.90804 25.6098 5.87016C25.7338 5.83228 25.862 5.80281 25.9902 5.77756C26.0564 5.76493 26.1184 5.75231 26.1846 5.73968C26.3831 5.70601 26.0398 5.75231 26.2466 5.73126C26.5154 5.7018 26.7842 5.68917 27.0531 5.7018C27.1854 5.70601 27.3177 5.71864 27.4542 5.73126C27.6486 5.75231 27.3384 5.71022 27.4873 5.73547C27.5617 5.7481 27.6362 5.76072 27.7065 5.77756C27.9587 5.83228 28.211 5.90383 28.4509 5.99221C28.5129 6.01326 28.5708 6.04272 28.6287 6.06376C28.7197 6.09323 28.5501 6.0343 28.5584 6.0343C28.5667 6.03009 28.6411 6.07218 28.6576 6.0806C28.7817 6.13952 28.9016 6.20266 29.0216 6.27C29.125 6.32892 29.2242 6.38785 29.3235 6.45519C29.3772 6.48886 29.4269 6.52674 29.4806 6.56462C29.5096 6.58566 29.6998 6.70351 29.5923 6.64459C29.4848 6.58145 29.6502 6.69088 29.6791 6.71614C29.7288 6.75823 29.7742 6.80031 29.8239 6.8424C29.9231 6.935 30.0224 7.02759 30.1134 7.12861C30.1961 7.21278 30.2705 7.30117 30.3491 7.39376C30.3739 7.42323 30.4607 7.50319 30.469 7.54107C30.469 7.53266 30.3491 7.37693 30.4359 7.50319C30.4566 7.53266 30.4773 7.56212 30.498 7.59158C30.651 7.81044 30.7833 8.03772 30.9032 8.27762C30.9322 8.33655 30.9611 8.39547 30.986 8.4544C30.9984 8.47965 31.0066 8.5049 31.019 8.53016C31.0645 8.61433 30.986 8.4544 30.9901 8.45861C31.0563 8.5007 31.1059 8.77848 31.1307 8.85424C31.2134 9.11519 31.2713 9.38035 31.3209 9.65392C31.3499 9.81386 31.3044 9.49399 31.3209 9.65813C31.3292 9.72547 31.3333 9.79282 31.3416 9.86016C31.3416 9.97801 31.3457 10.1211 31.3457 10.2684C31.3499 10.7103 31.7262 11.1312 32.1729 11.1102C32.6195 11.0891 33.0041 10.7398 33 10.2684C32.9917 8.99734 32.6154 7.70943 31.8834 6.67405C31.1307 5.60921 30.1175 4.81794 28.9058 4.36338C26.5444 3.47531 23.7157 4.25816 22.1235 6.24054C21.2922 7.27592 20.8042 8.49649 20.6967 9.82649C20.5975 11.0934 20.9118 12.4065 21.5569 13.4924C22.1855 14.5488 23.1326 15.4411 24.245 15.9504C25.465 16.506 26.7884 16.6701 28.1076 16.4007C30.5352 15.9125 32.5409 13.7997 32.9131 11.3038C32.9627 10.9587 33 10.6178 33 10.2684C33.0041 9.82649 32.6195 9.4056 32.1729 9.42664C31.7262 9.44769 31.3499 9.79702 31.3457 10.2684Z" fill="black"/>
<path d="M22.3015 25.5733C22.3015 26.3873 22.3015 27.2013 22.3015 28.0152C22.3015 28.1544 22.3015 28.2936 22.3015 28.4286C22.3015 28.437 22.3015 28.4454 22.3015 28.4539C22.3015 28.4749 22.3015 28.5002 22.3015 28.5171C22.3015 28.6268 22.2616 28.5298 22.3095 28.4665C22.3015 28.4749 22.2855 28.5551 22.2815 28.5762C22.2496 28.7406 22.3534 28.4876 22.2935 28.5551C22.2815 28.5677 22.2376 28.6774 22.2256 28.6732C22.2935 28.5846 22.3095 28.5635 22.2695 28.6099C22.2536 28.631 22.2336 28.6521 22.2176 28.6689C22.2216 28.6647 22.1458 28.7449 22.1418 28.7449C22.1697 28.7238 22.1937 28.7027 22.2216 28.6774C22.1937 28.6985 22.1617 28.7153 22.1338 28.7364C22.0579 28.7913 22.0779 28.7111 22.1817 28.7196C22.1657 28.7196 22.1018 28.7449 22.0819 28.7533C21.9221 28.8166 22.2136 28.7575 22.1058 28.7575C22.1617 28.7575 21.8782 28.7659 22.022 28.7617H22.018C21.998 28.7617 21.974 28.7617 21.9541 28.7617C21.0197 28.7659 20.0813 28.7617 19.1469 28.7617C17.3381 28.7617 15.5292 28.7617 13.7203 28.7617C11.7078 28.7617 9.69928 28.7617 7.68676 28.7617C6.16539 28.7617 4.64003 28.7617 3.11866 28.7617C2.75529 28.7617 2.39192 28.7617 2.02455 28.7617C1.94868 28.7617 1.87681 28.7575 1.80094 28.7575C1.68913 28.7575 1.99261 28.8123 1.8249 28.7533C1.83288 28.7575 1.72108 28.7238 1.72507 28.7196C1.72507 28.7069 1.88879 28.8208 1.74903 28.7238C1.61726 28.631 1.74104 28.7575 1.76101 28.7449C1.75701 28.7491 1.69313 28.6816 1.68514 28.6689C1.67316 28.6563 1.66118 28.6436 1.6492 28.631C1.60528 28.5762 1.60528 28.5762 1.64521 28.631C1.65719 28.6436 1.66517 28.6605 1.67715 28.6732C1.65719 28.6436 1.64121 28.6099 1.62125 28.5804C1.53739 28.4496 1.65719 28.7449 1.62125 28.5762C1.62524 28.5846 1.5933 28.4665 1.5933 28.4665C1.59729 28.4665 1.60528 28.6732 1.60128 28.4876C1.60128 28.4749 1.60128 28.4581 1.60128 28.4454C1.60128 28.4033 1.60128 28.3569 1.60128 28.3147C1.60128 27.4375 1.60128 26.5602 1.60128 25.683C1.60128 25.489 1.60128 25.2992 1.60927 25.1052C1.61726 24.9365 1.62524 24.7636 1.64121 24.5949C1.6492 24.5106 1.65719 24.4304 1.66517 24.3461C1.66917 24.3039 1.68514 24.2491 1.68115 24.2111C1.67715 24.2491 1.67316 24.287 1.66517 24.3292C1.66917 24.2955 1.67316 24.2575 1.68115 24.2238C1.77698 23.5701 1.95268 22.9543 2.16431 22.3344C2.20025 22.2247 2.08046 22.5368 2.14434 22.3808C2.15632 22.3512 2.1683 22.3217 2.18028 22.2922C2.21223 22.2205 2.24417 22.1488 2.27612 22.0771C2.34001 21.9337 2.41188 21.7945 2.48376 21.6596C2.62352 21.4023 2.77925 21.1619 2.94296 20.9215C3.0348 20.7866 2.84314 21.0523 2.91102 20.9637C2.93498 20.9342 2.95494 20.9047 2.9789 20.8751C3.01484 20.8287 3.05078 20.7823 3.09071 20.736C3.18654 20.6179 3.28238 20.5082 3.3822 20.3986C3.58585 20.1793 3.80148 19.9726 4.02908 19.7786C4.05304 19.7575 4.07301 19.7406 4.09697 19.7196C4.19679 19.6352 4.04905 19.7617 4.04106 19.7659C4.10096 19.7238 4.16086 19.6732 4.21676 19.6268C4.33655 19.534 4.46034 19.4454 4.58413 19.3611C4.8277 19.1966 5.07528 19.049 5.33083 18.9098C5.46261 18.8381 5.59438 18.7706 5.72615 18.7074C5.79004 18.6778 5.85393 18.6483 5.91782 18.6188C6.06956 18.5471 5.77407 18.6778 5.87789 18.6357C5.92181 18.6188 5.96574 18.5977 6.00966 18.5808C6.30116 18.4585 6.59664 18.3489 6.89213 18.2519C7.51106 18.0494 8.14197 17.8976 8.77687 17.788C8.85274 17.7753 8.9326 17.7627 9.00847 17.75C9.08434 17.7374 9.20413 17.7458 9.26802 17.7121C9.25605 17.7205 9.06837 17.7374 9.21212 17.7205C9.24806 17.7163 9.284 17.7121 9.31594 17.7078C9.41976 17.6952 9.52758 17.6825 9.63539 17.6699C9.9748 17.6319 10.3182 17.6024 10.6616 17.5813C11.4602 17.5349 12.2628 17.5307 13.0615 17.5729C13.5167 17.594 13.9719 17.6319 14.4231 17.691C14.467 17.6952 14.5149 17.7036 14.5589 17.7078C14.5589 17.7078 14.7825 17.7374 14.6547 17.7205C14.5309 17.7036 14.7505 17.7331 14.7505 17.7374C14.7945 17.7458 14.8384 17.75 14.8863 17.7584C15.1059 17.7964 15.3255 17.8344 15.5452 17.8808C16.3558 18.0494 17.1584 18.2856 17.9251 18.6104C17.961 18.6272 18.0049 18.6399 18.0369 18.661C17.8931 18.5724 17.973 18.6315 18.0129 18.6525C18.1047 18.6947 18.1966 18.7369 18.2884 18.7833C18.4681 18.8718 18.6438 18.9688 18.8155 19.0701C19.1669 19.2725 19.5023 19.5045 19.8218 19.7575C19.682 19.6479 19.8697 19.7997 19.8817 19.8123C19.9176 19.8419 19.9535 19.8756 19.9895 19.9093C20.0693 19.981 20.1492 20.0569 20.2251 20.1329C20.3648 20.272 20.5046 20.4154 20.6324 20.563C20.7282 20.6727 20.9079 20.833 20.9638 20.9721C20.9159 20.8456 20.8959 20.8751 20.9358 20.9384C20.9638 20.9763 20.9878 21.0143 21.0157 21.0523C21.0756 21.1366 21.1315 21.2252 21.1834 21.3095C21.3751 21.6174 21.5428 21.9421 21.6865 22.2753C21.7065 22.3217 21.7225 22.3639 21.7425 22.4103C21.7904 22.5284 21.6706 22.2163 21.7385 22.4018C21.7704 22.4862 21.8023 22.5705 21.8303 22.6549C21.8942 22.8489 21.9541 23.0429 22.006 23.2453C22.0579 23.4393 22.1018 23.6375 22.1378 23.8358C22.1537 23.9201 22.1697 24.0087 22.1817 24.093C22.1937 24.1605 22.2017 24.2238 22.2096 24.2913C22.2176 24.3503 22.2576 24.4178 22.2057 24.2659C22.2655 24.4431 22.2496 24.6961 22.2616 24.8817C22.2935 25.0968 22.2975 25.333 22.3015 25.5733C22.3015 26.0162 22.6688 26.4379 23.1001 26.4168C23.5314 26.3958 23.8987 26.0457 23.8987 25.5733C23.8947 23.7767 23.5194 21.9464 22.577 20.4323C21.6466 18.9309 20.269 17.8259 18.7157 17.1216C17.0066 16.3498 15.1658 15.9998 13.317 15.8817C11.7238 15.7805 10.1186 15.8564 8.54128 16.1179C6.03761 16.5312 3.41814 17.5897 1.80094 19.7449C0.966382 20.8583 0.407349 22.1572 0.171756 23.5574C-0.007933 24.6329 5.32197e-05 25.7041 5.32197e-05 26.788C5.32197e-05 27.2772 5.32197e-05 27.7622 5.32197e-05 28.2514C5.32197e-05 28.3822 5.31886e-05 28.5087 0.0120325 28.6352C0.075922 29.2425 0.355439 29.7528 0.830617 30.1071C1.27784 30.4403 1.77698 30.4487 2.2881 30.4487C3.5579 30.4487 4.82371 30.4487 6.09351 30.4487C8.09006 30.4487 10.0906 30.4487 12.0871 30.4487C14.0677 30.4487 16.0523 30.4487 18.0329 30.4487C19.2508 30.4487 20.4726 30.4487 21.6905 30.4487C21.7904 30.4487 21.8862 30.4487 21.986 30.4487C22.6289 30.4445 23.2039 30.1282 23.5753 29.5715C23.8827 29.1118 23.8987 28.5846 23.8987 28.049C23.8987 27.5345 23.8987 27.0199 23.8987 26.5012C23.8987 26.1933 23.8987 25.8812 23.8987 25.5733C23.8987 25.1305 23.5314 24.7088 23.1001 24.7299C22.6649 24.7509 22.3015 25.101 22.3015 25.5733Z" fill="black"/>
<path d="M17.1505 7.18956C17.1505 7.3456 17.1465 7.50165 17.1345 7.66191C17.1305 7.73782 17.1225 7.81795 17.1145 7.89387C17.1106 7.91496 17.1106 7.98665 17.1026 8.00774C17.1185 7.88965 17.1225 7.86013 17.1106 7.92761C17.1066 7.95713 17.1026 7.98243 17.0986 8.01196C17.0507 8.31983 16.9788 8.62348 16.8869 8.92292C16.843 9.06631 16.7911 9.20549 16.7432 9.34467C16.7073 9.4501 16.8071 9.19705 16.7632 9.29827C16.7472 9.33201 16.7352 9.36575 16.7192 9.39949C16.6873 9.47541 16.6514 9.55132 16.6154 9.62302C16.4796 9.90137 16.3279 10.1713 16.1562 10.4285C16.1283 10.4707 16.0763 10.5804 16.0324 10.6057C16.0404 10.6015 16.1522 10.4496 16.0604 10.5635C16.0364 10.593 16.0164 10.6225 15.9925 10.6479C15.8967 10.7659 15.8008 10.884 15.697 10.9937C15.6012 11.0991 15.5013 11.2003 15.3975 11.2973C15.3456 11.3479 15.2937 11.3943 15.2418 11.4407C15.2138 11.466 15.1899 11.4871 15.1619 11.5124C15.0581 11.601 15.1539 11.5546 15.1819 11.4998C15.134 11.5926 14.9263 11.698 14.8425 11.757C14.7107 11.8498 14.5749 11.9342 14.4392 12.0143C14.3154 12.086 14.1916 12.1535 14.0638 12.2167C14.0319 12.2336 13.9999 12.2463 13.968 12.2631C13.8722 12.3095 13.984 12.2884 14.0119 12.242C13.988 12.28 13.8322 12.318 13.7883 12.3348C13.5128 12.4403 13.2253 12.5246 12.9378 12.5879C12.8659 12.6047 12.794 12.6174 12.7261 12.63C12.7261 12.63 12.6263 12.6554 12.6183 12.6469C12.6423 12.668 12.786 12.6258 12.6662 12.6385C12.5025 12.6596 12.3348 12.6722 12.1711 12.6807C11.8556 12.6933 11.5402 12.6764 11.2287 12.6385C11.1089 12.6258 11.2527 12.6638 11.2766 12.6469C11.2687 12.6511 11.1688 12.63 11.1688 12.63C11.097 12.6174 11.0251 12.6047 10.9572 12.5879C10.8095 12.5541 10.6577 12.5162 10.514 12.474C10.3782 12.4318 10.2424 12.3854 10.1067 12.3348C10.0388 12.3095 9.9749 12.28 9.90701 12.2547C9.80719 12.2167 10.0468 12.3222 9.95094 12.2758C9.91101 12.2547 9.87108 12.2378 9.83115 12.2167C9.55962 12.086 9.30007 11.93 9.05249 11.757C8.96864 11.698 8.757 11.5968 8.71308 11.4998C8.71707 11.5082 8.86082 11.6263 8.75301 11.5293C8.72506 11.504 8.69711 11.4829 8.67315 11.4576C8.61325 11.4028 8.55336 11.3522 8.49745 11.2973C8.28582 11.0949 8.08616 10.8756 7.90248 10.6436C7.87852 10.6141 7.85856 10.5846 7.8346 10.5593C7.74276 10.4412 7.85456 10.5972 7.86255 10.6015C7.81863 10.5762 7.76672 10.4665 7.73877 10.4243C7.64692 10.2894 7.56307 10.1502 7.48321 10.0068C7.41133 9.88028 7.34345 9.74954 7.27956 9.6188C7.24761 9.55132 7.21567 9.48384 7.18772 9.42058C7.17175 9.38684 7.15977 9.3531 7.14379 9.31936C7.0839 9.17597 7.18772 9.44167 7.15178 9.34045C7.05195 9.04944 6.95213 8.75844 6.88424 8.45479C6.8523 8.30718 6.82035 8.15535 6.7964 8.00774C6.7964 8.00774 6.77244 7.9023 6.78042 7.89387C6.76046 7.91917 6.80039 8.071 6.78841 7.94448C6.77643 7.84748 6.76844 7.75047 6.76046 7.65347C6.7365 7.32873 6.74049 7.00399 6.76445 6.68346C6.76844 6.60755 6.77643 6.52742 6.78442 6.4515C6.80837 6.2322 6.76046 6.60755 6.7924 6.38824C6.81636 6.22798 6.84831 6.06772 6.88424 5.91167C6.91619 5.76406 6.95612 5.62067 7.00004 5.47728C7.02001 5.40558 7.04397 5.33388 7.06793 5.26219C7.0839 5.21158 7.11984 5.02601 7.16376 5.00071C7.15977 5.00492 7.0839 5.19049 7.14379 5.0471C7.15977 5.01336 7.17175 4.97962 7.18772 4.94588C7.21567 4.8784 7.24761 4.81092 7.27956 4.74766C7.34744 4.60849 7.41932 4.46931 7.49519 4.33435C7.56706 4.20783 7.64293 4.08552 7.72279 3.96322C7.76272 3.90417 7.80665 3.84513 7.84658 3.78609C7.90648 3.6933 7.74675 3.91261 7.81863 3.82826C7.84658 3.79452 7.87453 3.75656 7.90248 3.72282C8.09016 3.48243 8.2978 3.25891 8.51742 3.05225C8.56933 3.00164 8.62124 2.95525 8.67714 2.90886C8.70509 2.88355 8.73305 2.86247 8.757 2.83716C8.82489 2.77812 8.76499 2.78234 8.71707 2.86668C8.77298 2.76125 8.98461 2.66003 9.08045 2.59677C9.32402 2.43229 9.57559 2.28046 9.83913 2.15394C9.87108 2.13707 9.90302 2.12442 9.93497 2.10755C10.0707 2.04007 9.89504 2.1202 9.89104 2.12863C9.91101 2.09489 10.0548 2.06115 10.0867 2.0485C10.2384 1.98946 10.3902 1.93885 10.5419 1.89246C10.6817 1.85028 10.8214 1.81654 10.9612 1.78702C11.0331 1.77015 11.1049 1.7575 11.1728 1.74485C11.2088 1.74063 11.2487 1.73641 11.2806 1.72798C11.2048 1.75328 11.1369 1.74485 11.2567 1.73219C11.5681 1.69424 11.8876 1.68159 12.1991 1.69424C12.3468 1.70267 12.4945 1.71111 12.6383 1.73219C12.8459 1.7575 12.4905 1.70689 12.6982 1.74063C12.778 1.75328 12.8579 1.77015 12.9378 1.78702C13.2333 1.85028 13.5288 1.93885 13.8123 2.0485C13.8482 2.06115 13.992 2.09489 14.0079 2.12863C14.0039 2.12442 13.8282 2.04428 13.964 2.10755C13.9959 2.12442 14.0279 2.13707 14.0598 2.15394C14.1956 2.22142 14.3274 2.29311 14.4591 2.36903C14.5829 2.44072 14.7027 2.51664 14.8185 2.59677C14.9144 2.66425 15.122 2.76547 15.1819 2.86668C15.134 2.78234 15.0781 2.77812 15.142 2.83716C15.1699 2.86247 15.1979 2.88355 15.2218 2.90886C15.2737 2.95525 15.3296 3.00586 15.3815 3.05225C15.4973 3.16191 15.6092 3.27578 15.717 3.39808C15.8128 3.50352 15.9046 3.61317 15.9965 3.72704C16.0204 3.75656 16.0404 3.78609 16.0644 3.81139C16.1203 3.88309 16.1163 3.81983 16.0364 3.76922C16.0883 3.80296 16.1402 3.91683 16.1762 3.96744C16.3399 4.21626 16.4916 4.47775 16.6194 4.74766C16.6514 4.81514 16.6833 4.88262 16.7112 4.94588C16.7272 4.97962 16.7392 5.01336 16.7552 5.0471C16.8191 5.19049 16.7432 5.00492 16.7352 5.00071C16.7671 5.02179 16.7991 5.17362 16.8111 5.20736C16.843 5.29593 16.871 5.38449 16.8989 5.47306C16.9908 5.7725 17.0586 6.07615 17.1066 6.38403C17.1385 6.59911 17.0906 6.22798 17.1145 6.44729C17.1225 6.5232 17.1305 6.60333 17.1345 6.67925C17.1465 6.85638 17.1505 7.02508 17.1505 7.18956C17.1505 7.63239 17.5179 8.05413 17.9491 8.03304C18.3804 8.01196 18.7517 7.66191 18.7477 7.18956C18.7397 5.73454 18.3245 4.26687 17.5218 3.07756C16.6953 1.85872 15.5692 0.947752 14.2395 0.42479C11.624 -0.595829 8.50544 0.298267 6.7365 2.57568C5.82607 3.74813 5.28701 5.1441 5.16721 6.65816C5.05141 8.12583 5.40281 9.64832 6.12955 10.9093C6.82035 12.1113 7.85856 13.1151 9.07645 13.6971C10.4221 14.3381 11.8876 14.5237 13.3371 14.22C16.0244 13.6549 18.2406 11.2383 18.6519 8.37466C18.7078 7.98243 18.7477 7.59021 18.7477 7.18956C18.7477 6.74673 18.3804 6.32498 17.9491 6.34607C17.5179 6.36716 17.1545 6.7172 17.1505 7.18956Z" fill="black"/>
</svg>
