<svg width="50" height="30" viewBox="0 0 50 30" fill="none" xmlns="http://www.w3.org/2000/svg">
<path d="M9.25803 12.0839C12.5949 12.0839 15.3 9.37886 15.3 6.04197C15.3 2.70508 12.5949 0 9.25803 0C5.92115 0 3.21606 2.70508 3.21606 6.04197C3.21606 9.37886 5.92115 12.0839 9.25803 12.0839Z" fill="#1998FC"/>
<path d="M16.9525 16.7833C15.8164 14.9242 13.8025 13.6848 11.4786 13.6848H6.98587C3.7325 13.6848 0.995542 16.1119 0.634057 19.3137L0.0143679 24.581C-0.0889136 25.2523 0.375853 25.872 1.04718 26.027C3.62922 26.595 6.36618 26.8532 9.25806 26.8532C10.704 26.8532 12.0983 26.8016 13.4926 26.6466L14.0607 22.1539C14.3189 20.0366 15.4033 18.1259 16.9525 16.7833Z" fill="#1998FC"/>
<path d="M39.8293 12.0839C43.1662 12.0839 45.8713 9.37886 45.8713 6.04197C45.8713 2.70508 43.1662 0 39.8293 0C36.4924 0 33.7874 2.70508 33.7874 6.04197C33.7874 9.37886 36.4924 12.0839 39.8293 12.0839Z" fill="#1998FC"/>
<path d="M48.4532 19.3653C48.0918 16.1636 45.3548 13.7365 42.1014 13.7365H37.6087C35.2849 13.7365 33.2709 14.9758 32.1348 16.8349C33.7356 18.1259 34.8201 20.0366 35.0783 22.2055L35.6463 26.6983C37.0406 26.8532 38.4349 26.9048 39.8809 26.9048C42.7211 26.9048 45.5097 26.595 48.0918 26.0786C48.7631 25.9237 49.1762 25.304 49.1246 24.6327L48.4532 19.3653Z" fill="#1998FC"/>
<path d="M26.7643 16.7833H22.2715C19.0181 16.7833 16.2812 19.2104 15.9197 22.4121L15.3 27.6278C15.1967 28.2992 15.6615 28.9705 16.3328 29.0738C18.9149 29.6418 21.7035 29.9 24.5437 29.9C27.384 29.9 30.1726 29.5902 32.7546 29.0738C33.4259 28.9188 33.839 28.2992 33.7874 27.6278L33.1677 22.4121C32.7546 19.2104 30.0176 16.7833 26.7643 16.7833Z" fill="#1998FC"/>
<path d="M24.5437 15.1308C27.8806 15.1308 30.5856 12.4257 30.5856 9.08878C30.5856 5.7519 27.8806 3.04681 24.5437 3.04681C21.2068 3.04681 18.5017 5.7519 18.5017 9.08878C18.5017 12.4257 21.2068 15.1308 24.5437 15.1308Z" fill="#1998FC"/>
</svg>
