<svg width="37" height="30" viewBox="0 0 37 30" fill="none" xmlns="http://www.w3.org/2000/svg">
<path d="M7.60564 20.0271H1.83322C0.891614 20.0271 0.11377 20.8049 0.11377 21.7465V27.5599C0.11377 28.5015 0.891614 29.2794 1.83322 29.2794H7.64658C8.58818 29.2794 9.36603 28.5015 9.36603 27.5599V21.7465C9.32509 20.8049 8.54724 20.0271 7.60564 20.0271Z" fill="#81D742"/>
<path d="M35.2396 20.0271H29.4671C28.5255 20.0271 27.7477 20.8049 27.7477 21.7465V27.5599C27.7477 28.5015 28.5255 29.2794 29.4671 29.2794H35.2805C36.2221 29.2794 36.9999 28.5015 36.9999 27.5599V21.7465C36.959 20.8049 36.1812 20.0271 35.2396 20.0271Z" fill="#81D742"/>
<path d="M21.4431 20.0271H15.6297C14.6881 20.0271 13.9103 20.8049 13.9103 21.7465V27.5599C13.9103 28.5015 14.6881 29.2794 15.6297 29.2794H21.4431C22.3847 29.2794 23.1625 28.5015 23.1625 27.5599V21.7465C23.1216 20.8049 22.3847 20.0271 21.4431 20.0271ZM21.4431 27.519H15.6297V21.7056H21.4431V27.519Z" fill="#81D742"/>
<path d="M33.8885 15.8103L35.9355 5.82118L32.251 7.04936C30.859 5.16615 29.0577 3.61046 26.9698 2.46417C24.4316 1.07223 21.5249 0.335327 18.5364 0.335327C9.36597 0.335327 1.91504 7.29499 1.91504 15.8103C1.91504 16.5063 2.48819 17.0795 3.18415 17.0795C3.88012 17.0795 4.45327 16.5063 4.45327 15.8103C4.45327 8.68692 10.7579 2.87356 18.5364 2.87356C22.9168 2.87356 27.0108 4.75676 29.6718 7.86814L26.2329 9.05538L33.8885 15.8103Z" fill="#81D742"/>
</svg>
