<svg width="48" height="41" viewBox="0 0 48 41" fill="none" xmlns="http://www.w3.org/2000/svg">
<path d="M47.9664 26.5119L47.6533 25.2315L43.9774 10.1931C43.8466 9.65742 43.3667 9.28047 42.8151 9.28047H25.2493V7.87755L30.0057 5.67286C30.4046 5.48817 30.6703 5.09925 30.6966 4.66046C30.7237 4.22168 30.5079 3.80363 30.135 3.57108L24.6845 0.180468C24.3159 -0.0488971 23.8512 -0.0604654 23.4714 0.15055C23.0917 0.361566 22.8559 0.762057 22.8559 1.19685V9.28087H5.18607C4.63479 9.28087 4.15452 9.65782 4.02369 10.1935L0.0343334 26.5119C-0.0530247 26.8694 0.0283499 27.2463 0.255321 27.5351C0.482293 27.8239 0.829332 27.9926 1.19671 27.9926H1.8884V39.6268C1.8884 40.2878 2.42411 40.8235 3.08508 40.8235H14.8094H20.2464H27.7548H33.1921H44.916C45.5774 40.8235 46.1127 40.2878 46.1127 39.6268V27.993H46.8036C47.1714 27.993 47.518 27.8243 47.7446 27.5355C47.8016 27.4629 47.8491 27.3855 47.8874 27.3038C47.9636 27.141 48.0023 26.9623 47.9999 26.782C47.9995 26.6918 47.9879 26.6013 47.9664 26.5119ZM25.2493 3.35089L26.9897 4.43349L25.2493 5.24006V3.35089ZM24.0008 26.4246C21.9273 26.4246 20.2464 28.1059 20.2464 30.179V38.4305H16.0061V20.4244L24.0889 12.6073L31.9958 20.4172V38.4305H27.7552V30.179C27.7552 28.1059 26.0746 26.4246 24.0008 26.4246ZM2.72129 25.5997L3.04679 24.2682H13.6127V25.5997H2.72129ZM34.3888 24.2682H44.9539L45.2786 25.5997H34.3888V24.2682ZM4.28217 27.993H13.6127V38.4305H4.28217V27.993ZM43.7193 38.4305H34.3888V27.993H43.7193V38.4305Z" fill="#81D742"/>
<path d="M24.0006 24.7669C25.9223 24.7669 27.4801 23.209 27.4801 21.2873C27.4801 19.3656 25.9223 17.8077 24.0006 17.8077C22.0788 17.8077 20.521 19.3656 20.521 21.2873C20.521 23.209 22.0788 24.7669 24.0006 24.7669Z" fill="#81D742"/>
<path d="M8.37726 31.0478H5.98389V34.7707H8.37726V31.0478Z" fill="#81D742"/>
<path d="M11.9007 31.0478H9.50732V34.7707H11.9007V31.0478Z" fill="#81D742"/>
<path d="M38.494 31.0478H36.1006V34.7707H38.494V31.0478Z" fill="#81D742"/>
<path d="M42.0169 31.0478H39.6235V34.7707H42.0169V31.0478Z" fill="#81D742"/>
</svg>
