<svg width="37" height="36" viewBox="0 0 37 36" fill="none" xmlns="http://www.w3.org/2000/svg">
<path d="M28.1488 4.28491C27.9597 4.696 28.1394 5.18381 28.5505 5.37376L34.9695 8.33632L32.2925 12.4111L29.2762 10.9649C28.8668 10.7684 28.3773 10.9407 28.1808 11.3498C27.9851 11.7584 28.1574 12.2487 28.5661 12.4452L31.8667 14.0276L19.3149 20.7851C19.1586 20.8701 19.0425 21.0137 18.9945 21.1851C18.9465 21.3558 18.9686 21.5392 19.0585 21.6931L21.8311 26.4707C21.9521 26.6807 22.1724 26.7985 22.3993 26.7985C22.5035 26.7985 22.6085 26.7734 22.7062 26.7213L35.3453 20.0134C35.5025 19.9301 35.6186 19.7865 35.6682 19.6159C35.7179 19.4452 35.6961 19.2626 35.6083 19.108L32.8296 14.2397C33.0044 14.1843 33.1631 14.0756 33.2694 13.9119L36.865 8.44135C36.9963 8.24114 37.034 7.99415 36.9684 7.76522C36.9027 7.53506 36.7399 7.34552 36.5228 7.245L29.2381 3.88366C28.8266 3.69371 28.3384 3.87299 28.1488 4.28491Z" fill="white"/>
<path d="M1.39301 19.1207C1.3048 19.2753 1.28306 19.4579 1.33311 19.6286C1.38317 19.7992 1.49886 19.9428 1.656 20.0261L14.2935 26.7349C14.3912 26.787 14.4962 26.812 14.6004 26.812C14.8273 26.812 15.0476 26.6942 15.1686 26.485L17.9429 21.707C18.0319 21.5532 18.0549 21.3698 18.0069 21.1991C17.9581 21.0276 17.8428 20.884 17.6865 20.7991L5.12319 14.0345L8.19159 12.5641C8.60022 12.3676 8.77253 11.8782 8.57684 11.4695C8.38032 11.0601 7.89004 10.8878 7.48224 11.0843L4.70799 12.4136L2.03303 8.3437L8.57232 5.3758C8.98505 5.18913 9.16762 4.70255 8.98095 4.29023C8.79346 3.8775 8.30688 3.69411 7.89456 3.8816L0.481803 7.24581C0.263129 7.34428 0.0986111 7.53423 0.0321474 7.76521C-0.0343163 7.99538 0.00342849 8.24359 0.134715 8.4438L3.73032 13.9143C3.83863 14.0793 3.99946 14.19 4.17751 14.2446C4.17587 14.2471 4.17423 14.2487 4.17341 14.2503L1.39301 19.1207Z" fill="white"/>
<path d="M31.9197 28.5761V23.6898C31.9197 23.632 31.8894 23.5791 31.8405 23.5495C31.7909 23.5192 31.7294 23.5175 31.6785 23.5446L22.3945 28.4728C22.0901 28.6332 21.6892 28.5167 21.5177 28.2221L19.4545 24.6667C19.4176 24.6035 19.3433 24.5723 19.2703 24.5904C19.1989 24.6105 19.1484 24.6753 19.1484 24.7492V35.1799C19.1484 35.2377 19.1788 35.291 19.2284 35.321C19.2543 35.3362 19.2838 35.3444 19.3125 35.3444C19.3388 35.3444 19.3655 35.3378 19.3897 35.3251L31.8323 28.7214C31.8861 28.6923 31.9197 28.6369 31.9197 28.5761ZM21.9338 30.6234L25.5355 29.0065C25.6204 28.968 25.7111 28.9487 25.803 28.9487C26.0619 28.9487 26.2974 29.1009 26.4024 29.3364C26.5505 29.6666 26.4024 30.056 26.0721 30.2041L22.4712 31.8201C22.1467 31.9666 21.7467 31.8107 21.6035 31.4907C21.4562 31.1604 21.6043 30.7719 21.9338 30.6234Z" fill="white"/>
<path d="M17.5947 35.3247C17.6189 35.3374 17.6451 35.3439 17.6718 35.3439C17.7005 35.3439 17.7305 35.3357 17.7559 35.3205C17.8056 35.291 17.8359 35.2373 17.8359 35.1794V24.7906C17.8359 24.7167 17.7855 24.6519 17.7141 24.6318C17.6435 24.6141 17.5668 24.6445 17.5299 24.7081L15.4818 28.2364C15.3095 28.5314 14.9066 28.645 14.6059 28.4863L5.30423 23.5487C5.25376 23.5216 5.19304 23.5228 5.14299 23.5528C5.09294 23.5827 5.06299 23.6361 5.06299 23.6939V28.5761C5.06299 28.6368 5.09663 28.6922 5.15038 28.7214L17.5947 35.3247Z" fill="white"/>
<path d="M26.9687 6.29764C26.9921 6.21354 26.9798 6.12369 26.9359 6.04861L24.7458 2.25771C24.7028 2.18222 24.6306 2.12807 24.5465 2.1055C24.4632 2.08212 24.3733 2.09443 24.2974 2.13833L22.3798 3.24646C22.0007 2.96666 21.5937 2.73117 21.1626 2.54449V0.327806C21.1626 0.146877 21.0161 0 20.8347 0H16.1663C15.9854 0 15.8377 0.146466 15.8377 0.327806V2.54408C15.4056 2.7324 14.9978 2.96707 14.6212 3.24605L12.7044 2.13792C12.6289 2.09402 12.5403 2.08171 12.4554 2.10509C12.3713 2.12766 12.2999 2.18222 12.2556 2.25771L10.0639 6.04861C10.0209 6.1241 10.0085 6.21354 10.0311 6.29764C10.0537 6.38175 10.1087 6.45395 10.1841 6.49703L12.1042 7.60517C12.0738 7.86159 12.0595 8.08929 12.0595 8.30796C12.0595 8.55166 12.0771 8.80644 12.1141 9.08214L10.2063 10.2137C10.05 10.306 9.9987 10.507 10.091 10.6633L12.3221 14.4288C12.3668 14.5034 12.439 14.5576 12.5231 14.5793C12.608 14.6011 12.697 14.5876 12.7721 14.5432L14.6807 13.4109C15.0438 13.6739 15.4315 13.8958 15.8377 14.0735V16.2902C15.8377 16.4711 15.9849 16.6188 16.1663 16.6188H20.8343C21.0153 16.6188 21.1621 16.4715 21.1621 16.2902V14.0743C21.5691 13.8962 21.9577 13.6735 22.3207 13.4109L24.2293 14.5432C24.3048 14.5871 24.3934 14.6011 24.4784 14.5793C24.5625 14.5576 24.6347 14.503 24.6794 14.428L26.9088 10.6633C27.0011 10.507 26.9498 10.306 26.7935 10.2137L24.8858 9.08296C24.9219 8.81629 24.9395 8.56151 24.9395 8.30796C24.9395 8.08765 24.926 7.86077 24.8964 7.60599L26.8165 6.49703C26.8916 6.45395 26.9461 6.38175 26.9687 6.29764ZM18.502 10.1911C17.4644 10.1911 16.6196 9.34636 16.6196 8.30878C16.6196 7.27121 17.4644 6.42729 18.502 6.42729C19.5387 6.42729 20.3826 7.27121 20.3826 8.30878C20.3826 9.34636 19.5387 10.1911 18.502 10.1911Z" fill="white"/>
</svg>
