<svg width="34" height="39" viewBox="0 0 34 39" fill="none" xmlns="http://www.w3.org/2000/svg">
<path d="M32.6729 5.41441H27.1461L26.8186 0.788277C26.8186 0.583581 26.6958 0.378885 26.532 0.215129C26.3683 0.0513719 26.1227 -0.0305065 25.918 0.0104327L0.781292 1.77082C0.290022 1.81176 -0.0374917 2.18021 0.00344754 2.67148L2.21416 34.4403C2.2551 34.8906 2.62356 35.2181 3.07389 35.2181H3.11483L6.6356 34.9725V38.0839C6.6356 38.5342 7.00405 38.9436 7.49532 38.9436H32.7139C33.1642 38.9436 33.5736 38.5751 33.5736 38.0839V6.23319C33.4917 5.78286 33.1233 5.41441 32.6729 5.41441ZM3.81079 33.4577L1.72289 3.36745L25.181 1.72988L25.4267 5.37347H7.41344C6.96311 5.37347 6.55372 5.74192 6.55372 6.23319V33.2531L3.81079 33.4577ZM31.8132 37.2242H8.3141V7.09291H31.8541V37.2242H31.8132Z" fill="#81D742"/>
<path d="M26.4093 28.5041L23.6664 31.247L22.6019 30.1826C22.2744 29.8551 21.7422 29.8551 21.4147 30.1826C21.0872 30.5101 21.0872 31.0423 21.4147 31.3699L23.0932 33.0484C23.257 33.2121 23.4617 33.294 23.7073 33.294C23.912 33.294 24.1576 33.2121 24.3214 33.0484L27.6784 29.6914C28.0059 29.3638 28.0059 28.8316 27.6784 28.5041C27.269 28.1766 26.7368 28.1766 26.4093 28.5041Z" fill="#81D742"/>
<path d="M12.2442 13.07H18.7536C19.2039 13.07 19.6133 12.7016 19.6133 12.2103C19.6133 11.76 19.2448 11.3506 18.7536 11.3506H12.2442C11.7939 11.3506 11.3845 11.719 11.3845 12.2103C11.3845 12.7016 11.753 13.07 12.2442 13.07Z" fill="#81D742"/>
<path d="M12.2442 17.0412H27.924C28.3743 17.0412 28.7837 16.6727 28.7837 16.1814C28.7837 15.7311 28.4152 15.3217 27.924 15.3217H12.2442C11.7939 15.3217 11.3845 15.6902 11.3845 16.1814C11.3845 16.6727 11.753 17.0412 12.2442 17.0412Z" fill="#81D742"/>
<path d="M12.2442 21.0122H27.924C28.3743 21.0122 28.7837 20.6438 28.7837 20.1525C28.7837 19.7022 28.4152 19.2928 27.924 19.2928H12.2442C11.7939 19.2928 11.3845 19.6612 11.3845 20.1525C11.3845 20.6438 11.753 21.0122 12.2442 21.0122Z" fill="#81D742"/>
<path d="M12.2442 24.9833H27.924C28.3743 24.9833 28.7837 24.6148 28.7837 24.1236C28.7837 23.6732 28.4152 23.2639 27.924 23.2639H12.2442C11.7939 23.2639 11.3845 23.6323 11.3845 24.1236C11.3845 24.6148 11.753 24.9833 12.2442 24.9833Z" fill="#81D742"/>
</svg>
