<svg id="Layer_1" height="512" viewBox="0 0 128 128" width="512" xmlns="http://www.w3.org/2000/svg" data-name="Layer 1"><path d="m115.421 109.46-34.281-13v-66l34.281 13z" fill="#1fca74"/><path d="m46.86 109.46 34.28-13v-66l-34.28 13z" fill="#fbbe2c"/><path d="m46.86 109.46-34.281-13v-66l34.281 13z" fill="#1fca74"/><path d="m47.79 84.555a1.75 1.75 0 0 1 -.621-3.387l6.545-2.482a1.75 1.75 0 0 1 1.241 3.273l-6.545 2.482a1.751 1.751 0 0 1 -.62.114zm-6.546-1.776a1.751 1.751 0 0 1 -.62-.113l-6.545-2.482a1.75 1.75 0 0 1 1.241-3.273l6.545 2.482a1.75 1.75 0 0 1 -.621 3.387zm65.456-1.179a1.751 1.751 0 0 1 -.62-.113l-6.55-2.487a1.75 1.75 0 0 1 1.241-3.273l6.545 2.482a1.75 1.75 0 0 1 -.616 3.391zm-45.82-2.009a1.75 1.75 0 0 1 -.621-3.387l6.541-2.482a1.75 1.75 0 0 1 1.246 3.278l-6.546 2.478a1.751 1.751 0 0 1 -.62.113zm-32.726-1.777a1.751 1.751 0 0 1 -.62-.113l-6.545-2.482a1.75 1.75 0 0 1 1.241-3.273l6.545 2.482a1.75 1.75 0 0 1 -.621 3.387zm65.452-1.18a1.751 1.751 0 0 1 -.62-.113l-6.546-2.482a1.75 1.75 0 0 1 1.241-3.273l6.545 2.482a1.75 1.75 0 0 1 -.621 3.387zm-19.635-2.008a1.75 1.75 0 0 1 -.621-3.387l6.55-2.481a1.75 1.75 0 0 1 1.241 3.273l-6.551 2.482a1.749 1.749 0 0 1 -.619.113z" fill="#daf2fe"/><path d="m38.5 62.25-16.891-6.521v-9.916l16.891 6.52z" fill="#daf2fe"/><path d="m101.333 38.733c0 16.768-20.193 31.425-20.193 31.425s-20.193-15.613-20.193-31.425a20.193 20.193 0 1 1 40.386 0z" fill="#fc3e81"/><circle cx="81.14" cy="38.733" fill="#daf2fe" r="9.792"/></svg>