<svg width="41" height="60" viewBox="0 0 41 60" fill="none" xmlns="http://www.w3.org/2000/svg">
<path d="M21.8936 53.9761C20.9354 54.9242 19.3925 54.9242 18.4343 53.9761C6.18297 41.8527 0 30.5964 0 20.1639C0 9.0277 9.0277 0 20.1639 0C31.3002 0 40.3279 9.0277 40.3279 20.1639C40.3279 30.5964 34.1449 41.8527 21.8936 53.9761ZM37.377 20.1639C37.377 10.6574 29.6705 2.95082 20.1639 2.95082C10.6574 2.95082 2.95082 10.6574 2.95082 20.1639C2.95082 29.5772 8.65145 40.0482 20.1639 51.5349C31.6764 40.0482 37.377 29.5772 37.377 20.1639ZM20.1639 28.5246C15.0032 28.5246 10.8197 24.341 10.8197 19.1803C10.8197 14.0196 15.0032 9.83607 20.1639 9.83607C25.3246 9.83607 29.5082 14.0196 29.5082 19.1803C29.5082 24.341 25.3246 28.5246 20.1639 28.5246ZM8.36066 57.0492H31.9672C32.7821 57.0492 33.4426 57.7097 33.4426 58.5246C33.4426 59.3394 32.7821 60 31.9672 60H8.36066C7.54581 60 6.88525 59.3394 6.88525 58.5246C6.88525 57.7097 7.54581 57.0492 8.36066 57.0492ZM20.1639 25.5738C23.6949 25.5738 26.5574 22.7113 26.5574 19.1803C26.5574 15.6493 23.6949 12.7869 20.1639 12.7869C16.6329 12.7869 13.7705 15.6493 13.7705 19.1803C13.7705 22.7113 16.6329 25.5738 20.1639 25.5738Z" fill="#48AB5D"/>
</svg>
