<svg width="26" height="36" viewBox="0 0 26 36" fill="none" xmlns="http://www.w3.org/2000/svg">
<path d="M25.6894 18.7709C25.0116 17.4152 23.317 16.8503 21.9613 17.5658L16.7644 20.2019C16.7644 20.2019 11.2286 16.4737 10.6638 16.0595C10.0989 15.6829 9.42103 15.3063 9.00679 15.1557C7.16153 14.5908 2.45423 14.1389 1.13618 17.2269C-0.257176 20.5409 0.00643303 29.014 0.0440914 35.0393C0.0440914 35.5665 0.383017 35.9808 0.910234 35.9808C2.19062 35.9808 10.2872 35.9808 10.8897 35.9808C11.4922 35.9808 11.7182 35.6419 11.7935 35.1523C11.8312 34.851 12.396 27.9972 12.3584 24.9845C12.3584 24.6456 12.3584 24.3067 12.3584 23.9301L14.9945 25.7001C15.4464 26.0013 16.0112 26.1896 16.5385 26.1896C16.9527 26.1896 17.4046 26.0766 17.7812 25.8883L24.4467 22.4991C25.8401 21.8212 26.405 20.1643 25.6894 18.7709Z" fill="white"/>
<path d="M6.93556 13.3858C10.2841 13.3858 12.9986 10.6713 12.9986 7.32283C12.9986 3.97432 10.2841 1.25983 6.93556 1.25983C3.58706 1.25983 0.872559 3.97432 0.872559 7.32283C0.872559 10.6713 3.58706 13.3858 6.93556 13.3858Z" fill="white"/>
<path d="M17.5931 5.92943C18.271 5.92943 18.8735 5.36456 18.8735 4.68671C18.8735 4.12183 19.1371 3.55695 19.5513 3.18037C20.0032 2.80379 20.5681 2.65315 21.1707 2.76613C21.9238 2.91676 22.6017 3.55695 22.7147 4.31012C22.9029 5.40222 22.1874 6.26836 21.3966 6.53197C20.2669 6.90855 19.5513 7.92533 19.5513 9.1304V10.2225C19.5513 10.9003 20.1162 11.4652 20.8317 11.4652C21.5472 11.4652 22.1121 10.9003 22.1121 10.2225V9.1304C22.1121 9.01742 22.1874 8.9421 22.2251 8.90444C24.3716 8.22659 25.6143 6.08007 25.2378 3.85822C24.9365 2.05062 23.4302 0.581942 21.6602 0.280675C20.3422 0.0547245 19.0241 0.39365 18.0074 1.25979C16.9906 2.12594 16.4257 3.36866 16.4257 4.68671C16.3504 5.36456 16.9153 5.92943 17.5931 5.92943Z" fill="white"/>
<path d="M20.7942 15.2311C21.5429 15.2311 22.1499 14.6241 22.1499 13.8754C22.1499 13.1266 21.5429 12.5197 20.7942 12.5197C20.0454 12.5197 19.4385 13.1266 19.4385 13.8754C19.4385 14.6241 20.0454 15.2311 20.7942 15.2311Z" fill="white"/>
</svg>
