<svg width="36" height="34" viewBox="0 0 36 34" fill="none" xmlns="http://www.w3.org/2000/svg">
<path d="M17.8858 14.9461C22.0066 14.9461 25.359 11.5937 25.359 7.47327C25.359 3.35242 22.0062 0 17.8858 0C13.7649 0 10.4121 3.35242 10.4121 7.47327C10.4121 11.5937 13.7649 14.9461 17.8858 14.9461Z" fill="white"/>
<path d="M5.14645 20.8972C5.12755 20.2413 4.5347 19.7146 3.80209 19.7146C3.05807 19.7146 2.45459 20.2582 2.45459 20.929V23.5453H3.28994C3.81941 22.6119 4.43982 21.7254 5.14645 20.8972Z" fill="white"/>
<path d="M33.5458 23.9401V21.3238C33.5458 20.653 32.9423 20.109 32.1979 20.109C31.5881 20.109 31.0791 20.4767 30.9126 20.977C31.6881 21.897 32.3522 22.8922 32.91 23.9401H33.5458Z" fill="white"/>
<path d="M26.9825 31.1307C26.9825 30.7934 27.0656 30.4757 27.2065 30.1922H23.6387C23.5242 29.8631 23.3864 29.5451 23.2199 29.2447L26.9994 25.8907C27.0856 24.8018 27.9883 23.9401 29.098 23.9401H30.8514H31.5675C31.3439 23.5587 31.1049 23.1866 30.8514 22.8264C30.4987 22.3257 30.1204 21.8443 29.7129 21.3888C29.694 21.3648 29.6803 21.3384 29.6594 21.3152C29.6413 21.2943 29.6192 21.2797 29.6007 21.2605C26.7246 18.1112 22.5877 16.1318 17.9964 16.1318C13.4071 16.1318 9.27166 18.1096 6.39596 21.2573C6.37589 21.2782 6.35266 21.2935 6.33337 21.3152C6.31408 21.3368 6.30109 21.362 6.28298 21.3852C5.8779 21.838 5.50156 22.317 5.15042 22.8146C4.98232 23.0528 4.82289 23.298 4.66779 23.5453H5.15042H6.90379C8.07021 23.5453 9.01932 24.4944 9.01932 25.6612C9.01932 25.7411 9.00869 25.8183 9.00003 25.8958L12.6292 29.1172C12.4304 29.4561 12.2639 29.8155 12.1328 30.1922H8.94138C8.98822 30.3666 9.01932 30.5473 9.01932 30.7363C9.01932 31.9027 8.07021 32.8518 6.90379 32.8518H2.62744C2.93017 33.2463 3.40138 33.5045 3.93676 33.5045H32.0568C32.0588 33.5049 32.0599 33.5049 32.0615 33.5049C32.0631 33.5049 32.0643 33.5049 32.0651 33.5045C32.3894 33.5045 32.6898 33.4077 32.9453 33.2467H29.098C27.9316 33.2467 26.9825 32.2975 26.9825 31.1307ZM17.8858 26.097C16.8504 26.097 15.8761 26.3568 15.0223 26.8123L10.0125 22.3663C12.1718 20.5452 14.9573 19.4441 17.9964 19.4441C21.0354 19.4441 23.821 20.5452 25.9802 22.3663L20.8843 26.8894C19.9985 26.3871 18.9766 26.097 17.8858 26.097Z" fill="white"/>
<path d="M8.03468 30.7363C8.03468 30.5379 7.97917 30.3544 7.88942 30.1922C7.69652 29.8435 7.33002 29.6049 6.9033 29.6049H5.79947H3.51111V29.3128H5.85655H6.9029C7.19854 29.3128 7.46544 29.1971 7.6666 29.0113C7.89099 28.8046 8.03428 28.5109 8.03428 28.1814C8.03428 27.8712 7.9091 27.5905 7.70676 27.3858C7.50166 27.1788 7.21744 27.0496 6.9029 27.0496H6.56553H4.75627H3.51111V26.7926H4.96687H6.67458H6.9029C7.52804 26.7926 8.03428 26.2859 8.03428 25.6612C8.03428 25.3659 7.91855 25.0994 7.73313 24.8979C7.52646 24.6731 7.2324 24.5294 6.9029 24.5294H5.14953H4.09964H2.77497H2.45453H2.00064C1.96127 24.5294 1.92505 24.5373 1.88687 24.5412C1.82664 24.5341 1.76719 24.5294 1.70972 24.5294C-0.073961 24.5294 0.000441147 28.181 0.000441147 28.181C0.000441147 28.181 -0.00349558 31.8673 1.70972 31.8673C1.76719 31.8673 1.82664 31.8625 1.88687 31.8559C1.92505 31.8606 1.96127 31.8673 2.00064 31.8673H2.28171H6.9029C7.52804 31.8677 8.03468 31.3614 8.03468 30.7363Z" fill="white"/>
<path d="M34.291 24.9243C34.2335 24.9243 34.1737 24.929 34.1142 24.9357C34.076 24.9317 34.0394 24.9243 34.0001 24.9243H33.5466H33.3907H32.0963H30.8512H29.0978C28.8443 24.9243 28.6128 25.0109 28.4242 25.1514C28.1479 25.3577 27.9668 25.6844 27.9668 26.056C27.9668 26.6804 28.4727 27.187 29.0978 27.187H29.4859H31.0338H32.4896V27.4441H31.2444H29.5891H29.0978C28.8384 27.4441 28.6018 27.5346 28.4112 27.6819C28.1424 27.8885 27.9668 28.2101 27.9668 28.5755C27.9668 28.7302 27.9983 28.877 28.0542 29.0109C28.2246 29.4195 28.6274 29.7072 29.0978 29.7072H30.2107H32.4896V29.9989H30.2587H29.0978C28.8636 29.9989 28.6463 30.0702 28.466 30.1918C28.1648 30.3954 27.9668 30.7398 27.9668 31.1303C27.9668 31.7555 28.4727 32.2621 29.0978 32.2621H33.6627H34.0001C34.0394 32.2621 34.076 32.2546 34.1142 32.2503C34.1737 32.2574 34.2339 32.2621 34.291 32.2621C36.0038 32.2621 35.9999 28.5755 35.9999 28.5755C35.9999 28.5755 36.0746 24.9243 34.291 24.9243Z" fill="white"/>
</svg>
