<svg width="47" height="46" viewBox="0 0 47 46" fill="none" xmlns="http://www.w3.org/2000/svg">
<path d="M24.9085 16.3586C24.266 14.8265 23.327 13.4427 22.1409 12.2566C20.9548 11.0705 19.571 10.1314 18.0389 9.48897C16.4574 8.79706 14.7277 8.45111 12.9979 8.45111C11.2681 8.45111 9.53839 8.79706 7.95689 9.48897C6.42482 10.1314 5.04101 11.0705 3.85489 12.2566C2.66877 13.4427 1.72976 14.8265 1.08728 16.3586C0.345952 17.9895 0 19.6698 0 21.3996C0 24.3649 2.07571 29.06 6.17771 35.4848C9.19243 40.1798 12.2566 44.1336 12.2566 44.1336L12.9485 45.0232L13.6404 44.1336C13.6898 44.0841 16.7045 40.1798 19.7193 35.4848C23.8213 29.06 25.897 24.3649 25.897 21.3996C25.9464 19.6698 25.6004 17.9895 24.9085 16.3586ZM13.9369 25.7487C10.3786 26.4406 7.36383 23.3765 8.00631 19.8181C8.40169 17.8412 9.98318 16.2597 11.96 15.8644C15.5184 15.1725 18.5331 18.2366 17.8906 21.795C17.5447 23.8213 15.9138 25.4028 13.9369 25.7487Z" fill="#42D77E"/>
<path d="M46.5058 3.70663C46.2093 2.9653 45.7645 2.32282 45.2209 1.77918C44.6772 1.23554 44.0348 0.790747 43.2934 0.494217C42.5521 0.197687 41.7614 0 40.9706 0C40.1799 0 39.3891 0.148265 38.6478 0.494217C37.9065 0.790747 37.264 1.23554 36.7203 1.77918C36.1767 2.32282 35.7319 2.9653 35.4354 3.70663C35.1388 4.44795 34.9412 5.2387 34.9412 6.02945C34.9412 7.41325 35.9296 9.58781 37.8076 12.5531C39.1914 14.7277 40.6247 16.5563 40.6247 16.5563L40.9706 16.9516L41.3166 16.5563C41.3166 16.5563 42.7498 14.7277 44.1336 12.5531C46.061 9.58781 47.0001 7.36383 47.0001 6.02945C47.0001 5.2387 46.8518 4.49737 46.5058 3.70663ZM41.4154 8.10516C39.7845 8.40169 38.3513 7.01788 38.6478 5.33754C38.8455 4.39853 39.5868 3.6572 40.4764 3.50894C42.1073 3.21241 43.5405 4.59622 43.244 6.27655C43.0957 7.16614 42.3544 7.90747 41.4154 8.10516Z" fill="#42D77E"/>
<path d="M17.8412 45.2703L17.0999 43.4417C17.3964 43.2934 17.8412 43.244 19.225 43.0957L20.0157 42.9969L20.2628 44.9738L19.4721 45.0232C18.7802 45.122 18.0389 45.2209 17.8412 45.2703ZM23.6235 44.4795L23.2776 42.5027C24.2166 42.3544 25.0567 42.2062 25.8475 42.0085L26.2923 43.9359C25.4521 44.1336 24.5625 44.2819 23.6235 44.4795ZM29.6035 43.0957L29.0105 41.1683C29.8506 40.9212 30.6908 40.6247 31.4321 40.3281L32.1735 42.1567C31.3827 42.5027 30.4931 42.8486 29.6035 43.0957ZM35.287 40.5752L34.1998 38.8949C34.9411 38.4007 35.5341 37.9065 36.0778 37.3628L37.511 38.7466C36.918 39.3891 36.1766 40.0316 35.287 40.5752ZM39.4385 35.5342L37.511 34.9412C37.6593 34.3975 37.7581 33.8539 37.7581 33.2608C37.7581 33.0631 37.7581 32.9149 37.7581 32.7172L39.735 32.5689C39.735 32.816 39.7844 33.0631 39.7844 33.2608C39.735 34.0516 39.6361 34.7929 39.4385 35.5342ZM36.9674 29.8013C36.6708 29.1094 36.2755 28.3187 35.8307 27.5773L37.5604 26.5395C38.0546 27.3796 38.4994 28.2198 38.8454 29.06L36.9674 29.8013ZM34.4469 24.2167C34.2986 23.4753 34.1998 22.7834 34.1998 22.0915C34.1998 21.8444 34.1998 21.5479 34.2492 21.3008L36.226 21.4985C36.226 21.6961 36.1766 21.8938 36.1766 22.0915C36.1766 22.6352 36.226 23.2282 36.3743 23.8213L34.4469 24.2167ZM37.2145 18.9285L35.633 17.693C36.226 16.9022 37.0168 16.2598 37.9558 15.7161L38.9442 17.4459C38.2029 17.8907 37.6099 18.3849 37.2145 18.9285Z" fill="#42D77E"/>
</svg>
