<svg width="31" height="42" viewBox="0 0 31 42" fill="none" xmlns="http://www.w3.org/2000/svg">
<path d="M30.1514 21.7817C29.3559 20.1906 27.3669 19.5276 25.7757 20.3674L19.6762 23.4613C19.6762 23.4613 13.1789 19.0856 12.5159 18.5994C11.8529 18.1574 11.0574 17.7154 10.5712 17.5386C8.40541 16.8756 2.8805 16.3452 1.33353 19.9696C-0.301845 23.8591 0.00755038 33.8039 0.0517496 40.8758C0.0517496 41.4946 0.449543 41.9808 1.06833 41.9808C2.57111 41.9808 12.0739 41.9808 12.7811 41.9808C13.4883 41.9808 13.7535 41.583 13.8419 41.0084C13.8861 40.6548 14.5491 32.6106 14.5049 29.0746C14.5049 28.6768 14.5049 28.279 14.5049 27.837L17.5989 29.9144C18.1292 30.268 18.7922 30.489 19.411 30.489C19.8972 30.489 20.4276 30.3564 20.8696 30.1354L28.6929 26.1575C30.3282 25.3619 30.9912 23.4171 30.1514 21.7817Z" fill="#8D9295"/>
<path d="M8.14025 15.4613C12.0704 15.4613 15.2563 12.2753 15.2563 8.3452C15.2563 4.4151 12.0704 1.22913 8.14025 1.22913C4.21015 1.22913 1.02417 4.4151 1.02417 8.3452C1.02417 12.2753 4.21015 15.4613 8.14025 15.4613Z" fill="#8D9295"/>
<path d="M20.6486 6.7098C21.4442 6.7098 22.1514 6.04681 22.1514 5.25123C22.1514 4.58824 22.4608 3.92525 22.947 3.48326C23.4774 3.04127 24.1404 2.86447 24.8475 2.99707C25.7315 3.17386 26.5271 3.92525 26.6597 4.80924C26.8807 6.09101 26.0409 7.1076 25.1127 7.41699C23.7868 7.85898 22.947 9.05236 22.947 10.4667V11.7485C22.947 12.5441 23.61 13.2071 24.4498 13.2071C25.2895 13.2071 25.9525 12.5441 25.9525 11.7485V10.4667C25.9525 10.3341 26.0409 10.2457 26.0851 10.2015C28.6045 9.40596 30.0631 6.8866 29.6211 4.27884C29.2675 2.15728 27.4995 0.43351 25.4221 0.0799158C23.8752 -0.18528 22.3282 0.212514 21.1348 1.2291C19.9414 2.24568 19.2784 3.70425 19.2784 5.25123C19.19 6.04681 19.853 6.7098 20.6486 6.7098Z" fill="#8D9295"/>
<path d="M24.4056 17.627C25.2844 17.627 25.9968 16.9146 25.9968 16.0358C25.9968 15.157 25.2844 14.4446 24.4056 14.4446C23.5268 14.4446 22.8145 15.157 22.8145 16.0358C22.8145 16.9146 23.5268 17.627 24.4056 17.627Z" fill="#8D9295"/>
</svg>
