<svg width="37" height="40" viewBox="0 0 37 40" fill="none" xmlns="http://www.w3.org/2000/svg">
<path d="M36.5873 10.3358L33.7412 7.48968C33.6082 7.35779 33.4505 7.25344 33.2771 7.18262C33.1037 7.1118 32.9181 7.07591 32.7308 7.07699H31.3077C30.9303 7.07699 30.5683 7.22692 30.3014 7.4938C30.0345 7.76068 29.8846 8.12264 29.8846 8.50007V14.1924H24.1923V8.50007C24.1923 8.12264 24.0424 7.76068 23.7755 7.4938C23.5086 7.22692 23.1467 7.07699 22.7692 7.07699H21.3462C21.1589 7.07591 20.9732 7.1118 20.7998 7.18262C20.6264 7.25344 20.4687 7.35779 20.3358 7.48968L17.4896 10.3358C17.3577 10.4688 17.2534 10.6265 17.1826 10.7999C17.1117 10.9733 17.0758 11.1589 17.0769 11.3462V17.0385C17.0758 17.2258 17.1117 17.4115 17.1826 17.5849C17.2534 17.7582 17.3577 17.9159 17.4896 18.0489L20.3358 20.8951C20.4687 21.027 20.6264 21.1313 20.7998 21.2021C20.9732 21.2729 21.1589 21.3088 21.3462 21.3078H22.7692V31.2693C22.7692 31.6467 22.9192 32.0087 23.186 32.2756C23.4529 32.5424 23.8149 32.6924 24.1923 32.6924H29.8846C30.262 32.6924 30.624 32.5424 30.8909 32.2756C31.1578 32.0087 31.3077 31.6467 31.3077 31.2693V21.3078H32.7308C32.9181 21.3088 33.1037 21.2729 33.2771 21.2021C33.4505 21.1313 33.6082 21.027 33.7412 20.8951L36.5873 18.0489C36.7192 17.9159 36.8235 17.7582 36.8944 17.5849C36.9652 17.4115 37.0011 17.2258 37 17.0385V11.3462C37.0011 11.1589 36.9652 10.9733 36.8944 10.7999C36.8235 10.6265 36.7192 10.4688 36.5873 10.3358Z" fill="#ED2E3B"/>
<path d="M14.2307 17.2308V11.5385C14.2317 10.4066 14.6821 9.32143 15.483 8.52156L18.3291 5.67541C19.129 4.87454 20.2141 4.4241 21.346 4.4231H22.4133C21.4347 3.01769 20.1103 1.8883 18.568 1.14397C17.0257 0.399636 15.3175 0.0654998 13.6083 0.173817C11.8992 0.282134 10.2469 0.829246 8.81084 1.76234C7.3748 2.69542 6.20357 3.98297 5.41023 5.50068C4.61688 7.0184 4.2282 8.71501 4.28172 10.4267C4.33524 12.1384 4.82915 13.8075 5.71577 15.2726C6.60238 16.7378 7.85176 17.9497 9.34328 18.7912C10.8348 19.6328 12.5181 20.0756 14.2307 20.0769C14.5828 20.0745 14.9345 20.0507 15.2837 20.0058C14.6121 19.2365 14.2385 18.252 14.2307 17.2308Z" fill="#ED2E3B"/>
<path d="M24.1923 35.5312C23.06 35.5312 21.9741 35.0814 21.1735 34.2808C20.3729 33.4802 19.9231 32.3943 19.9231 31.262V23.9047C19.3231 23.691 18.7785 23.3458 18.3292 22.8943L17.6746 22.2397C16.5556 22.5645 15.3959 22.7274 14.2308 22.7235C11.2067 22.7262 8.28051 21.6516 5.97692 19.6924C4.13186 21.006 2.62701 22.7411 1.58745 24.7534C0.547893 26.7657 0.00366333 28.9971 0 31.262V38.3774C0 38.7548 0.149931 39.1168 0.416809 39.3836C0.683688 39.6505 1.04565 39.8005 1.42308 39.8005H27.0385C27.4159 39.8005 27.7778 39.6505 28.0447 39.3836C28.3116 39.1168 28.4615 38.7548 28.4615 38.3774V35.5312H24.1923Z" fill="#ED2E3B"/>
</svg>
