<svg width="36" height="40" viewBox="0 0 36 40" fill="none" xmlns="http://www.w3.org/2000/svg">
<path fill-rule="evenodd" clip-rule="evenodd" d="M33.9565 9.61107C33.7002 6.40763 33.1876 3.97302 32.2907 3.07605C28.9591 -0.896213 5.76619 -1.15249 3.20344 3.07605C2.43461 4.10115 2.0502 6.53577 1.79393 9.61107C0.768826 9.73921 0 10.508 0 11.5331V15.3773C0 16.1461 0.51255 16.9149 1.28138 17.1712C1.15324 23.1937 1.28138 29.4724 1.53765 32.5477C1.53765 34.9823 3.20344 34.5979 3.20344 34.5979H4.61295V37.1607C4.61295 39.7234 9.35404 39.7234 9.35404 37.1607V34.5979H27.037V37.1607C27.037 39.7234 31.7781 39.7234 31.7781 37.1607V34.5979H32.2907C32.2907 34.5979 34.2127 34.8542 34.3409 33.7009C34.3409 30.6256 34.5971 23.7062 34.3409 17.1712C35.2378 16.9149 35.7504 16.2742 35.7504 15.3773V11.5331C35.7504 10.508 34.9816 9.61107 33.9565 9.61107ZM8.84149 3.20419H26.6526V5.89508H8.84149V3.20419ZM9.09777 31.5226C7.68826 31.5226 6.53502 30.3694 6.53502 28.9598C6.53502 27.5503 7.68826 26.5252 9.09777 26.5252C10.5073 26.5252 11.6605 27.5503 11.6605 28.9598C11.6605 30.3694 10.5073 31.5226 9.09777 31.5226ZM26.5245 31.5226C25.115 31.5226 23.9617 30.3694 23.9617 28.9598C23.9617 27.5503 25.115 26.5252 26.5245 26.5252C27.934 26.5252 29.0872 27.5503 29.0872 28.9598C29.0872 30.3694 27.934 31.5226 26.5245 31.5226ZM29.7279 20.5028H5.63805V7.81714H29.7279V20.5028Z" fill="#FAB24F"/>
</svg>
