<svg width="32" height="32" viewBox="0 0 32 32" fill="none" xmlns="http://www.w3.org/2000/svg">
<path d="M31.2529 29.7612L21.3676 19.8864C23.3739 17.4985 24.3807 14.4282 24.1781 11.3159C23.9756 8.20361 22.5793 5.2897 20.2805 3.18193C17.9816 1.07416 14.9578 -0.0647183 11.8397 0.00284283C8.72157 0.0704039 5.74992 1.33919 3.54455 3.54455C1.33919 5.74992 0.0704039 8.72157 0.00284283 11.8397C-0.0647183 14.9578 1.07416 17.9816 3.18193 20.2805C5.2897 22.5793 8.20361 23.9756 11.3159 24.1781C14.4282 24.3807 17.4985 23.3739 19.8864 21.3676L29.7612 31.2529C29.8589 31.3514 29.975 31.4295 30.1031 31.4829C30.2311 31.5362 30.3684 31.5637 30.5071 31.5637C30.6457 31.5637 30.783 31.5362 30.9111 31.4829C31.0391 31.4295 31.1553 31.3514 31.2529 31.2529C31.3514 31.1553 31.4295 31.0391 31.4829 30.9111C31.5362 30.783 31.5637 30.6457 31.5637 30.5071C31.5637 30.3684 31.5362 30.2311 31.4829 30.1031C31.4295 29.975 31.3514 29.8589 31.2529 29.7612ZM2.14336 12.1232C2.14336 10.1494 2.72866 8.21986 3.82526 6.57869C4.92186 4.93751 6.48049 3.65838 8.30407 2.90303C10.1276 2.14768 12.1342 1.95004 14.0701 2.33512C16.006 2.72019 17.7843 3.67068 19.18 5.06638C20.5757 6.46208 21.5262 8.24032 21.9112 10.1762C22.2963 12.1121 22.0987 14.1187 21.3433 15.9423C20.588 17.7659 19.3088 19.3245 17.6677 20.4211C16.0265 21.5177 14.097 22.103 12.1232 22.103C9.47722 22.1002 6.94043 21.0479 5.06945 19.1769C3.19847 17.3059 2.14614 14.7691 2.14336 12.1232Z" fill="black"/>
</svg>
