<?xml version="1.0" encoding="iso-8859-1"?>
<!-- Generator: Adobe Illustrator 19.0.0, SVG Export Plug-In . SVG Version: 6.00 Build 0)  -->
<svg version="1.1" id="Layer_1" xmlns="http://www.w3.org/2000/svg" xmlns:xlink="http://www.w3.org/1999/xlink" x="0px" y="0px"
	 viewBox="0 0 509.287 509.287" style="enable-background:new 0 0 509.287 509.287;" xml:space="preserve">
<circle style="fill:#FBD303;" cx="254.644" cy="254.644" r="254.644"/>
<g>
	<ellipse style="fill:#0090FF;" cx="116.641" cy="382.813" rx="21.023" ry="29.499"/>
	<ellipse style="fill:#0090FF;" cx="392.646" cy="382.813" rx="21.023" ry="29.499"/>
	<path style="fill:#0090FF;" d="M314.321,241.081l-13.224-3.391l-15.258,38.993l-31.195,4.408l-31.195-4.408l-15.258-38.993
		l-13.224,3.391c0,0-65.78,22.379-67.136,67.815l126.813,62.05l126.813-62.05C380.101,263.121,314.321,241.081,314.321,241.081z"/>
</g>
<path style="fill:#F1F3F7;" d="M255.661,320.763c0,0-59.338-46.792-106.469-49.166v49.166H255.661z"/>
<path style="fill:#FCFCFD;" d="M255.661,320.763c0,0-89.176-36.281-132.577-32.89v50.183L255.661,320.763z"/>
<g>
	
		<ellipse transform="matrix(-0.6058 -0.7956 0.7956 -0.6058 149.0755 604.0245)" style="fill:#3EB9E3;" cx="224.172" cy="265.082" rx="38.654" ry="26.447"/>
	
		<ellipse transform="matrix(-0.6058 0.7956 -0.7956 -0.6058 669.1219 198.4879)" style="fill:#3EB9E3;" cx="285.39" cy="265.005" rx="38.654" ry="26.447"/>
</g>
<path style="fill:#F0BA7A;" d="M294.993,251.931c-17.632,29.838-60.694,29.838-78.326,0c0-16.954,0-34.246,0-51.2
	c26.109,0,52.217,0,78.326,0C294.993,217.685,294.993,234.638,294.993,251.931z"/>
<circle style="fill:#393D47;" cx="254.644" cy="108.842" r="98.331"/>
<path style="fill:#F7CFA2;" d="M297.367,86.464h-85.446c-20.683,0-37.298,16.615-37.298,37.298v25.43
	c0,44.079,35.603,79.682,79.682,79.682s79.682-35.603,79.682-79.682v-25.43C334.326,103.078,317.711,86.464,297.367,86.464z"/>
<g>
	<polygon style="fill:#393D47;" points="188.864,73.579 188.864,134.273 267.528,134.273 270.58,98.331 275.327,134.273 
		316.694,134.273 316.694,73.579 	"/>
	<polygon style="fill:#393D47;" points="255.661,482.501 115.285,465.547 106.469,299.74 255.661,320.763 	"/>
</g>
<path style="fill:#F1F3F7;" d="M255.322,320.763c0,0,59.338-46.792,106.469-49.166v49.166H255.322z"/>
<path style="fill:#FCFCFD;" d="M255.322,320.763c0,0,89.176-36.281,132.577-32.89v50.183L255.322,320.763z"/>
<polygon style="fill:#333842;" points="255.322,482.501 396.037,465.547 404.514,299.74 255.322,320.763 "/>
<path style="fill:#F7CFA2;" d="M149.87,382.813c0-2.713-2.374-5.086-5.086-5.086h-3.73c2.713,0,5.086-2.373,5.086-5.086v-0.339
	c0-2.713-2.374-5.086-5.086-5.086h-27.126c-6.103,0-10.85,4.747-10.85,10.85l3.052,20.005c0,6.103,4.747,10.85,10.85,10.85h20.683
	c2.713,0,4.747-2.034,4.747-4.747v-1.017c0-2.713-2.034-4.747-4.747-4.747h4.408c2.713,0,5.086-2.374,5.086-5.086v-0.339
	c0-2.713-2.374-5.086-5.086-5.086h2.713C147.497,387.899,149.87,385.526,149.87,382.813z"/>
<path style="fill:#F0BA7A;" d="M359.417,382.813c0-2.713,2.374-5.086,5.086-5.086h3.73c-2.713,0-5.086-2.373-5.086-5.086v-0.339
	c0-2.713,2.374-5.086,5.086-5.086h27.126c6.103,0,10.85,4.747,10.85,10.85l-3.052,20.005c0,6.103-4.747,10.85-10.85,10.85h-20.683
	c-2.713,0-4.747-2.034-4.747-4.747v-1.017c0-2.713,2.034-4.747,4.747-4.747h-4.408c-2.713,0-5.086-2.374-5.086-5.086v-0.339
	c0-2.713,2.374-5.086,5.086-5.086h-2.713C361.791,387.899,359.417,385.526,359.417,382.813z"/>
<g>
</g>
<g>
</g>
<g>
</g>
<g>
</g>
<g>
</g>
<g>
</g>
<g>
</g>
<g>
</g>
<g>
</g>
<g>
</g>
<g>
</g>
<g>
</g>
<g>
</g>
<g>
</g>
<g>
</g>
</svg>
