<svg width="26" height="37" viewBox="0 0 26 37" fill="none" xmlns="http://www.w3.org/2000/svg">
<path d="M25.2307 3.64758H22.5372V6.8797C22.5372 8.18794 21.5368 9.18836 20.2286 9.18836H6.76139C5.45315 9.18836 4.45273 8.18794 4.45273 6.8797V3.64758H1.7593C1.29757 3.64758 0.989746 3.9554 0.989746 4.41714V36.1997C0.989746 36.6614 1.29757 36.9692 1.7593 36.9692H25.2307C25.6924 36.9692 26.0002 36.6614 26.0002 36.1997V4.41714C26.0002 3.9554 25.6924 3.64758 25.2307 3.64758ZM13.5335 28.4272H6.2227C5.76097 28.4272 5.45315 28.1194 5.45315 27.6576C5.45315 27.1959 5.76097 26.8881 6.2227 26.8881H13.5335C13.9952 26.8881 14.303 27.1959 14.303 27.6576C14.303 28.1194 13.9952 28.4272 13.5335 28.4272ZM20.8442 23.502H6.2227C5.76097 23.502 5.45315 23.1942 5.45315 22.7325C5.45315 22.2708 5.76097 21.9629 6.2227 21.9629H20.9212C21.3829 21.9629 21.6907 22.2708 21.6907 22.7325C21.6907 23.1942 21.3059 23.502 20.8442 23.502ZM20.8442 18.5769H6.2227C5.76097 18.5769 5.45315 18.2691 5.45315 17.8074C5.45315 17.3456 5.76097 17.0378 6.2227 17.0378H20.9212C21.3829 17.0378 21.6907 17.3456 21.6907 17.8074C21.6907 18.2691 21.3059 18.5769 20.8442 18.5769ZM20.8442 13.7287H6.2227C5.76097 13.7287 5.45315 13.4209 5.45315 12.9592C5.45315 12.4974 5.76097 12.1896 6.2227 12.1896H20.9212C21.3829 12.1896 21.6907 12.4974 21.6907 12.9592C21.6907 13.4209 21.3059 13.7287 20.8442 13.7287Z" fill="white"/>
<path d="M6.7611 7.64927H20.2283C20.613 7.64927 20.9978 7.26449 20.9978 6.87972V3.6476C20.9978 2.80109 20.3052 2.18545 19.5357 2.18545H17.1501C17.0731 2.18545 16.9961 2.10849 16.9961 2.10849L16.4575 1.03112C16.1496 0.415477 15.534 0.0307007 14.9184 0.0307007H12.148C11.4554 0.0307007 10.8397 0.415477 10.6089 1.03112L10.0702 2.10849C10.0702 2.18545 9.99322 2.18545 9.91626 2.18545H7.53065C6.68414 2.18545 6.0685 2.87805 6.0685 3.6476V6.87972C5.99154 7.34145 6.37632 7.64927 6.7611 7.64927Z" fill="white"/>
</svg>
