<svg width="27" height="34" viewBox="0 0 27 34" fill="none" xmlns="http://www.w3.org/2000/svg">
<path d="M2.25455 0C1.01853 0 0 1.01853 0 2.25455V31.5637C0 32.7997 1.01853 33.8182 2.25455 33.8182H24.0485C25.2845 33.8182 26.303 32.7997 26.303 31.5637V2.25455C26.303 1.01853 25.2845 0 24.0485 0H2.25455ZM2.25455 1.50303H24.0485C24.4778 1.50303 24.8 1.82522 24.8 2.25455V31.5637C24.8 31.993 24.4778 32.3152 24.0485 32.3152H2.25455C1.82521 32.3152 1.50303 31.993 1.50303 31.5637V2.25455C1.50303 1.82522 1.82521 1.50303 2.25455 1.50303ZM17.2144 4.12159C17.0253 4.14117 16.845 4.23561 16.7212 4.37993L11.9186 9.87538L9.4644 8.03182C9.14816 7.79267 8.64167 7.86603 8.40626 8.18507C8.17089 8.50411 8.25017 9.00966 8.57197 9.24129L11.578 11.4958C11.8767 11.717 12.3415 11.6683 12.5879 11.3902L17.8485 5.37803C18.0542 5.15475 18.1035 4.80119 17.9667 4.53015C17.8299 4.2591 17.5162 4.08874 17.2144 4.12159ZM5.26061 15.4061C4.84555 15.4061 4.50909 15.7425 4.50909 16.1576C4.50909 16.5726 4.84555 16.9091 5.26061 16.9091H21.0424C21.4575 16.9091 21.7939 16.5726 21.7939 16.1576C21.7939 15.7425 21.4575 15.4061 21.0424 15.4061H5.26061ZM5.26061 21.4182C4.84555 21.4182 4.50909 21.7547 4.50909 22.1697C4.50909 22.5848 4.84555 22.9212 5.26061 22.9212H21.0424C21.4575 22.9212 21.7939 22.5848 21.7939 22.1697C21.7939 21.7547 21.4575 21.4182 21.0424 21.4182H5.26061ZM5.26061 27.4303C4.84555 27.4303 4.50909 27.7668 4.50909 28.1819C4.50909 28.5969 4.84555 28.9334 5.26061 28.9334H21.0424C21.4575 28.9334 21.7939 28.5969 21.7939 28.1819C21.7939 27.7668 21.4575 27.4303 21.0424 27.4303H5.26061Z" fill="black"/>
</svg>
