<svg width="36" height="36" viewBox="0 0 36 36" fill="none" xmlns="http://www.w3.org/2000/svg">
<path d="M12.3493 22.1938C12.3493 22.5462 11.9188 22.7359 11.6766 22.492L7.72111 18.5081C7.55967 18.3455 7.55967 18.0474 7.72111 17.8848L11.6228 13.928C11.8919 13.657 12.2955 13.8467 12.2955 14.2261V16.611C13.9369 16.7465 15.4168 17.397 16.6008 18.3997V12.3562H14.0714C13.7216 12.3562 13.5333 11.9226 13.7754 11.6786L17.7309 7.72189C17.8924 7.55929 18.1884 7.55929 18.3498 7.72189L22.2515 11.6786C22.5206 11.9497 22.3322 12.3562 21.9555 12.3562H19.3454V18.4268C20.5294 17.4241 22.0363 16.7736 23.6507 16.611V14.2261C23.6507 13.8738 24.0813 13.6841 24.3234 13.928L28.2789 17.8577C28.4404 18.0203 28.4404 18.3184 28.2789 18.481L24.3504 22.4649C24.0813 22.7359 23.6776 22.5462 23.6776 22.1667V19.6192C21.3097 19.9987 19.5069 22.0583 19.5069 24.5516V28.0206C19.5069 28.2374 19.3454 28.4 19.1302 28.4H16.8968C16.6815 28.4 16.5201 28.2374 16.5201 28.0206V24.5787C16.5201 22.0854 14.7172 20.0258 12.3493 19.6463V22.1938Z" fill="white"/>
<path fill-rule="evenodd" clip-rule="evenodd" d="M1.66377 13.976L13.9762 1.66381C16.1944 -0.554313 19.8048 -0.554897 22.0238 1.66381L34.3359 13.976C36.5546 16.1947 36.5546 19.8048 34.3362 22.0235L22.0238 34.336C20.9143 35.4455 19.4572 36 17.9999 36C16.5428 36 15.0857 35.4453 13.9762 34.336L1.66407 22.0235C-0.55464 19.8048 -0.55464 16.1947 1.66377 13.976ZM20.8117 2.87608L33.1238 15.1882C34.673 16.7374 34.673 19.2621 33.124 20.8114L20.8116 33.1239C20.0376 33.8978 19.0228 34.2857 17.9999 34.2857C16.9775 34.2857 15.9626 33.8978 15.1884 33.1239L2.87626 20.8114C1.32701 19.2621 1.327 16.7374 2.87604 15.1881L15.1884 2.87601C16.7371 1.32731 19.2622 1.32688 20.8117 2.87608Z" fill="white"/>
</svg>
