<svg height="480pt" viewBox="0 0 480 480" width="480pt" xmlns="http://www.w3.org/2000/svg"><path d="m424 88h16v96h-16zm0 0" fill="#575c61"/><path d="m424 88h8v96h-8zm0 0" fill="#5b6673"/><path d="m480 48c0 26.507812-21.492188 48-48 48s-48-21.492188-48-48 21.492188-48 48-48 48 21.492188 48 48zm0 0" fill="#ca5057"/><path d="m464 36c0 6.628906-5.371094 12-12 12s-12-5.371094-12-12 5.371094-12 12-12 12 5.371094 12 12zm0 0" fill="#dc6068"/><path d="m176 456h32v-32h-16v-24l-32-72h-144v96h-16v32h32" fill="#eebc5a"/><path d="m184 408-32-72h-136v88h-8v8h-8v24h200v-24h-16zm0 0" fill="#f8cf6a"/><path d="m160 400-16-40h-32v40zm0 0" fill="#85b6cf"/><path d="m136 368h-24v32h36.800781zm0 0" fill="#94cce7"/><path d="m48 360h32v40h-32zm0 0" fill="#85b6cf"/><path d="m48 368h24v32h-24zm0 0" fill="#94cce7"/><path d="m80 456c0 13.253906-10.746094 24-24 24s-24-10.746094-24-24 10.746094-24 24-24 24 10.746094 24 24zm0 0" fill="#575c61"/><path d="m176 456c0 13.253906-10.746094 24-24 24s-24-10.746094-24-24 10.746094-24 24-24 24 10.746094 24 24zm0 0" fill="#575c61"/><path d="m160 456c0 4.417969-3.582031 8-8 8s-8-3.582031-8-8 3.582031-8 8-8 8 3.582031 8 8zm0 0" fill="#bab8b9"/><path d="m64 456c0 4.417969-3.582031 8-8 8s-8-3.582031-8-8 3.582031-8 8-8 8 3.582031 8 8zm0 0" fill="#bab8b9"/><path d="m360 96h-232c-35.34375 0-64 28.65625-64 64s28.65625 64 64 64h240c61.855469 0 112 50.144531 112 112s-50.144531 112-112 112h-136v-64h136c26.511719 0 48-21.488281 48-48s-21.488281-48-48-48h-240c-70.695312 0-128-57.304688-128-128s57.304688-128 128-128h232zm0 0" fill="#5b6673"/><path d="m360 80h-232c-44.183594 0-80 35.816406-80 80s35.816406 80 80 80h240c53.015625 0 96 42.984375 96 96s-42.984375 96-96 96h-136v-32h136c35.34375 0 64-28.65625 64-64s-28.65625-64-64-64h-240c-61.855469 0-112-50.144531-112-112s50.144531-112 112-112h232zm0 0" fill="#bab8b9"/><g fill="#f8cf6a"><path d="m336 56h24v16h-24zm0 0"/><path d="m272 56h32v16h-32zm0 0"/><path d="m208 56h32v16h-32zm0 0"/><path d="m144 56h32v16h-32zm0 0"/><path d="m84.007812 83.769531-8.015624-13.839843c10.75-6.226563 22.414062-10.425782 34.679687-12.488282l2.65625 15.78125c-10.375 1.738282-20.230469 5.28125-29.320313 10.546875zm0 0"/><path d="m42.777344 138-15.503906-4c3.222656-12.503906 8.695312-24.175781 16.246093-34.671875l12.984375 9.34375c-6.382812 8.871094-11.007812 18.742187-13.726562 29.328125zm0 0"/><path d="m33.433594 203.335938c-5.027344-10.953126-8.082032-22.625-9.082032-34.679688l15.953126-1.3125c.832031 10.191406 3.421874 20.0625 7.671874 29.320312zm0 0"/><path d="m93.335938 258.078125c-12.59375-4.445313-24.078126-11.199219-34.136719-20.078125l10.59375-12c8.503906 7.511719 18.214843 13.230469 28.863281 17zm0 0"/><path d="m128 248h32v16h-32zm0 0"/><path d="m192 248h32v16h-32zm0 0"/><path d="m256 248h32v16h-32zm0 0"/><path d="m320 248h32v16h-32zm0 0"/><path d="m411.199219 278.398438c-8.605469-6.46875-18.289063-10.832032-28.792969-12.949219l3.167969-15.6875c12.851562 2.605469 24.707031 7.933593 35.226562 15.839843zm0 0"/><path d="m456 336h-16c0-10.015625-2.015625-19.703125-5.984375-28.800781l14.65625-6.40625c4.863281 11.128906 7.328125 22.976562 7.328125 35.207031zm0 0"/><path d="m420.816406 406.398438-9.617187-12.796876c9.953125-7.480468 17.839843-17.449218 22.816406-28.808593l14.65625 6.40625c-6.070313 13.898437-15.703125 26.058593-27.855469 35.199219zm0 0"/><path d="m368 424h-16v-16h16c4.832031 0 9.6875-.488281 14.414062-1.449219l3.171876 15.6875c-5.769532 1.167969-11.691407 1.761719-17.585938 1.761719zm0 0"/><path d="m288 408h32v16h-32zm0 0"/><path d="m232 408h24v16h-24zm0 0"/></g><path d="m152 184h16v40h-16zm0 0" fill="#bc8f6f"/><path d="m152 184h8v40h-8zm0 0" fill="#cb9e78"/><path d="m232 184h16v40h-16zm0 0" fill="#bc8f6f"/><path d="m232 184h8v40h-8zm0 0" fill="#cb9e78"/><path d="m184 160c0-17.671875-10.746094-32-24-32s-24 14.328125-24 32 10.746094 32 24 32 24-14.328125 24-32zm0 0" fill="#5da351"/><path d="m264 160c0-17.671875-10.746094-32-24-32s-24 14.328125-24 32 10.746094 32 24 32 24-14.328125 24-32zm0 0" fill="#5da351"/><path d="m168 160c0-16.589844-7.164062-30.039062-16-30.039062s-16 13.449218-16 30.039062 7.164062 30.039062 16 30.039062 16-13.449218 16-30.039062zm0 0" fill="#74c865"/><path d="m248 160c0-16.589844-7.164062-30.039062-16-30.039062s-16 13.449218-16 30.039062 7.164062 30.039062 16 30.039062 16-13.449218 16-30.039062zm0 0" fill="#74c865"/></svg>