<svg xmlns="http://www.w3.org/2000/svg" height="512pt" version="1.1" viewBox="0 0 512 512" width="512pt">
<g id="surface1">
<path d="M 512 256 C 512 397.386719 397.386719 512 256 512 C 114.613281 512 0 397.386719 0 256 C 0 114.613281 114.613281 0 256 0 C 397.386719 0 512 114.613281 512 256 Z M 512 256 " style=" stroke:none;fill-rule:nonzero;fill:rgb(39.607843%,69.803922%,100%);fill-opacity:1;" />
<path d="M 512 256 C 512 282.050781 508.109375 307.191406 500.871094 330.871094 C 468.859375 435.71875 371.328125 512 256 512 C 151.441406 512 61.511719 449.300781 21.769531 359.449219 C 7.769531 327.820312 0 292.820312 0 256 C 0 209.78125 12.25 166.429688 33.679688 129 C 77.800781 206.070312 160.839844 258 256 258 C 351.160156 258 434.210938 206.070312 478.320312 129 C 499.75 166.429688 512 209.78125 512 256 Z M 512 256 " style=" stroke:none;fill-rule:nonzero;fill:rgb(5.882353%,60.784314%,90.980392%);fill-opacity:1;" />
<path d="M 481.261719 377.699219 C 474.101562 390.921875 465.828125 403.441406 456.539062 415.128906 C 448.101562 425.761719 438.820312 435.699219 428.820312 444.851562 C 383.28125 486.550781 322.609375 512 256 512 C 189.390625 512 128.71875 486.550781 83.179688 444.851562 C 73.179688 435.699219 63.898438 425.761719 55.460938 415.128906 C 46.171875 403.441406 37.898438 390.921875 30.738281 377.699219 Z M 481.261719 377.699219 " style=" stroke:none;fill-rule:nonzero;fill:rgb(45.490196%,49.411765%,61.960784%);fill-opacity:1;" />
<path d="M 428.820312 444.851562 C 383.28125 486.550781 322.609375 512 256 512 C 189.390625 512 128.71875 486.550781 83.179688 444.851562 Z M 428.820312 444.851562 " style=" stroke:none;fill-rule:nonzero;fill:rgb(27.843137%,30.980392%,43.529412%);fill-opacity:1;" />
<path d="M 38.332031 340.015625 L 473.664062 340.015625 L 473.664062 378.535156 L 38.332031 378.535156 Z M 38.332031 340.015625 " style=" stroke:none;fill-rule:nonzero;fill:rgb(19.607843%,23.137255%,35.294118%);fill-opacity:1;" />
<path d="M 473.667969 211.246094 L 473.667969 385.910156 L 452.59375 385.910156 C 448.851562 385.910156 445.699219 383.140625 445.171875 379.433594 C 443.664062 368.726562 438.453125 359.199219 430.878906 352.203125 C 422.695312 344.636719 411.753906 340.015625 399.726562 340.015625 C 387.714844 340.015625 376.769531 344.640625 368.585938 352.203125 C 361.015625 359.199219 355.804688 368.726562 354.292969 379.433594 C 353.769531 383.140625 350.613281 385.910156 346.871094 385.910156 L 156.539062 385.910156 C 154.195312 385.910156 152.277344 384.101562 152.066406 381.769531 C 151.03125 370.105469 145.628906 359.699219 137.507812 352.203125 C 129.320312 344.636719 118.375 340.015625 106.355469 340.015625 C 94.335938 340.015625 83.390625 344.640625 75.207031 352.203125 C 67.089844 359.699219 61.683594 370.105469 60.644531 381.769531 C 60.4375 384.101562 58.519531 385.910156 56.175781 385.910156 L 38.523438 385.910156 L 38.523438 296.597656 C 38.523438 291.9375 41.542969 287.808594 45.992188 286.398438 L 72.839844 277.875 L 87.398438 215.226562 L 89.105469 207.902344 C 90.660156 201.203125 96.625 196.464844 103.503906 196.464844 L 458.882812 196.464844 C 467.050781 196.460938 473.667969 203.078125 473.667969 211.246094 Z M 473.667969 211.246094 " style=" stroke:none;fill-rule:nonzero;fill:rgb(100%,81.960784%,7.058824%);fill-opacity:1;" />
<path d="M 473.667969 211.246094 L 473.667969 385.910156 L 452.59375 385.910156 C 448.851562 385.910156 445.699219 383.144531 445.175781 379.4375 C 443.664062 368.722656 438.453125 359.199219 430.878906 352.203125 C 422.695312 344.636719 411.753906 340.015625 399.726562 340.015625 C 387.714844 340.015625 376.773438 344.640625 368.589844 352.203125 C 361.011719 359.199219 355.804688 368.722656 354.292969 379.4375 C 353.769531 383.144531 350.617188 385.910156 346.875 385.910156 L 269.898438 385.910156 L 269.898438 196.460938 L 458.882812 196.460938 C 467.046875 196.460938 473.667969 203.082031 473.667969 211.246094 Z M 473.667969 211.246094 " style=" stroke:none;fill-rule:nonzero;fill:rgb(100%,62.352941%,0%);fill-opacity:1;" />
<path d="M 221.761719 291.359375 L 473.664062 291.359375 L 473.664062 301.121094 L 221.761719 301.121094 Z M 221.761719 291.359375 " style=" stroke:none;fill-rule:nonzero;fill:rgb(100%,100%,100%);fill-opacity:1;" />
<path d="M 221.761719 317.160156 L 473.664062 317.160156 L 473.664062 326.921875 L 221.761719 326.921875 Z M 221.761719 317.160156 " style=" stroke:none;fill-rule:nonzero;fill:rgb(100%,100%,100%);fill-opacity:1;" />
<path d="M 75.207031 352.203125 C 67.089844 359.699219 61.683594 370.105469 60.644531 381.769531 C 60.4375 384.101562 58.519531 385.910156 56.175781 385.910156 L 38.523438 385.910156 L 38.523438 352.203125 Z M 75.207031 352.203125 " style=" stroke:none;fill-rule:nonzero;fill:rgb(27.843137%,30.980392%,43.529412%);fill-opacity:1;" />
<path d="M 368.585938 352.203125 C 361.011719 359.199219 355.804688 368.722656 354.292969 379.4375 C 353.769531 383.144531 350.617188 385.910156 346.871094 385.910156 L 156.535156 385.910156 C 154.195312 385.910156 152.277344 384.101562 152.070312 381.769531 C 151.027344 370.109375 145.625 359.703125 137.507812 352.203125 Z M 368.585938 352.203125 " style=" stroke:none;fill-rule:nonzero;fill:rgb(27.843137%,30.980392%,43.529412%);fill-opacity:1;" />
<path d="M 473.667969 352.203125 L 473.667969 385.910156 L 452.59375 385.910156 C 448.851562 385.910156 445.699219 383.144531 445.175781 379.4375 C 443.664062 368.722656 438.453125 359.199219 430.878906 352.203125 Z M 473.667969 352.203125 " style=" stroke:none;fill-rule:nonzero;fill:rgb(27.843137%,30.980392%,43.529412%);fill-opacity:1;" />
<path d="M 158.222656 215.226562 L 224.671875 215.226562 L 224.671875 385.910156 L 158.222656 385.910156 Z M 158.222656 215.226562 " style=" stroke:none;fill-rule:nonzero;fill:rgb(19.607843%,23.137255%,35.294118%);fill-opacity:1;" />
<path d="M 144.234375 215.226562 L 144.234375 277.875 L 72.84375 277.875 L 87.398438 215.226562 Z M 144.234375 215.226562 " style=" stroke:none;fill-rule:nonzero;fill:rgb(27.843137%,30.980392%,43.529412%);fill-opacity:1;" />
<path d="M 144.234375 215.226562 L 144.234375 277.875 L 91.304688 277.875 L 105.859375 215.226562 Z M 144.234375 215.226562 " style=" stroke:none;fill-rule:nonzero;fill:rgb(19.607843%,23.137255%,35.294118%);fill-opacity:1;" />
<path d="M 239.328125 215.226562 L 301.96875 215.226562 L 301.96875 277.875 L 239.328125 277.875 Z M 239.328125 215.226562 " style=" stroke:none;fill-rule:nonzero;fill:rgb(27.843137%,30.980392%,43.529412%);fill-opacity:1;" />
<path d="M 317.441406 215.230469 L 380.085938 215.230469 L 380.085938 277.871094 L 317.441406 277.871094 Z M 317.441406 215.230469 " style=" stroke:none;fill-rule:nonzero;fill:rgb(27.843137%,30.980392%,43.529412%);fill-opacity:1;" />
<path d="M 395.554688 215.230469 L 458.199219 215.230469 L 458.199219 277.871094 L 395.554688 277.871094 Z M 395.554688 215.230469 " style=" stroke:none;fill-rule:nonzero;fill:rgb(27.843137%,30.980392%,43.529412%);fill-opacity:1;" />
<path d="M 158.222656 318.015625 L 224.671875 318.015625 L 224.671875 385.910156 L 158.222656 385.910156 Z M 158.222656 318.015625 " style=" stroke:none;fill-rule:nonzero;fill:rgb(81.568627%,96.470588%,100%);fill-opacity:1;" />
<path d="M 158.222656 352.203125 L 224.671875 352.203125 L 224.671875 385.910156 L 158.222656 385.910156 Z M 158.222656 352.203125 " style=" stroke:none;fill-rule:nonzero;fill:rgb(19.607843%,23.137255%,35.294118%);fill-opacity:1;" />
<path d="M 269.894531 215.226562 L 301.96875 215.226562 L 301.96875 277.875 L 269.894531 277.875 Z M 269.894531 215.226562 " style=" stroke:none;fill-rule:nonzero;fill:rgb(19.607843%,23.137255%,35.294118%);fill-opacity:1;" />
<path d="M 348.011719 215.226562 L 380.085938 215.226562 L 380.085938 277.875 L 348.011719 277.875 Z M 348.011719 215.226562 " style=" stroke:none;fill-rule:nonzero;fill:rgb(19.607843%,23.137255%,35.294118%);fill-opacity:1;" />
<path d="M 426.125 215.226562 L 458.195312 215.226562 L 458.195312 277.875 L 426.125 277.875 Z M 426.125 215.226562 " style=" stroke:none;fill-rule:nonzero;fill:rgb(19.607843%,23.137255%,35.294118%);fill-opacity:1;" />
<path d="M 140.0625 385.910156 C 140.0625 404.527344 124.972656 419.617188 106.355469 419.617188 C 87.738281 419.617188 72.648438 404.527344 72.648438 385.910156 C 72.648438 367.292969 87.738281 352.203125 106.355469 352.203125 C 124.972656 352.203125 140.0625 367.292969 140.0625 385.910156 Z M 140.0625 385.910156 " style=" stroke:none;fill-rule:nonzero;fill:rgb(27.843137%,30.980392%,43.529412%);fill-opacity:1;" />
<path d="M 129.085938 385.910156 C 129.085938 398.464844 118.910156 408.640625 106.355469 408.640625 C 93.804688 408.640625 83.628906 398.464844 83.628906 385.910156 C 83.628906 373.359375 93.804688 363.183594 106.355469 363.183594 C 118.910156 363.183594 129.085938 373.359375 129.085938 385.910156 Z M 129.085938 385.910156 " style=" stroke:none;fill-rule:nonzero;fill:rgb(19.607843%,23.137255%,35.294118%);fill-opacity:1;" />
<path d="M 140.066406 385.910156 C 140.066406 404.527344 124.972656 419.621094 106.355469 419.621094 L 106.355469 352.203125 C 124.972656 352.203125 140.066406 367.289062 140.066406 385.910156 Z M 140.066406 385.910156 " style=" stroke:none;fill-rule:nonzero;fill:rgb(19.607843%,23.137255%,35.294118%);fill-opacity:1;" />
<path d="M 121.601562 385.910156 C 121.601562 377.492188 114.777344 370.664062 106.355469 370.664062 C 97.933594 370.664062 91.109375 377.492188 91.109375 385.910156 C 91.109375 394.328125 97.933594 401.152344 106.355469 401.152344 C 114.777344 401.152344 121.601562 394.328125 121.601562 385.910156 Z M 121.601562 385.910156 " style=" stroke:none;fill-rule:nonzero;fill:rgb(100%,100%,100%);fill-opacity:1;" />
<path d="M 121.605469 385.910156 C 121.605469 394.332031 114.777344 401.152344 106.355469 401.152344 L 106.355469 370.667969 C 114.777344 370.664062 121.605469 377.492188 121.605469 385.910156 Z M 121.605469 385.910156 " style=" stroke:none;fill-rule:nonzero;fill:rgb(81.568627%,96.470588%,100%);fill-opacity:1;" />
<path d="M 113.730469 385.910156 C 113.730469 389.984375 110.429688 393.285156 106.355469 393.285156 C 102.28125 393.285156 98.980469 389.984375 98.980469 385.910156 C 98.980469 381.835938 102.28125 378.535156 106.355469 378.535156 C 110.429688 378.535156 113.730469 381.835938 113.730469 385.910156 Z M 113.730469 385.910156 " style=" stroke:none;fill-rule:nonzero;fill:rgb(39.607843%,69.803922%,100%);fill-opacity:1;" />
<path d="M 433.441406 385.910156 C 433.441406 404.527344 418.351562 419.617188 399.734375 419.617188 C 381.117188 419.617188 366.027344 404.527344 366.027344 385.910156 C 366.027344 367.292969 381.117188 352.203125 399.734375 352.203125 C 418.351562 352.203125 433.441406 367.292969 433.441406 385.910156 Z M 433.441406 385.910156 " style=" stroke:none;fill-rule:nonzero;fill:rgb(27.843137%,30.980392%,43.529412%);fill-opacity:1;" />
<path d="M 422.464844 385.910156 C 422.464844 398.464844 412.289062 408.640625 399.734375 408.640625 C 387.183594 408.640625 377.007812 398.464844 377.007812 385.910156 C 377.007812 373.359375 387.183594 363.183594 399.734375 363.183594 C 412.289062 363.183594 422.464844 373.359375 422.464844 385.910156 Z M 422.464844 385.910156 " style=" stroke:none;fill-rule:nonzero;fill:rgb(19.607843%,23.137255%,35.294118%);fill-opacity:1;" />
<path d="M 433.445312 385.910156 C 433.445312 404.527344 418.351562 419.621094 399.734375 419.621094 L 399.734375 352.203125 C 418.351562 352.203125 433.445312 367.289062 433.445312 385.910156 Z M 433.445312 385.910156 " style=" stroke:none;fill-rule:nonzero;fill:rgb(19.607843%,23.137255%,35.294118%);fill-opacity:1;" />
<path d="M 414.980469 385.910156 C 414.980469 377.492188 408.15625 370.664062 399.734375 370.664062 C 391.3125 370.664062 384.488281 377.492188 384.488281 385.910156 C 384.488281 394.328125 391.3125 401.152344 399.734375 401.152344 C 408.15625 401.152344 414.980469 394.328125 414.980469 385.910156 Z M 414.980469 385.910156 " style=" stroke:none;fill-rule:nonzero;fill:rgb(100%,100%,100%);fill-opacity:1;" />
<path d="M 414.984375 385.910156 C 414.984375 394.332031 408.15625 401.152344 399.734375 401.152344 L 399.734375 370.667969 C 408.15625 370.664062 414.984375 377.492188 414.984375 385.910156 Z M 414.984375 385.910156 " style=" stroke:none;fill-rule:nonzero;fill:rgb(81.568627%,96.470588%,100%);fill-opacity:1;" />
<path d="M 407.109375 385.910156 C 407.109375 389.984375 403.808594 393.285156 399.734375 393.285156 C 395.660156 393.285156 392.359375 389.984375 392.359375 385.910156 C 392.359375 381.835938 395.660156 378.535156 399.734375 378.535156 C 403.808594 378.535156 407.109375 381.835938 407.109375 385.910156 Z M 407.109375 385.910156 " style=" stroke:none;fill-rule:nonzero;fill:rgb(39.607843%,69.803922%,100%);fill-opacity:1;" />
<path d="M 56.5 322.042969 C 56.5 331.96875 48.453125 340.015625 38.523438 340.015625 L 38.523438 304.066406 C 48.453125 304.066406 56.5 312.113281 56.5 322.042969 Z M 56.5 322.042969 " style=" stroke:none;fill-rule:nonzero;fill:rgb(100%,100%,100%);fill-opacity:1;" />
<path d="M 123.828125 291.1875 L 144.234375 291.1875 L 144.234375 300.566406 L 123.828125 300.566406 Z M 123.828125 291.1875 " style=" stroke:none;fill-rule:nonzero;fill:rgb(19.607843%,23.137255%,35.294118%);fill-opacity:1;" />
<path d="M 186.578125 146.667969 C 186.578125 146.601562 186.582031 146.535156 186.582031 146.46875 C 186.582031 134.300781 176.714844 124.433594 164.546875 124.433594 C 161.652344 124.433594 158.894531 124.996094 156.363281 126.007812 C 151.476562 117.253906 142.128906 111.332031 131.390625 111.332031 C 117.445312 111.332031 105.839844 121.316406 103.316406 134.527344 C 102.566406 134.417969 101.796875 134.359375 101.015625 134.359375 C 93.433594 134.359375 87.082031 139.609375 85.382812 146.667969 Z M 186.578125 146.667969 " style=" stroke:none;fill-rule:nonzero;fill:rgb(100%,100%,100%);fill-opacity:1;" />
<path d="M 165.074219 146.667969 C 165.074219 146.632812 165.078125 146.59375 165.078125 146.554688 C 165.078125 139.558594 159.40625 133.882812 152.40625 133.882812 C 150.746094 133.882812 149.160156 134.207031 147.703125 134.789062 C 144.894531 129.757812 139.519531 126.351562 133.34375 126.351562 C 125.324219 126.351562 118.652344 132.09375 117.199219 139.6875 C 116.769531 139.625 116.328125 139.59375 115.878906 139.59375 C 111.519531 139.59375 107.867188 142.609375 106.890625 146.671875 L 165.074219 146.671875 Z M 165.074219 146.667969 " style=" stroke:none;fill-rule:nonzero;fill:rgb(81.568627%,96.470588%,100%);fill-opacity:1;" />
<path d="M 431.847656 146.667969 C 431.847656 146.601562 431.851562 146.535156 431.851562 146.46875 C 431.851562 134.300781 421.984375 124.433594 409.8125 124.433594 C 406.921875 124.433594 404.164062 124.996094 401.632812 126.007812 C 396.746094 117.253906 387.398438 111.332031 376.660156 111.332031 C 362.714844 111.332031 351.109375 121.316406 348.585938 134.527344 C 347.835938 134.417969 347.066406 134.359375 346.285156 134.359375 C 338.703125 134.359375 332.351562 139.609375 330.652344 146.667969 Z M 431.847656 146.667969 " style=" stroke:none;fill-rule:nonzero;fill:rgb(100%,100%,100%);fill-opacity:1;" />
<path d="M 410.34375 146.667969 C 410.34375 146.632812 410.347656 146.59375 410.347656 146.554688 C 410.347656 139.558594 404.675781 133.882812 397.675781 133.882812 C 396.015625 133.882812 394.429688 134.207031 392.972656 134.789062 C 390.164062 129.757812 384.789062 126.351562 378.613281 126.351562 C 370.59375 126.351562 363.921875 132.09375 362.46875 139.6875 C 362.039062 139.625 361.597656 139.59375 361.148438 139.59375 C 356.785156 139.59375 353.136719 142.609375 352.160156 146.671875 L 410.34375 146.671875 Z M 410.34375 146.667969 " style=" stroke:none;fill-rule:nonzero;fill:rgb(81.568627%,96.470588%,100%);fill-opacity:1;" />
<path d="M 306.59375 75.382812 C 306.59375 75.3125 306.597656 75.25 306.597656 75.183594 C 306.597656 63.011719 296.730469 53.144531 284.5625 53.144531 C 281.671875 53.144531 278.910156 53.710938 276.382812 54.722656 C 271.492188 45.96875 262.144531 40.042969 251.40625 40.042969 C 237.464844 40.042969 225.855469 50.027344 223.335938 63.238281 C 222.582031 63.132812 221.8125 63.070312 221.03125 63.070312 C 213.449219 63.070312 207.097656 68.320312 205.402344 75.382812 Z M 306.59375 75.382812 " style=" stroke:none;fill-rule:nonzero;fill:rgb(100%,100%,100%);fill-opacity:1;" />
<path d="M 285.09375 75.382812 C 285.09375 75.34375 285.09375 75.304688 285.09375 75.265625 C 285.09375 68.269531 279.421875 62.597656 272.425781 62.597656 C 270.761719 62.597656 269.175781 62.917969 267.722656 63.503906 C 264.910156 58.46875 259.535156 55.0625 253.359375 55.0625 C 245.34375 55.0625 238.667969 60.804688 237.21875 68.398438 C 236.785156 68.339844 236.34375 68.304688 235.894531 68.304688 C 231.535156 68.304688 227.882812 71.320312 226.90625 75.382812 Z M 285.09375 75.382812 " style=" stroke:none;fill-rule:nonzero;fill:rgb(81.568627%,96.470588%,100%);fill-opacity:1;" />
</g>
</svg>