<svg width="38" height="37" viewBox="0 0 38 37" fill="none" xmlns="http://www.w3.org/2000/svg">
<path d="M18.3976 33.5085C22.0103 33.4987 25.667 32.2438 28.3489 29.6196C26.0106 28.6327 23.5764 27.9221 21.4345 26.5301C21.4345 25.9889 21.4345 25.5373 21.4345 25.0844C21.4345 24.6017 21.4345 24.1181 21.4345 23.7279C23.8508 21.5421 24.0715 21.1362 24.6337 17.9183C24.8501 17.7501 25.0716 17.5772 25.2667 17.4253C25.3653 16.263 25.4587 15.1656 25.5522 14.0656C25.2893 13.8902 25.0827 13.7523 24.8936 13.6255C25.1228 8.79844 21.5348 6.71376 18.3971 6.66937V6.66895C18.3937 6.66895 18.3903 6.66937 18.3869 6.66937C18.3839 6.66937 18.3805 6.66895 18.3771 6.66895V6.66937C15.2398 6.71376 11.6514 8.79844 11.8806 13.6255C11.6915 13.7523 11.4849 13.8902 11.222 14.0656C11.3155 15.1656 11.4089 16.263 11.5075 17.4253C11.7026 17.5772 11.9246 17.7501 12.1406 17.9183C12.7031 21.1362 12.9234 21.5421 15.3401 23.7279C15.3401 24.1181 15.3401 24.6017 15.3401 25.0844C15.3401 25.5373 15.3401 25.9889 15.3401 26.5301C13.1978 27.9225 10.764 28.6327 8.42578 29.6196C11.1076 32.2438 14.7643 33.4987 18.3771 33.5085C18.3805 33.5085 18.3839 33.5085 18.3869 33.5085C18.3907 33.5085 18.3941 33.5085 18.3976 33.5085Z" fill="white"/>
<path d="M18.5175 37C18.1329 37 17.7453 36.9885 17.365 36.965L17.4931 34.8807C18.1747 34.9226 18.879 34.9226 19.5577 34.8799L19.6879 36.9633C19.3029 36.9872 18.9089 37 18.5175 37ZM15.0584 36.6773C14.2991 36.5339 13.541 36.3405 12.8047 36.1019L13.4484 34.1154C14.101 34.3271 14.7729 34.4979 15.446 34.6255L15.0584 36.6773ZM21.9941 36.6739L21.6044 34.6221C22.2771 34.4945 22.9489 34.322 23.6016 34.1103L24.2469 36.096C23.5111 36.3354 22.7534 36.5296 21.9941 36.6739ZM10.6415 35.2457C9.94276 34.917 9.25725 34.5406 8.60334 34.1244L9.72251 32.362C10.3026 32.7303 10.9108 33.0646 11.5306 33.3565L10.6415 35.2457ZM26.4093 35.2384L25.5185 33.3501C26.137 33.0582 26.7444 32.7231 27.3236 32.3556L28.444 34.1163C27.7918 34.5316 27.1072 34.9089 26.4093 35.2384ZM6.72269 32.7581C6.12768 32.2664 5.55743 31.7311 5.02772 31.1681L6.54854 29.7365C7.01849 30.2368 7.52515 30.7118 8.05315 31.1489L6.72269 32.7581ZM30.323 32.7491L28.9912 31.1408C29.5192 30.7033 30.0255 30.2278 30.4946 29.7275L32.0162 31.1574C31.4882 31.7204 30.9184 32.2566 30.323 32.7491ZM3.54361 29.3792C3.08817 28.7539 2.66774 28.0945 2.29511 27.4192L4.12325 26.4106C4.45362 27.009 4.82625 27.5942 5.23047 28.1495L3.54361 29.3792ZM33.4995 29.3669L31.8109 28.1388C32.2147 27.5844 32.5869 26.9983 32.9181 26.3973L34.7471 27.4043C34.3737 28.0821 33.9541 28.7424 33.4995 29.3669ZM1.30271 25.3179C1.01758 24.5999 0.775137 23.8555 0.582206 23.1069L2.60414 22.5865C2.77487 23.2511 2.98957 23.9106 3.24269 24.5466L1.30271 25.3179ZM35.7383 25.3004L33.7974 24.5308C34.0501 23.8939 34.2644 23.2336 34.4343 22.569L36.4571 23.0868C36.265 23.8363 36.0238 24.5807 35.7383 25.3004ZM0.146405 20.8224C0.04994 20.0592 0.000853675 19.2794 0 18.5038L2.08809 18.5013C2.08894 19.1902 2.13248 19.8838 2.21828 20.5616L0.146405 20.8224ZM36.8903 20.8019L34.8184 20.5437C34.9029 19.865 34.946 19.1718 34.946 18.4834V18.4441H37.0341V18.4834C37.0341 19.2572 36.9863 20.0375 36.8903 20.8019ZM2.21358 16.4414L0.14171 16.1848C0.236895 15.4157 0.381593 14.6469 0.572389 13.8991L2.5956 14.4147C2.42657 15.0776 2.29809 15.7597 2.21358 16.4414ZM34.8137 16.3867C34.7271 15.7059 34.5965 15.0247 34.4253 14.3614L36.4468 13.8394C36.6402 14.5872 36.7879 15.3555 36.8848 16.1229L34.8137 16.3867ZM3.22988 12.4521L1.2882 11.6855C1.57204 10.9667 1.90455 10.2586 2.27718 9.57994L4.10746 10.5847C3.77666 11.1866 3.48129 11.8149 3.22988 12.4521ZM33.7842 12.4018C33.5315 11.7666 33.2349 11.14 32.9024 10.5399L34.7288 9.52872C35.104 10.2057 35.4386 10.9125 35.7242 11.6292L33.7842 12.4018ZM5.21254 8.84237L3.52312 7.61564C3.97685 6.99032 4.47497 6.3872 5.00382 5.82335L6.52677 7.25112C6.05811 7.7518 5.61548 8.28705 5.21254 8.84237ZM31.7926 8.80182C31.3884 8.24821 30.9444 7.71466 30.4736 7.21526L31.9928 5.7828C32.5229 6.34537 33.0227 6.94678 33.4782 7.57039L31.7926 8.80182ZM8.02924 5.83701L6.69538 4.23039C7.29039 3.73654 7.92211 3.27555 8.57261 2.86067L9.69476 4.62094C9.11768 4.98931 8.55724 5.39822 8.02924 5.83701ZM28.9669 5.80499C28.4376 5.36834 27.8755 4.96071 27.2963 4.59363L28.4137 2.82993C29.0659 3.24311 29.6998 3.70239 30.2957 4.19453L28.9669 5.80499ZM11.4994 3.62343L10.6065 1.73638C11.3065 1.40558 12.0334 1.11618 12.7671 0.876298L13.4151 2.86109C12.7642 3.07366 12.1196 3.33019 11.4994 3.62343ZM25.4873 3.60123C24.8659 3.3097 24.22 3.05488 23.5683 2.84487L24.2094 0.857944C24.9448 1.09527 25.6734 1.38253 26.3743 1.71162L25.4873 3.60123ZM15.4114 2.34675L15.0196 0.295798C15.7768 0.1511 16.5528 0.0529278 17.3253 0.00341466L17.4581 2.08681C16.7717 2.1312 16.0832 2.21828 15.4114 2.34675ZM21.5694 2.33694C20.8971 2.21059 20.2086 2.12565 19.5223 2.08425L19.6482 0C20.4216 0.0465253 21.1972 0.142564 21.9548 0.284701L21.5694 2.33694Z" fill="white"/>
</svg>
