<?xml version="1.0"?>
<svg xmlns="http://www.w3.org/2000/svg" id="Layer_5" enable-background="new 0 0 64 64" height="512px" viewBox="0 0 64 64" width="512px" class=""><g><path d="m39.131 40.829c-.285-.117-.574-.222-.869-.315l-1.338 4.281 2.897-.58z" data-original="#000000" class="active-path" data-old_color="#000000" fill="#FFFFFF"/><path d="m36.3 40.088c-.23-.028-.462-.049-.695-.062l-2.388 4.776 1.227 1.227z" data-original="#000000" class="active-path" data-old_color="#000000" fill="#FFFFFF"/><path d="m25.739 40.514c-.295.093-.585.198-.869.315l-.69 3.386 2.897.58z" data-original="#000000" class="active-path" data-old_color="#000000" fill="#FFFFFF"/><path d="m15.054 16.468-4.24-4.241c-4.629 4.957-7.542 11.531-7.789 18.773h6c.241-5.589 2.483-10.666 6.029-14.532z" data-original="#000000" class="active-path" data-old_color="#000000" fill="#FFFFFF"/><path d="m31 9.025v-6c-7.242.247-13.816 3.159-18.772 7.788l4.24 4.241c3.865-3.546 8.943-5.788 14.532-6.029z" data-original="#000000" class="active-path" data-old_color="#000000" fill="#FFFFFF"/><path d="m29.594 52.851-1.674-5.357-1.633 1.633 2.389 3.584c.306.049.608.105.918.14z" data-original="#000000" class="active-path" data-old_color="#000000" fill="#FFFFFF"/><path d="m34 38.764v-1.059c-.634.19-1.305.295-2 .295s-1.366-.105-2-.295v1.059l2 4z" data-original="#000000" class="active-path" data-old_color="#000000" fill="#FFFFFF"/><path d="m28.395 40.027c-.233.013-.465.034-.695.062l1.857 5.941 1.227-1.227z" data-original="#000000" class="active-path" data-old_color="#000000" fill="#FFFFFF"/><path d="m28.121 23c.822 0 1.626.333 2.207.914l1.086 1.086h4.586c1.654 0 3 1.346 3 3v3c0 .637-.093 1.251-.253 1.838 1.379-.909 2.253-2.452 2.253-4.163v-3.675c0-4.411-3.589-8-8-8h-1.272c-2.137 0-4.146.832-5.656 2.343l-.531.531-.224.075c-1.386.461-2.317 1.753-2.317 3.213v5.513c0 1.711.874 3.253 2.253 4.163-.16-.587-.253-1.201-.253-1.838v-4.879c0-1.721 1.4-3.121 3.121-3.121z" data-original="#000000" class="active-path" data-old_color="#000000" fill="#FFFFFF"/><path d="m32 36c2.757 0 5-2.243 5-5v-3c0-.551-.448-1-1-1h-5.414l-1.672-1.672c-.209-.208-.498-.328-.793-.328-.618 0-1.121.503-1.121 1.121v4.879c0 2.757 2.243 5 5 5z" data-original="#000000" class="active-path" data-old_color="#000000" fill="#FFFFFF"/><path d="m37.713 49.127-1.633-1.633-1.674 5.357c.31-.036.613-.092.918-.141z" data-original="#000000" class="active-path" data-old_color="#000000" fill="#FFFFFF"/><path d="m21.82 45.784.747-3.669c-1.959 1.422-3.449 3.474-4.134 5.886 2.147 1.824 4.659 3.229 7.416 4.075l-2.136-3.204 2.259-2.259z" data-original="#000000" class="active-path" data-old_color="#000000" fill="#FFFFFF"/><path d="m45.567 48.001c-.685-2.413-2.175-4.464-4.134-5.886l.747 3.669-4.151.83 2.259 2.259-2.136 3.204c2.756-.847 5.268-2.252 7.415-4.076z" data-original="#000000" class="active-path" data-old_color="#000000" fill="#FFFFFF"/><path d="m32 46.414-1.77 1.77 1.501 4.802c.09.001.178.014.269.014s.179-.013.269-.014l1.501-4.802z" data-original="#000000" class="active-path" data-old_color="#000000" fill="#FFFFFF"/><path d="m33 54.975v6c7.242-.247 13.816-3.159 18.772-7.788l-4.24-4.24c-3.865 3.545-8.943 5.787-14.532 6.028zm2.354 3.818-.248-1.984c.639-.08 1.277-.185 1.897-.311l.398 1.961c-.669.136-1.358.248-2.047.334zm4.066-.825-.549-1.924c.614-.175 1.229-.376 1.826-.599l.697 1.875c-.646.241-1.31.458-1.974.648zm3.892-1.445-.84-1.814c.581-.27 1.158-.563 1.713-.874l.977 1.746c-.6.335-1.223.652-1.85.942zm3.619-2.025-1.105-1.666c.529-.352 1.054-.729 1.559-1.125l1.232 1.576c-.547.427-1.114.836-1.686 1.215z" data-original="#000000" class="active-path" data-old_color="#000000" fill="#FFFFFF"/><path d="m48.946 47.532 4.24 4.24c4.629-4.957 7.541-11.531 7.788-18.772h-6c-.24 5.589-2.482 10.667-6.028 14.532z" data-original="#000000" class="active-path" data-old_color="#000000" fill="#FFFFFF"/><path d="m11 32c0 5.612 2.226 10.705 5.825 14.477 1.747-4.757 6.07-8.056 11.175-8.439v-1.301c-.449-.314-.857-.681-1.22-1.089l-.994-.331c-2.862-.955-4.786-3.624-4.786-6.642v-5.513c0-2.24 1.377-4.23 3.451-5.027l.206-.206c1.889-1.888 4.4-2.929 7.071-2.929h1.272c5.514 0 10 4.486 10 10v3.675c0 3.018-1.924 5.687-4.786 6.64l-.994.331c-.364.408-.771.775-1.22 1.089v1.301c5.104.383 9.427 3.683 11.175 8.439 3.599-3.77 5.825-8.863 5.825-14.475 0-11.58-9.421-21-21-21s-21 9.42-21 21zm2.471-4.221 1.951.442c-.142.622-.249 1.257-.318 1.889l-1.988-.221c.077-.705.197-1.415.355-2.11zm2.729 14.778c-2.094-3.127-3.2-6.778-3.2-10.557h2c0 3.381.989 6.646 2.862 9.443z" data-original="#000000" class="active-path" data-old_color="#000000" fill="#FFFFFF"/><path d="m51.772 10.813c-4.956-4.629-11.53-7.541-18.772-7.788v6c5.589.24 10.667 2.483 14.532 6.029z" data-original="#000000" class="active-path" data-old_color="#000000" fill="#FFFFFF"/><path d="m54.975 31h6c-.247-7.242-3.159-13.816-7.788-18.773l-4.24 4.241c3.545 3.866 5.787 8.943 6.028 14.532zm3.818-2.354-1.984.247c-.08-.638-.184-1.277-.311-1.898l1.961-.397c.136.67.248 1.359.334 2.048zm-.825-4.066-1.924.549c-.175-.614-.376-1.229-.599-1.826l1.875-.697c.241.645.458 1.31.648 1.974zm-1.445-3.892-1.814.842c-.271-.584-.564-1.161-.874-1.714l1.746-.976c.334.597.65 1.219.942 1.848zm-3.24-5.304c.428.547.836 1.114 1.215 1.684l-1.666 1.106c-.351-.528-.729-1.052-1.125-1.558z" data-original="#000000" class="active-path" data-old_color="#000000" fill="#FFFFFF"/><path d="m9.025 33h-6c.247 7.242 3.159 13.816 7.788 18.772l4.24-4.24c-3.545-3.865-5.787-8.943-6.028-14.532zm-3.818 2.354 1.984-.248c.08.639.185 1.277.311 1.897l-1.961.398c-.136-.669-.248-1.358-.334-2.047zm.825 4.066 1.924-.549c.175.614.376 1.229.599 1.826l-1.875.698c-.241-.647-.458-1.311-.648-1.975zm1.445 3.892 1.814-.84c.27.581.563 1.158.874 1.713l-1.746.977c-.335-.6-.652-1.223-.942-1.85zm3.24 5.304c-.427-.546-.836-1.113-1.215-1.686l1.666-1.105c.352.529.729 1.054 1.125 1.559z" data-original="#000000" class="active-path" data-old_color="#000000" fill="#FFFFFF"/><path d="m12.228 53.187c4.957 4.629 11.531 7.541 18.772 7.788v-6c-5.589-.24-10.667-2.482-14.532-6.028z" data-original="#000000" class="active-path" data-old_color="#000000" fill="#FFFFFF"/></g> </svg>
