<svg width="54" height="55" viewBox="0 0 54 55" fill="none" xmlns="http://www.w3.org/2000/svg">
<path d="M52.9303 52.4508H50.4939V19.7684C50.4939 19.2643 50.1578 18.9283 49.6537 18.9283H43.6045V14.0553C43.6885 13.9713 43.3525 13.2992 43.1844 13.3832L37.6393 10.6947V7.58607H44.2766C44.7807 7.58607 45.1168 7.25 45.1168 6.7459V1.20082C45.1168 0.696722 44.7807 0.360657 44.2766 0.360657H36.7992C36.2951 0.360657 35.959 0.696722 35.959 1.20082V9.77049L27.2213 5.56967C26.9693 5.48566 26.7172 5.48566 26.4652 5.56967L10.5861 13.3832C10.418 13.3832 9.99795 13.9713 10.166 14.0553V18.9283H4.1168C3.6127 18.9283 3.27664 19.2643 3.27664 19.7684V52.4508H0.840164C0.336066 52.4508 0 52.7869 0 53.291C0 53.7951 0.336066 54.1311 0.840164 54.1311H52.9303C53.4344 54.1311 53.7705 53.7951 53.7705 53.291C53.7705 52.7869 53.4344 52.4508 52.9303 52.4508ZM37.6393 2.04098H43.4365V5.90574H37.6393V2.04098ZM26.8852 7.25L39.1516 13.2992H14.6189L26.8852 7.25ZM11.8463 14.8955H41.9242V18.9283H11.8463V14.8955ZM26.0451 52.4508H20.8361V39.5123H26.0451V52.4508ZM32.9344 52.4508H27.7254V39.5123H32.9344V52.4508ZM48.8135 52.4508H34.6148V38.6721C34.6148 38.168 34.2787 37.832 33.7746 37.832H19.9959C19.4918 37.832 19.1557 38.168 19.1557 38.6721V52.4508H4.95697V20.6086H48.7295V52.4508H48.8135Z" fill="black"/>
</svg>
