<svg width="47" height="47" viewBox="0 0 47 47" fill="none" xmlns="http://www.w3.org/2000/svg">
<path d="M39.1667 0H7.83333C3.44667 0 0 3.44667 0 7.83333V39.1667C0 43.5533 3.44667 47 7.83333 47H39.1667C43.5533 47 47 43.5533 47 39.1667V7.83333C47 3.44667 43.5533 0 39.1667 0ZM31.3333 20.3667C31.3333 24.7533 27.8867 28.2 23.5 28.2C19.1133 28.2 15.6667 24.7533 15.6667 20.3667V18.8C15.6667 14.4133 19.1133 10.9667 23.5 10.9667C27.8867 10.9667 31.3333 14.4133 31.3333 18.8V20.3667ZM15.98 28.3567C20.21 32.2733 26.79 32.2733 31.02 28.3567C34.78 28.9833 37.6 32.2733 37.6 36.0333V40.7333H9.4V36.0333C9.4 32.2733 12.22 28.9833 15.98 28.3567ZM3.13333 7.83333C3.13333 5.17 5.17 3.13333 7.83333 3.13333H39.1667C41.83 3.13333 43.8667 5.17 43.8667 7.83333V36.0333C43.8667 38.07 42.6133 39.7933 40.7333 40.42V36.0333C40.7333 31.3333 37.6 27.1033 33.0567 25.6933C33.9967 24.1267 34.4667 22.2467 34.4667 20.3667V18.8C34.4667 12.69 29.61 7.83333 23.5 7.83333C17.39 7.83333 12.5333 12.69 12.5333 18.8V20.3667C12.5333 22.2467 13.0033 23.97 13.9433 25.6933C9.4 27.1033 6.26667 31.3333 6.26667 36.0333V40.42C4.38667 39.7933 3.13333 37.9133 3.13333 36.0333V7.83333Z" fill="#2A2D33"/>
</svg>
