<svg height="472pt" viewBox="0 -36 472 472" width="472pt" xmlns="http://www.w3.org/2000/svg"><path d="m344 248c-4.417969 0-8-3.582031-8-8v-72c0-4.417969 3.582031-8 8-8h56l-27.28125-27.28125c-3.007812-3.019531-7.09375-4.71875-11.359375-4.71875h-129.359375l-1.121094-.160156v.160156h-158.878906v192c.027344 8.824219 7.175781 15.972656 16 16h368c8.824219-.027344 15.972656-7.175781 16-16v-72zm0 0" fill="#3d9ae2"/><path d="m472 320c-.027344 8.824219-7.175781 15.972656-16 16h-368c-8.824219-.027344-15.972656-7.175781-16-16v-192h16v176c.027344 8.824219 7.175781 15.972656 16 16zm0 0" fill="#1e81ce"/><path d="m232 112c-.007812 5.300781-.382812 10.589844-1.121094 15.839844-7.882812 55.179687-55.140625 96.164062-110.878906 96.160156-16.21875.039062-32.25-3.484375-46.960938-10.320312-50.511718-23.328126-76.238281-80.199219-60.414062-133.539063 15.828125-53.339844 68.410156-86.972656 123.472656-78.976563 55.058594 7.996094 95.902344 55.199219 95.902344 110.835938zm0 0" fill="#ffd422"/><path d="m206.960938 182.640625c-21.285157 26.171875-53.226563 41.363281-86.960938 41.359375-16.21875.039062-32.25-3.484375-46.960938-10.320312-35.070312-16.171876-59.324218-49.289063-64.15625-87.605469-4.832031-38.320313 10.4375-76.421875 40.398438-100.792969-36.34375 44.546875-33.027344 109.382812 7.664062 149.996094 40.695313 40.613281 105.539063 43.792968 150.015626 7.363281zm0 0" fill="#ebbf00"/><path d="m472 232v16h-128c-4.417969 0-8-3.582031-8-8v-72c0-4.417969 3.582031-8 8-8h56zm0 0" fill="#e6e7e8"/><path d="m472 232v16h-128c-4.417969 0-8-3.582031-8-8v-72c0-4.417969 3.582031-8 8-8h8v56c.027344 8.824219 7.175781 15.972656 16 16zm0 0" fill="#bcbec0"/><path d="m208 336c0 26.507812-21.492188 48-48 48s-48-21.492188-48-48c0-26.511719 21.492188-48 48-48s48 21.488281 48 48zm0 0" fill="#787680"/><path d="m432 336c0 26.507812-21.492188 48-48 48s-48-21.492188-48-48c0-26.511719 21.492188-48 48-48s48 21.488281 48 48zm0 0" fill="#787680"/><path d="m136 112c0 8.835938-7.164062 16-16 16s-16-7.164062-16-16 7.164062-16 16-16 16 7.164062 16 16zm0 0" fill="#ff9811"/><path d="m152 328h16v16h-16zm0 0" fill="#57565c"/><path d="m376 328h16v16h-16zm0 0" fill="#57565c"/><path d="m0 384h472v16h-472zm0 0" fill="#57565c"/><g fill="#1e81ce"><path d="m0 304h40v16h-40zm0 0"/><path d="m16 272h24v16h-24zm0 0"/><path d="m24 240h16v16h-16zm0 0"/><path d="m264 128h16v128h-16zm0 0"/><path d="m304 272h32v16h-32zm0 0"/></g><path d="m112 48h16v48h-16zm0 0" fill="#ee8700"/><path d="m72 104h32v16h-32zm0 0" fill="#ee8700"/><path d="m120 136c-13.253906 0-24-10.746094-24-24s10.746094-24 24-24 24 10.746094 24 24-10.746094 24-24 24zm0-32c-4.417969 0-8 3.582031-8 8s3.582031 8 8 8 8-3.582031 8-8-3.582031-8-8-8zm0 0" fill="#cc7400"/><path d="m24 104h16v16h-16zm0 0" fill="#cc7400"/><path d="m112 192h16v16h-16zm0 0" fill="#cc7400"/><path d="m200 104h16v16h-16zm0 0" fill="#cc7400"/><path d="m112 16h16v16h-16zm0 0" fill="#cc7400"/></svg>