<svg height="512pt" viewBox="0 0 512 512" width="512pt" xmlns="http://www.w3.org/2000/svg" xmlns:xlink="http://www.w3.org/1999/xlink"><linearGradient id="a" gradientUnits="userSpaceOnUse" x1="74.9807" x2="437.0193" y1="74.9807" y2="437.0193"><stop offset="0" stop-color="#ffe361"/><stop offset="1" stop-color="#ffc454"/></linearGradient><linearGradient id="b"><stop offset="0" stop-color="#4f5669"/><stop offset="1" stop-color="#202940"/></linearGradient><linearGradient id="c" gradientUnits="userSpaceOnUse" x1="166.7076" x2="345.2924" xlink:href="#b" y1="264.0428" y2="442.6275"/><linearGradient id="d"><stop offset="0" stop-color="#9097a8"/><stop offset="1" stop-color="#384055"/></linearGradient><linearGradient id="e" gradientUnits="userSpaceOnUse" x1="175.776" x2="336.224" xlink:href="#d" y1="273.1102" y2="433.5582"/><linearGradient id="f" gradientUnits="userSpaceOnUse" x1="166.7076" x2="345.2924" xlink:href="#b" y1="69.3724" y2="247.9572"/><linearGradient id="g" gradientUnits="userSpaceOnUse" x1="175.776" x2="336.224" xlink:href="#d" y1="78.4399" y2="238.8878"/><linearGradient id="h" gradientUnits="userSpaceOnUse" x1="166.7076" x2="345.2924" xlink:href="#d" y1="166.7076" y2="345.2924"/><linearGradient id="i" gradientUnits="userSpaceOnUse" x1="175.7761" x2="336.2239" xlink:href="#b" y1="175.7752" y2="336.2231"/><path d="m512 256c0 141.386719-114.613281 256-256 256s-256-114.613281-256-256 114.613281-256 256-256 256 114.613281 256 256zm0 0" fill="url(#a)"/><path d="m402 332.042969c0-15.054688-12.320312-27.375-27.375-27.375l-118.625-17.109375-118.625 17.109375c-15.054688 0-27.375 12.316406-27.375 27.375v6.84375l38.78125 14.449219-38.78125 14.445312v6.847656c0 15.054688 12.320312 27.375 27.375 27.375h237.25c15.054688 0 27.375-12.320312 27.375-27.375v-6.847656l-38.78125-14.445312 38.78125-14.449219zm0 0" fill="url(#c)"/><path d="m374.738281 338.886719v-17.109375h-17.109375v17.109375h-25.148437v-17.109375h-17.109375v17.109375h-25.152344v-17.109375h-17.109375v17.109375h-34.21875v-17.109375h-17.109375v17.109375h-25.152344v-17.109375h-17.109375v17.109375h-25.148437v-17.109375h-17.109375v17.109375h-27.261719v28.894531h27.261719v17.109375h17.109375v-17.109375h25.148437v17.109375h17.109375v-17.109375h25.152344v17.109375h17.109375v-17.109375h34.21875v17.109375h17.109375v-17.109375h25.152344v17.109375h17.109375v-17.109375h25.148437v17.109375h17.109375v-17.109375h27.261719v-28.894531zm0 0" fill="url(#e)"/><path d="m402 137.371094c0-15.054688-12.320312-27.375-27.375-27.375h-237.25c-15.054688 0-27.375 12.320312-27.375 27.375v6.84375l38.78125 14.449218-38.78125 14.449219v6.84375c0 15.058594 12.320312 27.375 27.375 27.375l118.625 17.109375 118.625-17.109375c15.054688 0 27.375-12.316406 27.375-27.375v-6.84375l-38.78125-14.449219 38.78125-14.449218zm0 0" fill="url(#f)"/><path d="m374.738281 144.214844v-17.109375h-17.109375v17.109375h-25.148437v-17.109375h-17.109375v17.109375h-25.152344v-17.109375h-17.109375v17.109375h-34.21875v-17.109375h-17.109375v17.109375h-25.152344v-17.109375h-17.109375v17.109375h-25.148437v-17.109375h-17.109375v17.109375h-27.261719v28.898437h27.261719v17.109375h17.109375v-17.109375h25.148437v17.109375h17.109375v-17.109375h25.152344v17.109375h17.109375v-17.109375h34.21875v17.109375h17.109375v-17.109375h25.152344v17.109375h17.109375v-17.109375h25.148437v17.109375h17.109375v-17.109375h27.261719v-28.898437zm0 0" fill="url(#g)"/><path d="m402 234.707031c0-15.054687-12.320312-27.375-27.375-27.375h-237.25c-15.054688 0-27.375 12.320313-27.375 27.375v6.84375l38.78125 14.449219-38.78125 14.445312v6.847657c0 15.054687 12.320312 27.375 27.375 27.375h237.25c15.054688 0 27.375-12.320313 27.375-27.375v-6.847657l-38.78125-14.445312 38.78125-14.449219zm0 0" fill="url(#h)"/><path d="m374.738281 241.550781v-17.109375h-17.109375v17.109375h-25.148437v-17.109375h-17.109375v17.109375h-25.152344v-17.109375h-17.109375v17.109375h-34.21875v-17.109375h-17.109375v17.109375h-25.152344v-17.109375h-17.109375v17.109375h-25.148437v-17.109375h-17.109375v17.109375h-27.261719v28.894531h27.261719v17.109376h17.109375v-17.109376h25.148437v17.109376h17.109375v-17.109376h25.152344v17.109376h17.109375v-17.109376h34.21875v17.109376h17.109375v-17.109376h25.152344v17.109376h17.109375v-17.109376h25.148437v17.109376h17.109375v-17.109376h27.261719v-28.894531zm0 0" fill="url(#i)"/></svg>