<?xml version="1.0" encoding="iso-8859-1"?>
<!-- Generator: Adobe Illustrator 19.0.0, SVG Export Plug-In . SVG Version: 6.00 Build 0)  -->
<svg version="1.1" id="Layer_1" xmlns="http://www.w3.org/2000/svg" xmlns:xlink="http://www.w3.org/1999/xlink" x="0px" y="0px"
	 viewBox="0 0 512 512" style="enable-background:new 0 0 512 512;" xml:space="preserve">
<g>
	<path style="fill:#535353;" d="M432.561,256.003c0,102.382-43.476,185.379-97.103,185.379s-97.103-82.997-97.103-185.379
		S281.83,70.623,335.457,70.623S432.561,153.62,432.561,256.003"/>
	<path style="fill:#3B3D3F;" d="M250.122,142.11c-12.862,31.444-20.595,70.903-20.595,113.893c0,42.982,7.733,82.45,20.595,113.894
		c19.023-18.75,32.371-62.685,32.371-113.894C282.492,204.795,269.145,160.86,250.122,142.11"/>
	<path style="fill:#535353;" d="M327.089,511.647c-83.862-7-150.528-118.775-150.528-255.647
		c0-136.942,66.737-248.417,150.669-255.629C324.115,0.132,320.963,0,317.803,0H194.217C96.707,0,17.665,114.617,17.665,256
		c0,141.391,79.042,256,176.552,256h123.586c7.821,0,15.51-0.812,23.066-2.242C336.323,510.614,331.742,511.294,327.089,511.647"/>
	<g>
		<path style="fill:#A4A4A4;" d="M335.457,441.382c-53.628,0-97.103-82.997-97.103-185.379S281.83,70.623,335.457,70.623
			s97.103,82.997,97.103,185.379S389.085,441.382,335.457,441.382 M494.327,254.414C493.753,118.345,419.99,7.453,327.239,0.373
			c-83.933,7.212-150.678,118.678-150.678,255.629c0,136.863,66.666,248.638,150.528,255.647
			c81.284-6.109,148.012-91.922,163.743-204.57c2.154-16.508,3.363-33.589,3.505-51.076
			C494.336,255.464,494.327,254.952,494.327,254.414"/>
		<path style="fill:#A4A4A4;" d="M162.836,69.14c2.966,1.986,6.824,1.986,9.79,0l22.219-14.813l30.729,15.36
			c0.282,0.141,0.591,0.132,0.883,0.238c3.16-4.793,6.435-9.401,9.834-13.78c-0.759-0.9-1.695-1.686-2.816-2.251l-35.31-17.655
			c-2.834-1.412-6.215-1.201-8.845,0.556l-21.583,14.389l-21.592-14.389c-2.154-1.43-4.829-1.845-7.318-1.148l-49.09,14.027
			c-5.517,5.879-10.778,12.217-15.775,18.97c1.545,1.236,3.46,1.977,5.491,1.977c0.803,0,1.624-0.115,2.436-0.335l57.865-16.534
			L162.836,69.14z"/>
		<path style="fill:#A4A4A4;" d="M127.526,130.933c2.966,1.986,6.824,1.986,9.79,0l22.219-14.813l30.729,15.36
			c1.271,0.636,2.622,0.936,3.946,0.936c0.759,0,1.51-0.115,2.242-0.309c1.571-4.555,3.213-9.039,4.943-13.427
			c-0.821-1.209-1.836-2.286-3.231-2.993l-35.31-17.655c-2.834-1.412-6.215-1.201-8.845,0.556l-21.583,14.389l-21.592-14.389
			c-2.966-1.986-6.824-1.986-9.79,0L79.46,112.978L57.867,98.589c-0.724-0.486-1.518-0.706-2.313-0.953
			c-2.71,4.979-5.332,10.063-7.786,15.334c0.124,0.088,0.185,0.221,0.309,0.309l26.483,17.655c2.966,1.986,6.824,1.986,9.79,0
			l21.592-14.389L127.526,130.933z"/>
		<path style="fill:#A4A4A4;" d="M126.182,200.451c3.452,3.452,9.031,3.452,12.482,0l20.242-20.242l11.414,11.414
			c3.072,3.072,7.751,3.249,11.193,0.856c0.644-4.07,1.359-8.095,2.119-12.085c-0.291-0.415-0.459-0.883-0.83-1.254l-17.655-17.655
			c-3.452-3.452-9.031-3.452-12.482,0l-20.242,20.242l-20.242-20.242c-3.452-3.452-9.031-3.452-12.482,0l-20.242,20.242
			l-20.242-20.242c-1.668-1.668-4.034-2.507-6.294-2.586c-2.357,0.018-4.617,0.971-6.259,2.657l-21.857,22.369
			c-1.139,5.632-2.145,11.352-3.019,17.143c1.58,1.227,3.416,1.969,5.314,1.969c2.295,0,4.59-0.892,6.321-2.657l19.624-20.092
			l20.171,20.162c3.452,3.452,9.031,3.452,12.482,0l20.242-20.242L126.182,200.451z"/>
		<path style="fill:#A4A4A4;" d="M176.561,256.003c0-0.486,0.018-0.971,0.026-1.457l-39.618-23.764
			c-3.478-2.083-7.918-1.527-10.787,1.324l-20.242,20.242l-20.242-20.242c-3.452-3.452-9.031-3.452-12.482,0l-21.981,21.981
			L21.61,239.274c-1.121-0.556-2.304-0.839-3.487-0.9c-0.274,5.835-0.459,11.697-0.459,17.629c0,0.353,0.018,0.697,0.018,1.05
			l31.347,15.678c3.407,1.713,7.512,1.033,10.187-1.66l20.242-20.242l20.242,20.242c3.452,3.452,9.031,3.452,12.482,0l21.61-21.61
			l38.223,22.934c1.421,0.856,2.993,1.262,4.537,1.262c0.141,0,0.282-0.044,0.424-0.053
			C176.728,267.779,176.561,261.926,176.561,256.003"/>
		<path style="fill:#A4A4A4;" d="M180.528,312.775l-16.728-11.149c-3.513-2.348-8.166-1.871-11.132,1.103l-20.242,20.242
			l-20.242-20.242c-3.452-3.452-9.039-3.452-12.482,0L79.461,322.97l-20.242-20.242c-1.871-1.871-4.467-2.798-7.115-2.542
			c-2.631,0.256-5.005,1.686-6.471,3.884l-17.655,26.483c-1.254,1.88-1.607,4.052-1.315,6.117c0.088,0.388,0.177,0.777,0.274,1.165
			c0.547,1.951,1.668,3.752,3.487,4.961c1.501,0.998,3.204,1.483,4.89,1.483c2.851,0,5.65-1.377,7.353-3.928l11.679-17.532
			l18.873,18.873c3.443,3.452,9.031,3.452,12.482,0l20.242-20.242l20.242,20.242c3.443,3.452,9.031,3.452,12.482,0l21.363-21.363
			l20.462,13.639c1.201,0.794,2.534,1.165,3.884,1.315C182.885,327.923,181.605,320.41,180.528,312.775"/>
		<path style="fill:#A4A4A4;" d="M206.377,405.313c-2.931-6.568-5.676-13.365-8.227-20.383l-26.465-13.241
			c-3.99-1.977-8.828-0.697-11.299,3.001l-11.679,17.532l-18.873-18.873c-3.443-3.452-9.031-3.452-12.482,0L97.11,393.59
			l-20.242-20.242c-3.443-3.452-9.031-3.452-12.482,0l-17.655,17.655c-0.671,0.671-1.095,1.465-1.51,2.269
			c1.863,4.228,3.796,8.369,5.809,12.42c2.86,0.653,5.959,0.018,8.183-2.207l11.414-11.414l20.242,20.242
			c3.452,3.452,9.039,3.452,12.482,0l20.242-20.242l20.242,20.242c1.668,1.66,3.911,2.586,6.241,2.586
			c0.291,0,0.583-0.018,0.874-0.044c2.631-0.256,5.005-1.686,6.471-3.884l13.338-20.003l28.337,14.168
			C201.478,406.328,204.1,406.249,206.377,405.313"/>
		<path style="fill:#A4A4A4;" d="M207.94,475.209l26.483-17.655c0.706-0.468,1.201-1.112,1.721-1.73
			c-3.363-4.352-6.612-8.916-9.746-13.683c-0.591,0.23-1.218,0.353-1.766,0.724l-21.592,14.389l-21.583-14.389
			c-2.966-1.986-6.824-1.986-9.79,0l-21.592,14.389l-21.583-14.389c-2.966-1.986-6.824-1.986-9.79,0L92.219,460.52
			c-0.883,0.591-1.562,1.351-2.154,2.154c4.043,4.29,8.201,8.377,12.491,12.164l21.036-14.018l21.592,14.389
			c2.966,1.986,6.824,1.986,9.79,0l21.583-14.389l21.592,14.389C201.116,477.195,204.974,477.195,207.94,475.209"/>
	</g>
</g>
<g>
</g>
<g>
</g>
<g>
</g>
<g>
</g>
<g>
</g>
<g>
</g>
<g>
</g>
<g>
</g>
<g>
</g>
<g>
</g>
<g>
</g>
<g>
</g>
<g>
</g>
<g>
</g>
<g>
</g>
</svg>
