<svg width="92" height="12" viewBox="0 0 92 12" fill="none" xmlns="http://www.w3.org/2000/svg">
<path d="M4.11665 6.56348C2.991 6.23991 2.17069 5.84342 1.65571 5.37402C1.1453 4.90007 0.890087 4.31673 0.890087 3.62402C0.890087 2.84017 1.20226 2.19303 1.82661 1.68262C2.45552 1.16764 3.27127 0.910156 4.27388 0.910156C4.95747 0.910156 5.56587 1.04232 6.09907 1.30664C6.63683 1.57096 7.05155 1.93555 7.34321 2.40039C7.63944 2.86523 7.78755 3.37337 7.78755 3.9248H6.46821C6.46821 3.32324 6.27681 2.85156 5.89399 2.50977C5.51118 2.16341 4.97114 1.99023 4.27388 1.99023C3.62674 1.99023 3.12088 2.13379 2.7563 2.4209C2.39627 2.70345 2.21626 3.09766 2.21626 3.60352C2.21626 4.00911 2.38716 4.35319 2.72895 4.63574C3.07531 4.91374 3.66092 5.16895 4.48579 5.40137C5.31522 5.63379 5.96235 5.89128 6.4272 6.17383C6.8966 6.45182 7.24295 6.77767 7.46626 7.15137C7.69412 7.52507 7.80806 7.96484 7.80806 8.4707C7.80806 9.27734 7.4936 9.92448 6.8647 10.4121C6.23579 10.8952 5.39497 11.1367 4.34224 11.1367C3.65864 11.1367 3.02062 11.0068 2.42817 10.7471C1.83573 10.4827 1.37772 10.1227 1.05415 9.66699C0.735139 9.21126 0.575634 8.69401 0.575634 8.11523H1.89497C1.89497 8.7168 2.116 9.19303 2.55806 9.54395C3.00467 9.8903 3.5994 10.0635 4.34224 10.0635C5.03494 10.0635 5.56587 9.9222 5.93501 9.63965C6.30415 9.3571 6.48872 8.97201 6.48872 8.48438C6.48872 7.99674 6.31782 7.62077 5.97602 7.35645C5.63423 7.08757 5.01444 6.82324 4.11665 6.56348ZM13.5287 11C13.4558 10.8542 13.3965 10.5944 13.351 10.2207C12.7631 10.8314 12.0612 11.1367 11.2455 11.1367C10.5163 11.1367 9.91704 10.9316 9.44764 10.5215C8.9828 10.1068 8.75038 9.58268 8.75038 8.94922C8.75038 8.17904 9.04204 7.58203 9.62538 7.1582C10.2133 6.72982 11.0381 6.51562 12.1 6.51562H13.3305V5.93457C13.3305 5.49251 13.1983 5.1416 12.934 4.88184C12.6696 4.61751 12.28 4.48535 11.765 4.48535C11.3139 4.48535 10.9356 4.59928 10.6303 4.82715C10.3249 5.05501 10.1723 5.33073 10.1723 5.6543H8.90077C8.90077 5.28516 9.03065 4.92969 9.29041 4.58789C9.55474 4.24154 9.91021 3.9681 10.3568 3.76758C10.808 3.56706 11.3025 3.4668 11.8402 3.4668C12.6924 3.4668 13.3601 3.68099 13.8431 4.10938C14.3262 4.5332 14.5769 5.11882 14.5951 5.86621V9.27051C14.5951 9.94954 14.6817 10.4896 14.8549 10.8906V11H13.5287ZM11.4301 10.0361C11.8265 10.0361 12.2025 9.93359 12.558 9.72852C12.9135 9.52344 13.1709 9.25684 13.3305 8.92871V7.41113H12.3392C10.7898 7.41113 10.015 7.86458 10.015 8.77148C10.015 9.16797 10.1472 9.47786 10.4115 9.70117C10.6758 9.92448 11.0153 10.0361 11.4301 10.0361ZM17.6155 11H16.3509V3.60352H17.6155V11ZM16.2484 1.6416C16.2484 1.43652 16.3099 1.26335 16.4329 1.12207C16.5605 0.980794 16.7474 0.910156 16.9935 0.910156C17.2396 0.910156 17.4264 0.980794 17.554 1.12207C17.6816 1.26335 17.7454 1.43652 17.7454 1.6416C17.7454 1.84668 17.6816 2.01758 17.554 2.1543C17.4264 2.29102 17.2396 2.35938 16.9935 2.35938C16.7474 2.35938 16.5605 2.29102 16.4329 2.1543C16.3099 2.01758 16.2484 1.84668 16.2484 1.6416ZM22.885 4.73828C22.6936 4.70638 22.4863 4.69043 22.2629 4.69043C21.4335 4.69043 20.8707 5.04362 20.5745 5.75V11H19.3098V3.60352H20.5403L20.5608 4.45801C20.9755 3.7972 21.5634 3.4668 22.3245 3.4668C22.5706 3.4668 22.7574 3.4987 22.885 3.5625V4.73828ZM26.547 7.24023C26.547 6.10547 26.8159 5.19401 27.3536 4.50586C27.8914 3.81315 28.5955 3.4668 29.4659 3.4668C30.3318 3.4668 31.0177 3.76302 31.5236 4.35547V0.5H32.7882V11H31.6261L31.5646 10.207C31.0587 10.8268 30.3546 11.1367 29.4523 11.1367C28.5955 11.1367 27.896 10.7858 27.3536 10.084C26.8159 9.38216 26.547 8.46615 26.547 7.33594V7.24023ZM27.8116 7.38379C27.8116 8.22233 27.9848 8.87858 28.3312 9.35254C28.6775 9.8265 29.1561 10.0635 29.7667 10.0635C30.5688 10.0635 31.1544 9.70345 31.5236 8.9834V5.58594C31.1453 4.88867 30.5643 4.54004 29.7804 4.54004C29.1606 4.54004 28.6775 4.7793 28.3312 5.25781C27.9848 5.73633 27.8116 6.44499 27.8116 7.38379ZM34.086 7.2334C34.086 6.50879 34.2273 5.8571 34.5098 5.27832C34.7969 4.69954 35.1934 4.25293 35.6993 3.93848C36.2097 3.62402 36.7908 3.4668 37.4424 3.4668C38.4496 3.4668 39.2631 3.81543 39.8829 4.5127C40.5072 5.20996 40.8194 6.13737 40.8194 7.29492V7.38379C40.8194 8.10384 40.6804 8.75098 40.4024 9.3252C40.129 9.89486 39.7348 10.3392 39.2198 10.6582C38.7094 10.9772 38.1215 11.1367 37.4561 11.1367C36.4535 11.1367 35.64 10.7881 35.0157 10.0908C34.3959 9.39355 34.086 8.4707 34.086 7.32227V7.2334ZM35.3575 7.38379C35.3575 8.2041 35.5466 8.86263 35.9249 9.35938C36.3077 9.85612 36.8181 10.1045 37.4561 10.1045C38.0987 10.1045 38.6091 9.85384 38.9874 9.35254C39.3656 8.84668 39.5548 8.1403 39.5548 7.2334C39.5548 6.4222 39.3611 5.76595 38.9737 5.26465C38.5909 4.75879 38.0805 4.50586 37.4424 4.50586C36.8181 4.50586 36.3145 4.75423 35.9317 5.25098C35.5489 5.74772 35.3575 6.45866 35.3575 7.38379ZM49.5126 9.03809C49.5126 8.69629 49.3828 8.43197 49.123 8.24512C48.8678 8.05371 48.4189 7.88965 47.7763 7.75293C47.1383 7.61621 46.6301 7.45215 46.2519 7.26074C45.8782 7.06934 45.6002 6.84147 45.4179 6.57715C45.2402 6.31283 45.1513 5.99837 45.1513 5.63379C45.1513 5.02767 45.4065 4.51497 45.9169 4.0957C46.4319 3.67643 47.0882 3.4668 47.8857 3.4668C48.7242 3.4668 49.4033 3.68327 49.9228 4.11621C50.4469 4.54915 50.7089 5.10286 50.7089 5.77734H49.4374C49.4374 5.43099 49.2893 5.13249 48.9931 4.88184C48.7014 4.63118 48.3323 4.50586 47.8857 4.50586C47.4254 4.50586 47.0654 4.60612 46.8056 4.80664C46.5458 5.00716 46.416 5.26921 46.416 5.59277C46.416 5.89811 46.5367 6.12826 46.7783 6.2832C47.0198 6.43815 47.455 6.58626 48.0839 6.72754C48.7174 6.86882 49.2301 7.03743 49.622 7.2334C50.0139 7.42936 50.3033 7.66634 50.4902 7.94434C50.6816 8.21777 50.7773 8.55273 50.7773 8.94922C50.7773 9.61003 50.513 10.141 49.9843 10.542C49.4557 10.9385 48.7698 11.1367 47.9267 11.1367C47.3342 11.1367 46.8102 11.0319 46.3544 10.8223C45.8987 10.6126 45.541 10.321 45.2812 9.94727C45.026 9.56901 44.8984 9.16113 44.8984 8.72363H46.163C46.1858 9.14746 46.3544 9.4847 46.6689 9.73535C46.9879 9.98145 47.4072 10.1045 47.9267 10.1045C48.4052 10.1045 48.788 10.0088 49.0751 9.81738C49.3668 9.62142 49.5126 9.36165 49.5126 9.03809ZM53.4628 11H52.1981V3.60352H53.4628V11ZM52.0956 1.6416C52.0956 1.43652 52.1571 1.26335 52.2802 1.12207C52.4078 0.980794 52.5946 0.910156 52.8407 0.910156C53.0868 0.910156 53.2736 0.980794 53.4012 1.12207C53.5288 1.26335 53.5927 1.43652 53.5927 1.6416C53.5927 1.84668 53.5288 2.01758 53.4012 2.1543C53.2736 2.29102 53.0868 2.35938 52.8407 2.35938C52.5946 2.35938 52.4078 2.29102 52.2802 2.1543C52.1571 2.01758 52.0956 1.84668 52.0956 1.6416ZM59.4637 9.03809C59.4637 8.69629 59.3338 8.43197 59.074 8.24512C58.8188 8.05371 58.3699 7.88965 57.7274 7.75293C57.0893 7.61621 56.5812 7.45215 56.2029 7.26074C55.8292 7.06934 55.5512 6.84147 55.369 6.57715C55.1912 6.31283 55.1024 5.99837 55.1024 5.63379C55.1024 5.02767 55.3576 4.51497 55.868 4.0957C56.383 3.67643 57.0392 3.4668 57.8367 3.4668C58.6753 3.4668 59.3543 3.68327 59.8738 4.11621C60.3979 4.54915 60.66 5.10286 60.66 5.77734H59.3885C59.3885 5.43099 59.2404 5.13249 58.9442 4.88184C58.6525 4.63118 58.2833 4.50586 57.8367 4.50586C57.3764 4.50586 57.0164 4.60612 56.7567 4.80664C56.4969 5.00716 56.367 5.26921 56.367 5.59277C56.367 5.89811 56.4878 6.12826 56.7293 6.2832C56.9708 6.43815 57.4061 6.58626 58.035 6.72754C58.6684 6.86882 59.1811 7.03743 59.5731 7.2334C59.965 7.42936 60.2544 7.66634 60.4412 7.94434C60.6326 8.21777 60.7283 8.55273 60.7283 8.94922C60.7283 9.61003 60.464 10.141 59.9354 10.542C59.4067 10.9385 58.7208 11.1367 57.8777 11.1367C57.2853 11.1367 56.7612 11.0319 56.3055 10.8223C55.8498 10.6126 55.492 10.321 55.2322 9.94727C54.977 9.56901 54.8494 9.16113 54.8494 8.72363H56.1141C56.1369 9.14746 56.3055 9.4847 56.6199 9.73535C56.9389 9.98145 57.3582 10.1045 57.8777 10.1045C58.3563 10.1045 58.7391 10.0088 59.0262 9.81738C59.3179 9.62142 59.4637 9.36165 59.4637 9.03809ZM63.7556 1.8125V3.60352H65.1365V4.58105H63.7556V9.16797C63.7556 9.46419 63.8171 9.6875 63.9402 9.83789C64.0632 9.98372 64.2729 10.0566 64.5691 10.0566C64.7149 10.0566 64.9154 10.0293 65.1707 9.97461V11C64.838 11.0911 64.5144 11.1367 64.2 11.1367C63.6348 11.1367 63.2087 10.9658 62.9216 10.624C62.6345 10.2822 62.491 9.79688 62.491 9.16797V4.58105H61.1443V3.60352H62.491V1.8125H63.7556ZM69.3532 11.1367C68.3506 11.1367 67.5349 10.8086 66.9059 10.1523C66.277 9.49154 65.9626 8.6097 65.9626 7.50684V7.27441C65.9626 6.54069 66.1016 5.88672 66.3796 5.3125C66.6621 4.73372 67.0541 4.28255 67.5554 3.95898C68.0612 3.63086 68.6081 3.4668 69.196 3.4668C70.1576 3.4668 70.905 3.78353 71.4382 4.41699C71.9714 5.05046 72.238 5.95736 72.238 7.1377V7.66406H67.2272C67.2455 8.39323 67.4574 8.9834 67.863 9.43457C68.2731 9.88118 68.7927 10.1045 69.4216 10.1045C69.8682 10.1045 70.2464 10.0133 70.5563 9.83105C70.8662 9.64876 71.1374 9.40723 71.3698 9.10645L72.1423 9.70801C71.5225 10.6605 70.5928 11.1367 69.3532 11.1367ZM69.196 4.50586C68.6856 4.50586 68.2572 4.69271 67.9108 5.06641C67.5645 5.43555 67.3503 5.95508 67.2682 6.625H70.9733V6.5293C70.9369 5.88672 70.7637 5.38997 70.4538 5.03906C70.1439 4.68359 69.7246 4.50586 69.196 4.50586ZM74.5611 3.60352L74.5953 4.42383C75.1376 3.78581 75.8691 3.4668 76.7897 3.4668C77.8242 3.4668 78.5283 3.86328 78.902 4.65625C79.1481 4.30078 79.4671 4.01367 79.859 3.79492C80.2555 3.57617 80.7226 3.4668 81.2604 3.4668C82.8828 3.4668 83.7076 4.32585 83.735 6.04395V11H82.4703V6.11914C82.4703 5.59049 82.3496 5.19629 82.108 4.93652C81.8665 4.6722 81.4609 4.54004 80.8912 4.54004C80.4218 4.54004 80.0322 4.68132 79.7223 4.96387C79.4124 5.24186 79.2324 5.61784 79.1822 6.0918V11H77.9108V6.15332C77.9108 5.0778 77.3844 4.54004 76.3316 4.54004C75.5022 4.54004 74.9348 4.89323 74.6295 5.59961V11H73.3649V3.60352H74.5611ZM89.8794 11C89.8065 10.8542 89.7473 10.5944 89.7017 10.2207C89.1138 10.8314 88.412 11.1367 87.5962 11.1367C86.8671 11.1367 86.2678 10.9316 85.7984 10.5215C85.3335 10.1068 85.1011 9.58268 85.1011 8.94922C85.1011 8.17904 85.3928 7.58203 85.9761 7.1582C86.564 6.72982 87.3889 6.51562 88.4507 6.51562H89.6812V5.93457C89.6812 5.49251 89.549 5.1416 89.2847 4.88184C89.0204 4.61751 88.6307 4.48535 88.1158 4.48535C87.6646 4.48535 87.2863 4.59928 86.981 4.82715C86.6757 5.05501 86.523 5.33073 86.523 5.6543H85.2515C85.2515 5.28516 85.3814 4.92969 85.6412 4.58789C85.9055 4.24154 86.261 3.9681 86.7076 3.76758C87.1587 3.56706 87.6532 3.4668 88.191 3.4668C89.0432 3.4668 89.7108 3.68099 90.1939 4.10938C90.677 4.5332 90.9276 5.11882 90.9458 5.86621V9.27051C90.9458 9.94954 91.0324 10.4896 91.2056 10.8906V11H89.8794ZM87.7808 10.0361C88.1773 10.0361 88.5533 9.93359 88.9087 9.72852C89.2642 9.52344 89.5217 9.25684 89.6812 8.92871V7.41113H88.69C87.1405 7.41113 86.3658 7.86458 86.3658 8.77148C86.3658 9.16797 86.4979 9.47786 86.7623 9.70117C87.0266 9.92448 87.3661 10.0361 87.7808 10.0361Z" fill="#2A2D33"/>
</svg>
