<svg width="46" height="44" viewBox="0 0 46 44" fill="none" xmlns="http://www.w3.org/2000/svg">
<path d="M36.2836 31.7707L37.8812 32.6836L37.9269 32.5923C40.1636 29.4883 41.3505 25.7908 41.3505 21.9108C41.3961 16.9352 39.5246 12.2792 36.0553 8.80998C32.5861 5.29512 27.9757 3.37793 23.0458 3.37793C12.8664 3.37793 4.55859 11.6401 4.55859 21.8195C4.55859 31.9989 12.8664 40.2611 23.0458 40.2611C24.8261 40.2611 26.515 40.0328 28.1127 39.5307L28.204 39.4851L27.8388 37.6592L27.7019 37.7048C26.1498 38.1613 24.5522 38.4352 22.9545 38.4352C13.825 38.4352 6.38449 30.9946 6.38449 21.8652C6.38449 12.7357 13.825 5.29512 22.9545 5.29512C32.084 5.29512 39.5246 12.7357 39.5246 21.8652C39.5246 25.38 38.429 28.7579 36.3292 31.6794L36.2836 31.7707Z" fill="#EF5784"/>
<path d="M38.6116 6.43629C34.4576 2.28237 28.8886 0 23.0458 0C20.9916 0 19.0288 0.273885 17.1573 0.821654L17.066 0.867302L17.3855 2.55626L17.5224 2.51061C19.3483 2.00849 21.2199 1.7346 23.0458 1.7346C34.2294 1.7346 43.3589 10.8184 43.3589 22.0477C43.3589 33.277 34.2294 42.3152 23.0458 42.3152C11.8165 42.2696 2.73265 33.1401 2.73265 21.9564C2.73265 17.7112 4.01078 13.6942 6.47574 10.225L6.56704 10.1337L5.06067 9.26644L5.01502 9.35773C2.36747 13.0552 0.998047 17.4373 0.998047 22.0021C0.998047 34.0987 10.8579 43.9585 22.9545 43.9585C35.0967 43.9585 45.0022 34.0987 45.0022 22.0021C45.0022 16.1592 42.7655 10.6359 38.6116 6.43629Z" fill="#EF5784"/>
<path d="M32.586 19.5372C31.7643 18.9437 30.9427 19.5372 30.6231 19.948L28.6603 22.8238C28.6603 22.8238 28.3408 23.3716 27.7017 23.2346C27.1996 23.1433 27.1539 22.1391 27.1539 21.8195L27.9299 13.466C27.9299 13.3748 28.0212 12.8726 27.7474 12.4618C27.5648 12.1879 27.2452 12.0053 26.7888 11.9597C26.4236 11.914 26.104 12.0053 25.8758 12.2336C25.3737 12.69 25.3737 13.4661 25.3737 13.603L24.5977 19.5372C24.5977 19.5372 24.5064 20.2675 24.0956 20.2675C24.0043 20.2675 23.913 20.0393 23.8673 19.3089C23.7304 18.0308 23.1826 11.5032 23.137 11.5032C23.137 11.4576 23.0457 10.9098 22.5892 10.5903C22.2697 10.362 21.9045 10.3164 21.448 10.4077C20.2612 10.6359 20.1699 11.8684 20.3068 12.4618L20.9002 19.8567C20.9002 19.8567 20.9459 20.3588 20.8089 20.5414C20.7633 20.5871 20.7176 20.6327 20.6264 20.6327C20.3525 20.6783 20.2155 20.0393 20.0786 19.7198L18.207 13.4204C18.207 13.4204 18.0244 12.8726 17.5223 12.5987C17.2484 12.4618 16.9289 12.4618 16.5637 12.5531C15.3769 12.9639 15.9703 14.8811 15.9703 14.9268L17.3854 20.8609C17.431 21.0435 17.568 21.5457 17.431 21.8195C17.3854 21.9108 17.3397 21.9565 17.2484 21.9565C16.9289 21.9108 16.0616 20.2219 15.3769 18.3047C15.3769 18.3047 15.1943 17.8026 14.7378 17.62C14.4183 17.483 14.0531 17.5287 13.6423 17.6656C13.2771 17.8026 13.0489 18.0764 12.9576 18.396C12.775 18.9437 13.0489 19.4915 13.0945 19.6285L16.1073 29.0318C16.1073 29.0775 17.2028 32.8206 21.2654 33.5966C21.6306 33.6422 22.6805 33.6879 23 33.6879C26.5149 33.6879 28.3408 30.173 28.3408 30.1274L32.9512 21.5913C33.1794 21.1348 33.362 20.1306 32.586 19.5372Z" fill="#EF5784"/>
</svg>
