<svg width="36" height="32" viewBox="0 0 36 32" fill="none" xmlns="http://www.w3.org/2000/svg">
<path d="M35.9749 20.678L35.7421 19.726L33.0091 8.545C32.9118 8.1467 32.5551 7.86643 32.1449 7.86643H19.0848V6.82337L22.6212 5.18419C22.9178 5.04687 23.1153 4.75771 23.1349 4.43147C23.155 4.10524 22.9946 3.79442 22.7173 3.62152L18.6648 1.10061C18.3908 0.930076 18.0453 0.921475 17.763 1.07836C17.4806 1.23525 17.3053 1.53302 17.3053 1.85629V7.86673H4.16784C3.75797 7.86673 3.40089 8.147 3.30361 8.5453L0.337538 20.678C0.272588 20.9437 0.33309 21.224 0.501842 21.4387C0.670595 21.6534 0.928618 21.7789 1.20177 21.7789H1.71603V30.4289C1.71603 30.9203 2.11433 31.3186 2.60576 31.3186H11.3228H15.3651H20.9476H24.9903H33.707C34.1987 31.3186 34.5967 30.9203 34.5967 30.4289V21.7792H35.1104C35.3838 21.7792 35.6415 21.6537 35.81 21.439C35.8524 21.385 35.8877 21.3275 35.9162 21.2667C35.9728 21.1457 36.0016 21.0128 35.9998 20.8788C35.9995 20.8118 35.9909 20.7444 35.9749 20.678ZM19.0848 3.45781L20.3788 4.26272L19.0848 4.8624V3.45781ZM18.1565 20.613C16.6149 20.613 15.3651 21.8631 15.3651 23.4044V29.5394H12.2125V16.1519L18.2221 10.3399L24.1008 16.1466V29.5394H20.9479V23.4044C20.9479 21.8631 19.6984 20.613 18.1565 20.613ZM2.33529 19.9997L2.57729 19.0097H10.433V19.9997H2.33529ZM25.88 19.0097H33.7351L33.9766 19.9997H25.88V19.0097ZM3.49579 21.7792H10.433V29.5394H3.49579V21.7792ZM32.8172 29.5394H25.88V21.7792H32.8172V29.5394Z" fill="white"/>
<path d="M18.1564 19.3805C19.5852 19.3805 20.7434 18.2223 20.7434 16.7935C20.7434 15.3647 19.5852 14.2064 18.1564 14.2064C16.7276 14.2064 15.5693 15.3647 15.5693 16.7935C15.5693 18.2223 16.7276 19.3805 18.1564 19.3805Z" fill="white"/>
<path d="M6.54021 24.0504H4.76074V26.8184H6.54021V24.0504Z" fill="white"/>
<path d="M9.16033 24.0504H7.38086V26.8184H9.16033V24.0504Z" fill="white"/>
<path d="M28.9318 24.0504H27.1523V26.8184H28.9318V24.0504Z" fill="white"/>
<path d="M31.5514 24.0504H29.772V26.8184H31.5514V24.0504Z" fill="white"/>
</svg>
