<svg width="43" height="29" viewBox="0 0 43 29" fill="none" xmlns="http://www.w3.org/2000/svg">
<path d="M19.27 11.2895C19.0487 9.5186 17.5434 8.19043 15.7725 8.19043H13.7802C12.0093 8.19043 10.5041 9.5186 10.2827 11.2895L9.61862 16.735C9.53008 17.4876 10.1056 18.1517 10.8583 18.1517H11.7437L12.2307 27.4932C12.275 28.113 12.762 28.6 13.3818 28.6H16.0381C16.6579 28.6 17.1892 28.113 17.1892 27.4932L17.6762 18.1517H18.6502C19.3586 18.1517 19.8898 17.5319 19.8013 16.8236L19.27 11.2895Z" fill="#1930FC"/>
<path d="M31.7991 11.2895C31.5777 9.5186 30.0724 8.19043 28.3015 8.19043H26.3093C24.5384 8.19043 23.0331 9.5186 22.8118 11.2895L22.1477 16.735C22.0591 17.4876 22.6347 18.1517 23.3873 18.1517H23.6972L22.7232 21.6935C22.4133 22.7561 23.2102 23.7743 24.317 23.7743H24.8926L25.1139 27.626C25.1582 28.1573 25.6009 28.6 26.1322 28.6H28.4786C29.0099 28.6 29.4969 28.1573 29.4969 27.626L29.7183 23.7743H30.2938C31.4006 23.7743 32.1532 22.7561 31.8876 21.6935L30.9136 18.1517H31.3121C32.0204 18.1517 32.5517 17.5319 32.4632 16.8236L31.7991 11.2895Z" fill="#1930FC"/>
<path d="M14.754 7.17214C16.7346 7.17214 18.3401 5.5666 18.3401 3.58607C18.3401 1.60554 16.7346 0 14.754 0C12.7735 0 11.168 1.60554 11.168 3.58607C11.168 5.5666 12.7735 7.17214 14.754 7.17214Z" fill="#1930FC"/>
<path d="M27.2833 7.17214C29.2639 7.17214 30.8694 5.5666 30.8694 3.58607C30.8694 1.60554 29.2639 0 27.2833 0C25.3028 0 23.6973 1.60554 23.6973 3.58607C23.6973 5.5666 25.3028 7.17214 27.2833 7.17214Z" fill="#1930FC"/>
<path d="M42.0702 19.6569L41.5389 15.4511C41.3618 14.1229 40.255 13.1046 38.8826 13.1046H37.3773C36.0049 13.1046 34.8981 14.1229 34.721 15.4511L34.234 19.6127C34.1454 20.1882 34.5881 20.6752 35.1637 20.6752H35.872L36.2705 27.7588C36.3148 28.2458 36.669 28.6 37.1559 28.6H39.1925C39.6795 28.6 40.0779 28.2458 40.0779 27.7588L40.4764 20.6752H41.229C41.716 20.6752 42.1145 20.1882 42.0702 19.6569Z" fill="#1930FC"/>
<path d="M38.13 12.2192C39.8171 12.2192 41.1848 10.8515 41.1848 9.16442C41.1848 7.4773 39.8171 6.10962 38.13 6.10962C36.4429 6.10962 35.0752 7.4773 35.0752 9.16442C35.0752 10.8515 36.4429 12.2192 38.13 12.2192Z" fill="#1930FC"/>
<path d="M7.31627 15.4954C7.13917 14.1672 6.03236 13.1489 4.65992 13.1489H3.15465C1.78221 13.1489 0.675397 14.1672 0.498307 15.4954L0.0113102 19.6127C-0.0772347 20.1882 0.36549 20.6752 0.941032 20.6752H1.20667L0.454035 23.3759C0.232673 24.1728 0.852487 24.9254 1.64939 24.9254H2.09212L2.26921 27.8474C2.26921 28.2458 2.62338 28.6 3.06611 28.6H4.83701C5.23546 28.6 5.58964 28.2901 5.63391 27.8474L5.811 24.9254H6.25373C7.0949 24.9254 7.67044 24.1285 7.44908 23.3316L6.69645 20.631H7.00636C7.53763 20.631 7.93608 20.144 7.89181 19.6127L7.31627 15.4954Z" fill="#1930FC"/>
<path d="M3.95177 12.2192C5.63889 12.2192 7.00657 10.8515 7.00657 9.16442C7.00657 7.4773 5.63889 6.10962 3.95177 6.10962C2.26465 6.10962 0.896973 7.4773 0.896973 9.16442C0.896973 10.8515 2.26465 12.2192 3.95177 12.2192Z" fill="#1930FC"/>
</svg>
