<svg width="42" height="25" viewBox="0 0 42 25" fill="none" xmlns="http://www.w3.org/2000/svg">
<path d="M25.353 6.01666H25.1639V5.52157C25.1639 4.80189 24.5781 4.21643 23.8588 4.21643H23.1639V3.45321C23.1639 1.86682 21.873 0.576294 20.2869 0.576294H5.80006C4.21367 0.576294 2.92314 1.86682 2.92314 3.45321V4.21643H2.22852C1.50884 4.21643 0.923082 4.80189 0.923082 5.52157V6.01666H0.801695C0.359689 6.01666 0 6.37635 0 6.81836V10.2569C0 10.6992 0.359689 11.0589 0.801695 11.0589H1.65529C2.09759 11.0589 2.45728 10.6992 2.45728 10.2569V6.81836C2.45728 6.37635 2.09759 6.01666 1.65529 6.01666H1.5339V5.52157C1.5339 5.13862 1.84557 4.82725 2.22852 4.82725H2.92314V21.4544C2.92314 22.2042 3.46704 22.8259 4.18027 22.9541V23.9632C4.18027 24.4166 4.5495 24.7858 5.00314 24.7858H7.06911C7.52275 24.7858 7.89198 24.4166 7.89198 23.9632V22.9814H18.263V23.9632C18.263 24.4166 18.6322 24.7858 19.0856 24.7858H21.1519C21.6052 24.7858 21.9744 24.4166 21.9744 23.9632V22.9409C22.6541 22.7865 23.1639 22.1802 23.1639 21.4544V4.82725H23.8588C24.2417 4.82725 24.5531 5.13862 24.5531 5.52157V6.01666H24.4994C24.0574 6.01666 23.6977 6.37635 23.6977 6.81866V10.2569C23.6977 10.6992 24.0574 11.0589 24.4994 11.0589H25.353C25.795 11.0589 26.1547 10.6992 26.1547 10.2569V6.81866C26.1547 6.37635 25.795 6.01666 25.353 6.01666ZM6.87853 2.78342C6.87853 2.47678 7.12943 2.22591 7.43607 2.22591H18.9215C19.2282 2.22591 19.479 2.47678 19.479 2.78342V3.65684C19.479 3.96348 19.2282 4.21434 18.9215 4.21434H7.43607C7.12943 4.21434 6.87853 3.96348 6.87853 3.65684V2.78342ZM7.45072 20.5157L4.6251 20.5299C4.4286 20.5309 4.2697 20.37 4.27313 20.1735L4.29546 18.8881C4.29919 18.6736 4.4932 18.5128 4.70474 18.549L7.46858 19.0215C7.63038 19.0492 7.75128 19.1855 7.75937 19.3495L7.79882 20.1481C7.80866 20.3474 7.65029 20.5147 7.45072 20.5157ZM5.17168 17.1834C4.67585 17.0457 4.27328 16.5074 4.27306 16.006V6.53226C4.27269 5.84148 4.84156 5.27246 5.53693 5.26839H20.6179C21.3133 5.27246 21.8821 5.84144 21.8818 6.53226C21.8818 9.69021 21.8818 12.8481 21.8818 16.006C21.8815 16.5074 21.479 17.0457 20.9832 17.1834C15.808 18.6001 10.3468 18.6001 5.17168 17.1834ZM18.356 20.1481L18.3954 19.3495C18.4036 19.1855 18.5244 19.0492 18.6863 19.0215L21.4501 18.549C21.6616 18.5128 21.8556 18.6736 21.8594 18.8881L21.8817 20.1735C21.8851 20.37 21.7262 20.5309 21.5297 20.5299L18.7041 20.5157C18.5046 20.5147 18.3461 20.3474 18.356 20.1481Z" fill="white"/>
<path d="M33.2759 6.01667H33.0868V5.52158C33.0868 4.80188 32.501 4.21644 31.7816 4.21644H31.0867V3.45321C31.0867 1.8668 29.7959 0.576294 28.2098 0.576294H22.3164C22.8909 0.98278 23.3368 1.55627 23.5868 2.22592H26.8444C27.1511 2.22592 27.4019 2.47679 27.4019 2.7834V3.65683C27.4019 3.96348 27.1511 4.21435 26.8444 4.21435H25.2979C25.5591 4.50171 25.7327 4.86462 25.7858 5.26838H28.5408C29.2362 5.27246 29.805 5.84144 29.8047 6.53224C29.8046 9.69019 29.8046 12.8481 29.8047 16.006C29.8044 16.5074 29.4018 17.0457 28.906 17.1834C27.2318 17.6417 25.5264 17.9357 23.8116 18.0975V21.4541C23.8116 22.0471 23.5733 22.5865 23.1808 22.9814H26.1859V23.9632C26.1859 24.4166 26.5551 24.7858 27.0085 24.7858H29.0747C29.5281 24.7858 29.8973 24.4166 29.8973 23.9632V22.941C30.577 22.7865 31.0867 22.1802 31.0867 21.4543V4.82722H31.7816C32.1646 4.82722 32.476 5.13862 32.476 5.52158V6.01667H32.4223C31.9803 6.01667 31.6206 6.37635 31.6206 6.81865V10.2569C31.6206 10.6992 31.9803 11.0589 32.4223 11.0589H33.2759C33.7179 11.0589 34.0776 10.6992 34.0776 10.2569V6.81865C34.0776 6.37635 33.7179 6.01667 33.2759 6.01667ZM29.4526 20.5299L26.627 20.5157C26.4274 20.5147 26.269 20.3474 26.2789 20.1481L26.3183 19.3495C26.3264 19.1855 26.4473 19.0492 26.6092 19.0215L29.373 18.549C29.5845 18.5128 29.7785 18.6736 29.7823 18.8881L29.8046 20.1735C29.808 20.37 29.6491 20.5309 29.4526 20.5299Z" fill="white"/>
<path d="M41.1988 6.01667H41.0097V5.52158C41.0097 4.80188 40.424 4.21644 39.7046 4.21644H39.0096V3.45321C39.0096 1.8668 37.7188 0.576294 36.1327 0.576294H30.2393C30.8137 0.98278 31.2598 1.55627 31.5098 2.22592H34.7674C35.074 2.22592 35.3249 2.47679 35.3249 2.7834V3.65683C35.3249 3.96348 35.074 4.21435 34.7674 4.21435H33.2208C33.482 4.50171 33.6556 4.86462 33.7088 5.26838H36.4637C37.1591 5.27246 37.7279 5.84144 37.7276 6.53224C37.7276 9.69019 37.7276 12.8481 37.7276 16.006C37.7273 16.5074 37.3248 17.0457 36.829 17.1834C35.1548 17.6417 33.4494 17.9356 31.7347 18.0974V21.4541C31.7347 22.0471 31.4964 22.5865 31.1039 22.9814H34.1088V23.9632C34.1088 24.4166 34.478 24.7858 34.9314 24.7858H36.9977C37.451 24.7858 37.8202 24.4166 37.8202 23.9632V22.941C38.4999 22.7865 39.0096 22.1802 39.0096 21.4543V4.82722H39.7046C40.0875 4.82722 40.3989 5.13862 40.3989 5.52158V6.01667H40.3452C39.9032 6.01667 39.5435 6.37635 39.5435 6.81865V10.2569C39.5435 10.6992 39.9032 11.0589 40.3452 11.0589H41.1988C41.6408 11.0589 42.0005 10.6992 42.0005 10.2569V6.81865C42.0005 6.37635 41.6408 6.01667 41.1988 6.01667ZM37.3756 20.5299L34.5499 20.5157C34.3504 20.5147 34.192 20.3474 34.2018 20.1481L34.2413 19.3495C34.2494 19.1855 34.3702 19.0492 34.5321 19.0215L37.2959 18.549C37.5074 18.5128 37.7014 18.6736 37.7052 18.8881L37.7275 20.1735C37.731 20.37 37.5721 20.5309 37.3756 20.5299Z" fill="white"/>
</svg>
