<svg height="512" viewBox="0 0 64 64" width="512" xmlns="http://www.w3.org/2000/svg"><rect fill="#324d5c" height="58" rx="5.5" width="11" x="4" y="3"/><path d="m8 51a1 1 0 0 1 -1-1v-42a1 1 0 0 1 2 0v42a1 1 0 0 1 -1 1z" fill="#f1bf37"/><path d="m61 15v40a1 1 0 0 1 -1 1h-45v-48h39v7z" fill="#f1bf37"/><path d="m8 57a1 1 0 0 1 -1-1v-2a1 1 0 0 1 2 0v2a1 1 0 0 1 -1 1z" fill="#f1bf37"/><path d="m54 8v7h7z" fill="#324d5c"/><g fill="#4393c1"><path d="m34.293 36.707a1 1 0 0 0 1.414 0l2.293-2.293 2.293 2.293a1 1 0 0 0 1.414-1.414l-2.293-2.293 2.293-2.293a1 1 0 0 0 -1.414-1.414l-2.293 2.293-2.293-2.293a1 1 0 0 0 -1.414 1.414l2.293 2.293-2.293 2.293a1 1 0 0 0 0 1.414z"/><path d="m30.724 18.287a1 1 0 0 0 .384-1.923q-.369-.155-.756-.3a10.634 10.634 0 0 0 -5.664-.5 1 1 0 0 0 .354 1.969 8.6 8.6 0 0 1 4.606.4q.354.133.691.273a.989.989 0 0 0 .385.081z"/><path d="m57.7 24.09a.99.99 0 0 0 .628-.222 12.939 12.939 0 0 0 3.594-4.474 1 1 0 1 0 -1.838-.788 10.973 10.973 0 0 1 -3.014 3.707 1 1 0 0 0 .63 1.777z"/><path d="m36.953 22.265c1.111.833 2.161 1.62 3.324 2.327a1 1 0 0 0 1.039-1.709c-1.08-.656-2.091-1.415-3.163-2.218-.539-.4-1.086-.814-1.654-1.221a1 1 0 1 0 -1.164 1.626c.557.398 1.092.8 1.618 1.195z"/><path d="m18.84 18.116a22.764 22.764 0 0 0 -4.629 4.27 1 1 0 0 0 1.578 1.229 21.137 21.137 0 0 1 4.188-3.854 1 1 0 0 0 -1.137-1.645z"/><path d="m52.118 24.673a16.109 16.109 0 0 1 -5.595.149 1 1 0 0 0 -.3 1.978 18.581 18.581 0 0 0 2.777.2 16.448 16.448 0 0 0 3.548-.374 1 1 0 1 0 -.43-1.953z"/><path d="m35.432 52.522a23.764 23.764 0 0 1 -4.8 2.55 1 1 0 1 0 .744 1.856 25.741 25.741 0 0 0 5.2-2.764 1 1 0 0 0 -1.142-1.642z"/><path d="m61.124 29.008a8.49 8.49 0 0 0 -1-.048 14.9 14.9 0 0 0 -5.374 1.032 1 1 0 1 0 .728 1.863 13.063 13.063 0 0 1 4.646-.895 7.026 7.026 0 0 1 .75.033 1 1 0 0 0 .246-1.985z"/><path d="m49.449 33.526a17.6 17.6 0 0 0 -2.3 2.944c-.452.722-.879 1.437-1.291 2.142a1 1 0 1 0 1.727 1.009c.4-.688.819-1.386 1.26-2.09a15.529 15.529 0 0 1 2.033-2.608 1 1 0 0 0 -1.432-1.4z"/><path d="m44.258 43.464a1 1 0 0 0 -1.369.354 37.353 37.353 0 0 1 -3.278 4.826 1 1 0 0 0 1.543 1.273 39.3 39.3 0 0 0 3.459-5.084 1 1 0 0 0 -.355-1.369z"/><path d="m17.263 42.474a1 1 0 0 0 -1.384.294 12.6 12.6 0 0 0 -1.879 6.232 1 1 0 0 0 1 1 1 1 0 0 0 1-1 10.72 10.72 0 0 1 1.557-5.145 1 1 0 0 0 -.294-1.381z"/><path d="m38.031 39.816a1 1 0 0 0 -1.284.591 2.29 2.29 0 0 1 -1.911 1.607 7.194 7.194 0 0 1 -1.171.1 4.129 4.129 0 0 1 -.835-.054 1 1 0 0 0 -.262 1.983 8.466 8.466 0 0 0 1.087.071 10.265 10.265 0 0 0 1.509-.127 4.275 4.275 0 0 0 3.458-2.887 1 1 0 0 0 -.591-1.284z"/><path d="m27.69 39.815a9.088 9.088 0 0 0 -4.313-1.226h-.006a8.248 8.248 0 0 0 -2.184.308 1 1 0 1 0 .533 1.928 6.3 6.3 0 0 1 1.656-.236 7.152 7.152 0 0 1 3.383 1 .982.982 0 0 0 .465.115 1 1 0 0 0 .466-1.885z"/></g></svg>